AlegreyaSans-LightItalic.ufo
<glyph name="exclam" format="2">
  <advance width="248.817"/>
  <unicode hex="0021"/>
  <outline>
    <contour>
      <point x="197" y="654" type="line"/>
      <point x="183" y="654" type="line"/>
      <point x="179" y="651" type="line"/>
      <point x="116" y="203" type="line"/>
      <point x="120" y="198" type="line"/>
      <point x="136" y="198" type="line"/>
      <point x="199" y="651" type="line"/>
    </contour>
    <contour>
      <point x="103" y="38" type="curve" smooth="yes"/>
      <point x="91" y="38"/>
      <point x="83" y="30"/>
      <point x="83" y="18" type="curve" smooth="yes"/>
      <point x="83" y="6"/>
      <point x="91" y="-2"/>
      <point x="103" y="-2" type="curve" smooth="yes"/>
      <point x="115" y="-2"/>
      <point x="123" y="6"/>
      <point x="123" y="18" type="curve" smooth="yes"/>
      <point x="123" y="30"/>
      <point x="115" y="38"/>
    </contour>
  </outline>
</glyph>
<glyph name="dollar" format="2">
  <advance width="392"/>
  <unicode hex="0024"/>
  <anchor x="182" y="0" name="bottom"/>
  <anchor x="183" y="491" name="top"/>
  <outline>
    <contour>
      <point x="243" y="493" type="curve" smooth="yes"/>
      <point x="151" y="493"/>
      <point x="88" y="432"/>
      <point x="88" y="363" type="curve" smooth="yes"/>
      <point x="88" y="233"/>
      <point x="301" y="247"/>
      <point x="301" y="135" type="curve" smooth="yes"/>
      <point x="301" y="77"/>
      <point x="244" y="17"/>
      <point x="160" y="17" type="curve" smooth="yes"/>
      <point x="123" y="17"/>
      <point x="79" y="29"/>
      <point x="47" y="54" type="curve"/>
      <point x="42" y="53" type="line"/>
      <point x="40" y="33" type="line"/>
      <point x="72" y="9"/>
      <point x="119" y="-3"/>
      <point x="159" y="-3" type="curve" smooth="yes"/>
      <point x="253" y="-3"/>
      <point x="321" y="61"/>
      <point x="321" y="134" type="curve" smooth="yes"/>
      <point x="321" y="266"/>
      <point x="108" y="251"/>
      <point x="108" y="362" type="curve" smooth="yes"/>
      <point x="108" y="417"/>
      <point x="159" y="473"/>
      <point x="242" y="473" type="curve" smooth="yes"/>
      <point x="267" y="473"/>
      <point x="300" y="468"/>
      <point x="330" y="452" type="curve"/>
      <point x="336" y="453" type="line"/>
      <point x="343" y="471" type="line"/>
      <point x="306" y="488"/>
      <point x="269" y="493"/>
    </contour>
    <contour>
      <point x="182" y="7" type="line"/>
      <point x="162" y="7" type="line"/>
      <point x="144" y="-120" type="line"/>
      <point x="148" y="-124" type="line"/>
      <point x="163" y="-124" type="line"/>
    </contour>
    <contour>
      <point x="248" y="482" type="line"/>
      <point x="227" y="482" type="line"/>
      <point x="162" y="7" type="line"/>
      <point x="182" y="7" type="line"/>
    </contour>
    <contour>
      <point x="264" y="630" type="line"/>
      <point x="248" y="630" type="line"/>
      <point x="227" y="482" type="line"/>
      <point x="248" y="482" type="line"/>
      <point x="268" y="625" type="line"/>
    </contour>
  </outline>
</glyph>
<glyph name="comma" format="2">
  <advance width="229.624"/>
  <unicode hex="002C"/>
  <outline>
    <contour>
      <point x="83" y="41" type="curve"/>
      <point x="77" y="38"/>
      <point x="73" y="34"/>
      <point x="70" y="30" type="curve"/>
      <point x="70" y="26" type="line"/>
      <point x="89" y="17"/>
      <point x="100" y="5"/>
      <point x="100" y="-8" type="curve"/>
      <point x="100" y="-32"/>
      <point x="81" y="-60"/>
      <point x="46" y="-86" type="curve"/>
      <point x="45" y="-89" type="line"/>
      <point x="55" y="-100" type="line"/>
      <point x="98" y="-67"/>
      <point x="121" y="-34"/>
      <point x="121" y="-7" type="curve"/>
      <point x="121" y="13"/>
      <point x="107" y="30"/>
    </contour>
  </outline>
</glyph>
<glyph name="period" format="2">
  <advance width="230"/>
  <unicode hex="002E"/>
  <outline>
    <contour>
      <point x="89" y="38" type="curve" smooth="yes"/>
      <point x="77" y="38"/>
      <point x="69" y="30"/>
      <point x="69" y="18" type="curve" smooth="yes"/>
      <point x="69" y="6"/>
      <point x="77" y="-2"/>
      <point x="89" y="-2" type="curve" smooth="yes"/>
      <point x="101" y="-2"/>
      <point x="109" y="6"/>
      <point x="109" y="18" type="curve" smooth="yes"/>
      <point x="109" y="30"/>
      <point x="101" y="38"/>
    </contour>
  </outline>
</glyph>
<glyph name="one" format="2">
  <advance width="328.456"/>
  <unicode hex="0031"/>
  <outline>
    <contour>
      <point x="215" y="493" type="line"/>
      <point x="41" y="440" type="line"/>
      <point x="39" y="424" type="line"/>
      <point x="44" y="421" type="line"/>
      <point x="195" y="466" type="line"/>
      <point x="163" y="201" type="line"/>
      <point x="138" y="0" type="line"/>
      <point x="158" y="0" type="line"/>
      <point x="184" y="206" type="line"/>
      <point x="218" y="489" type="line"/>
    </contour>
  </outline>
</glyph>
<glyph name="six" format="2">
  <advance width="455.386"/>
  <unicode hex="0036"/>
  <outline>
    <contour>
      <point x="409" y="592" type="line"/>
      <point x="405" y="592" type="line"/>
      <point x="126" y="499"/>
      <point x="54" y="299"/>
      <point x="54" y="170" type="curve" smooth="yes"/>
      <point x="54" y="60"/>
      <point x="106" y="-6"/>
      <point x="207" y="-6" type="curve"/>
      <point x="361" y="-6"/>
      <point x="397" y="118"/>
      <point x="397" y="192" type="curve" smooth="yes"/>
      <point x="397" y="285"/>
      <point x="341" y="335"/>
      <point x="250" y="335" type="curve" smooth="yes"/>
      <point x="190" y="335"/>
      <point x="139" y="313"/>
      <point x="93" y="276" type="curve"/>
      <point x="87" y="281" type="line"/>
      <point x="77" y="243" type="line"/>
      <point x="128" y="288"/>
      <point x="187" y="315"/>
      <point x="249" y="315" type="curve" smooth="yes"/>
      <point x="329" y="315"/>
      <point x="377" y="271"/>
      <point x="377" y="190" type="curve" smooth="yes"/>
      <point x="377" y="122"/>
      <point x="344" y="14"/>
      <point x="208" y="14" type="curve"/>
      <point x="118" y="14"/>
      <point x="74" y="73"/>
      <point x="74" y="173" type="curve" smooth="yes"/>
      <point x="74" y="303"/>
      <point x="148" y="486"/>
      <point x="416" y="577" type="curve"/>
      <point x="416" y="581" type="line"/>
    </contour>
  </outline>
</glyph>
<glyph name="less" format="2">
  <advance width="500"/>
  <unicode hex="003C"/>
  <outline>
    <contour>
      <point x="452" y="455" type="line"/>
      <point x="42" y="284" type="line"/>
      <point x="39" y="280" type="line"/>
      <point x="36" y="258" type="line"/>
      <point x="406" y="98" type="line"/>
      <point x="410" y="100" type="line"/>
      <point x="418" y="115" type="line"/>
      <point x="63" y="268" type="line"/>
      <point x="64" y="272" type="line"/>
      <point x="454" y="436" type="line"/>
      <point x="457" y="441" type="line"/>
    </contour>
  </outline>
</glyph>
<glyph name="question" format="2">
  <advance width="322.72"/>
  <unicode hex="003F"/>
  <outline>
    <contour>
      <point x="140" y="654" type="curve"/>
      <point x="133" y="651" type="line"/>
      <point x="126" y="638" type="line"/>
      <point x="128" y="635" type="line"/>
      <point x="257" y="627"/>
      <point x="326" y="581"/>
      <point x="326" y="509" type="curve" smooth="yes"/>
      <point x="326" y="461"/>
      <point x="294" y="420"/>
      <point x="243" y="388" type="curve" smooth="yes"/>
      <point x="133" y="319" type="line"/>
      <point x="127" y="310" type="line"/>
      <point x="120" y="198" type="line"/>
      <point x="122" y="194" type="line"/>
      <point x="139" y="195" type="line"/>
      <point x="147" y="303" type="line"/>
      <point x="149" y="306" type="line"/>
      <point x="253" y="372" type="line" smooth="yes"/>
      <point x="313" y="410"/>
      <point x="347" y="459"/>
      <point x="347" y="513" type="curve" smooth="yes"/>
      <point x="347" y="592"/>
      <point x="269" y="644"/>
    </contour>
    <contour>
      <point x="118" y="38" type="curve" smooth="yes"/>
      <point x="106" y="38"/>
      <point x="98" y="30"/>
      <point x="98" y="18" type="curve" smooth="yes"/>
      <point x="98" y="6"/>
      <point x="106" y="-2"/>
      <point x="118" y="-2" type="curve" smooth="yes"/>
      <point x="130" y="-2"/>
      <point x="138" y="6"/>
      <point x="138" y="18" type="curve" smooth="yes"/>
      <point x="138" y="30"/>
      <point x="130" y="38"/>
    </contour>
  </outline>
</glyph>
<glyph name="F" format="2">
  <advance width="394"/>
  <unicode hex="0046"/>
  <outline>
    <contour>
      <point x="180" y="637" type="line"/>
      <point x="160" y="637" type="line"/>
      <point x="105" y="195" type="line"/>
      <point x="80" y="0" type="line"/>
      <point x="100" y="0" type="line"/>
      <point x="125" y="195" type="line"/>
    </contour>
    <contour>
      <point x="356" y="330" type="line"/>
      <point x="261" y="330" type="line"/>
      <point x="136" y="330" type="line"/>
      <point x="133" y="310" type="line"/>
      <point x="254" y="310" type="line"/>
      <point x="352" y="310" type="line"/>
      <point x="358" y="326" type="line"/>
    </contour>
    <contour>
      <point x="441" y="637" type="line"/>
      <point x="174" y="637" type="line"/>
      <point x="168" y="621" type="line"/>
      <point x="172" y="617" type="line"/>
      <point x="306" y="617" type="line"/>
      <point x="438" y="617" type="line"/>
      <point x="444" y="633" type="line"/>
    </contour>
  </outline>
</glyph>
<glyph name="J" format="2">
  <advance width="260"/>
  <unicode hex="004A"/>
  <anchor x="131" y="637" name="top"/>
  <outline>
    <contour>
      <point x="200" y="637" type="line"/>
      <point x="180" y="637" type="line"/>
      <point x="127" y="208" type="line"/>
      <point x="116" y="115" type="line" smooth="yes"/>
      <point x="106" y="32"/>
      <point x="64" y="-25"/>
      <point x="-27" y="-81" type="curve"/>
      <point x="-27" y="-87" type="line"/>
      <point x="-18" y="-98" type="line"/>
      <point x="81" y="-37"/>
      <point x="123" y="21"/>
      <point x="135" y="115" type="curve" smooth="yes"/>
      <point x="147" y="212" type="line"/>
    </contour>
    <contour>
      <point x="190" y="637" type="line"/>
      <point x="54" y="637" type="line"/>
      <point x="49" y="621" type="line"/>
      <point x="53" y="617" type="line"/>
      <point x="188" y="617" type="line"/>
    </contour>
  </outline>
</glyph>
<glyph name="K" format="2">
  <advance width="483"/>
  <unicode hex="004B"/>
  <anchor x="266" y="0" name="bottom"/>
  <anchor x="318" y="637" name="top"/>
  <outline>
    <contour>
      <point x="514" y="637" type="line"/>
      <point x="482" y="637" type="line"/>
      <point x="435" y="590" type="line"/>
      <point x="170" y="342" type="line"/>
      <point x="170" y="339" type="line"/>
      <point x="248" y="220"/>
      <point x="338" y="102"/>
      <point x="428" y="-6" type="curve"/>
      <point x="432" y="-7" type="line"/>
      <point x="437" y="-5"/>
      <point x="442" y="-3"/>
      <point x="446" y="1" type="curve"/>
      <point x="446" y="5" type="line"/>
      <point x="359" y="108"/>
      <point x="273" y="224"/>
      <point x="198" y="339" type="curve"/>
    </contour>
    <contour>
      <point x="181" y="637" type="line"/>
      <point x="161" y="637" type="line"/>
      <point x="105" y="195" type="line"/>
      <point x="80" y="0" type="line"/>
      <point x="100" y="0" type="line"/>
      <point x="125" y="195" type="line"/>
    </contour>
  </outline>
</glyph>
<glyph name="L" format="2">
  <advance width="382"/>
  <unicode hex="004C"/>
  <anchor x="202" y="0" name="bottom"/>
  <anchor x="202" y="319" name="center"/>
  <anchor x="173" y="637" name="top"/>
  <anchor x="369" y="387" name="topright"/>
  <outline>
    <contour>
      <point x="181" y="637" type="line"/>
      <point x="161" y="637" type="line"/>
      <point x="106" y="195" type="line"/>
      <point x="81" y="0" type="line"/>
      <point x="101" y="0" type="line"/>
      <point x="126" y="195" type="line"/>
    </contour>
    <contour>
      <point x="348" y="20" type="line"/>
      <point x="94" y="20" type="line"/>
      <point x="89" y="4" type="line"/>
      <point x="92" y="0" type="line"/>
      <point x="345" y="0" type="line"/>
      <point x="351" y="16" type="line"/>
    </contour>
  </outline>
</glyph>
<glyph name="Q" format="2">
  <advance width="592"/>
  <unicode hex="0051"/>
  <outline>
    <contour>
      <point x="355" y="642" type="curve"/>
      <point x="165" y="642"/>
      <point x="56" y="495"/>
      <point x="56" y="253" type="curve" smooth="yes"/>
      <point x="56" y="89"/>
      <point x="130" y="-5"/>
      <point x="267" y="-5" type="curve" smooth="yes"/>
      <point x="459" y="-5"/>
      <point x="568" y="147"/>
      <point x="568" y="391" type="curve" smooth="yes"/>
      <point x="568" y="551"/>
      <point x="494" y="642"/>
    </contour>
    <contour>
      <point x="308" y="9" type="curve"/>
      <point x="289" y="-1" type="line"/>
      <point x="384" y="-100"/>
      <point x="511" y="-165"/>
      <point x="647" y="-182" type="curve"/>
      <point x="651" y="-182" type="line"/>
      <point x="652" y="-182"/>
      <point x="655" y="-178"/>
      <point x="661" y="-170" type="curve"/>
      <point x="662" y="-164" type="line"/>
      <point x="524" y="-147"/>
      <point x="400" y="-85"/>
    </contour>
    <contour>
      <point x="354" y="622" type="curve" smooth="yes"/>
      <point x="481" y="622"/>
      <point x="547" y="537"/>
      <point x="547" y="387" type="curve" smooth="yes"/>
      <point x="547" y="159"/>
      <point x="445" y="15"/>
      <point x="268" y="15" type="curve" smooth="yes"/>
      <point x="144" y="15"/>
      <point x="77" y="103"/>
      <point x="77" y="256" type="curve" smooth="yes"/>
      <point x="77" y="483"/>
      <point x="179" y="622"/>
    </contour>
  </outline>
</glyph>
<glyph name="X" format="2">
  <advance width="537"/>
  <unicode hex="0058"/>
  <outline>
    <contour>
      <point x="528" y="637" type="line"/>
      <point x="501" y="637" type="line"/>
      <point x="474" y="597" type="line"/>
      <point x="279" y="346" type="line"/>
      <point x="145" y="602" type="line"/>
      <point x="129" y="637" type="line"/>
      <point x="103" y="637" type="line"/>
      <point x="264" y="331" type="line"/>
      <point x="7" y="0" type="line"/>
      <point x="34" y="0" type="line"/>
      <point x="59" y="36" type="line"/>
      <point x="274" y="314" type="line"/>
      <point x="422" y="38" type="line"/>
      <point x="438" y="0" type="line"/>
      <point x="463" y="0" type="line"/>
      <point x="290" y="329" type="line"/>
    </contour>
  </outline>
</glyph>
<glyph name="underscore" format="2">
  <advance width="454.677"/>
  <unicode hex="005F"/>
  <outline>
    <contour>
      <point x="429" y="-86" type="line"/>
      <point x="-51" y="-86" type="line"/>
      <point x="-55" y="-103" type="line"/>
      <point x="-53" y="-106" type="line"/>
      <point x="427" y="-106" type="line"/>
      <point x="431" y="-89" type="line"/>
    </contour>
  </outline>
</glyph>
<glyph name="c" format="2">
  <advance width="324"/>
  <unicode hex="0063"/>
  <anchor x="159" y="0" name="bottom"/>
  <anchor x="222" y="452" name="top"/>
  <outline>
    <contour>
      <point x="263" y="456" type="line"/>
      <point x="114" y="456"/>
      <point x="48" y="320"/>
      <point x="48" y="142" type="curve" smooth="yes"/>
      <point x="48" y="23"/>
      <point x="87" y="3"/>
      <point x="134" y="-5" type="curve"/>
      <point x="142" y="-5" type="line"/>
      <point x="194" y="2"/>
      <point x="238" y="28"/>
      <point x="281" y="105" type="curve"/>
      <point x="272" y="118" type="line"/>
      <point x="266" y="118" type="line"/>
      <point x="225" y="38"/>
      <point x="178" y="16"/>
      <point x="141" y="16" type="curve" smooth="yes"/>
      <point x="94" y="16"/>
      <point x="68" y="51"/>
      <point x="68" y="141" type="curve" smooth="yes"/>
      <point x="68" y="322"/>
      <point x="135" y="435"/>
      <point x="249" y="436" type="curve"/>
      <point x="265" y="436"/>
      <point x="289" y="428"/>
      <point x="313" y="413" type="curve"/>
      <point x="318" y="416" type="line"/>
      <point x="324" y="430" type="line"/>
      <point x="319" y="437" type="line"/>
    </contour>
  </outline>
</glyph>
<glyph name="e" format="2">
  <advance width="354"/>
  <unicode hex="0065"/>
  <anchor x="155" y="0" name="bottom"/>
  <anchor x="210" y="20" name="ogonek"/>
  <anchor x="233" y="452" name="top"/>
  <outline>
    <contour>
      <point x="61" y="195" type="curve"/>
      <point x="61" y="174" type="line"/>
      <point x="235" y="237"/>
      <point x="322" y="312"/>
      <point x="322" y="388" type="curve" smooth="yes"/>
      <point x="322" y="428"/>
      <point x="298" y="453"/>
      <point x="247" y="457" type="curve"/>
      <point x="242" y="457" type="line"/>
      <point x="132" y="454"/>
      <point x="47" y="322"/>
      <point x="47" y="143" type="curve"/>
      <point x="47" y="50"/>
      <point x="72" y="3"/>
      <point x="139" y="-5" type="curve"/>
      <point x="148" y="-5" type="line"/>
      <point x="210" y="3"/>
      <point x="254" y="39"/>
      <point x="293" y="105" type="curve"/>
      <point x="284" y="118" type="line"/>
      <point x="277" y="118" type="line"/>
      <point x="241" y="53"/>
      <point x="196" y="16"/>
      <point x="146" y="16" type="curve" smooth="yes"/>
      <point x="93" y="16"/>
      <point x="67" y="56"/>
      <point x="67" y="148" type="curve" smooth="yes"/>
      <point x="67" y="313"/>
      <point x="146" y="436"/>
      <point x="244" y="436" type="curve" smooth="yes"/>
      <point x="283" y="436"/>
      <point x="301" y="414"/>
      <point x="301" y="385" type="curve" smooth="yes"/>
      <point x="301" y="320"/>
      <point x="215" y="250"/>
    </contour>
  </outline>
</glyph>
<glyph name="k" format="2">
  <advance width="426"/>
  <unicode hex="006B"/>
  <anchor x="185" y="0" name="bottom"/>
  <anchor x="159" y="650" name="top"/>
  <anchor x="204" y="452" name="topright"/>
  <outline>
    <contour>
      <point x="337" y="458" type="curve"/>
      <point x="321" y="457" type="line"/>
      <point x="250" y="423"/>
      <point x="188" y="324"/>
      <point x="111" y="189" type="curve"/>
      <point x="98" y="189" type="line"/>
      <point x="85" y="98" type="line"/>
      <point x="201" y="319"/>
      <point x="286" y="436"/>
      <point x="333" y="436" type="curve" smooth="yes"/>
      <point x="349" y="436"/>
      <point x="375" y="421"/>
      <point x="375" y="379" type="curve" smooth="yes"/>
      <point x="375" y="314"/>
      <point x="313" y="251"/>
      <point x="202" y="190" type="curve"/>
      <point x="201" y="181" type="line"/>
      <point x="247" y="117"/>
      <point x="293" y="53"/>
      <point x="343" y="-9" type="curve"/>
      <point x="347" y="-11" type="line"/>
      <point x="363" y="-3" type="line"/>
      <point x="363" y="0" type="line"/>
      <point x="314" y="60"/>
      <point x="269" y="121"/>
      <point x="226" y="183" type="curve"/>
      <point x="337" y="246"/>
      <point x="395" y="312"/>
      <point x="395" y="382" type="curve" smooth="yes"/>
      <point x="395" y="428"/>
      <point x="370" y="452"/>
    </contour>
    <contour>
      <point x="175" y="702" type="line"/>
      <point x="149" y="698" type="line"/>
      <point x="143" y="608" type="line"/>
      <point x="61" y="-4" type="line"/>
      <point x="87" y="0" type="line"/>
      <point x="96" y="106" type="line"/>
    </contour>
  </outline>
</glyph>
<glyph name="l" format="2">
  <advance width="202"/>
  <unicode hex="006C"/>
  <anchor x="73" y="0" name="bottom"/>
  <anchor x="161" y="700" name="top"/>
  <anchor x="255" y="452" name="topright"/>
  <outline>
    <contour>
      <point x="174" y="702" type="line"/>
      <point x="148" y="698" type="line"/>
      <point x="142" y="608" type="line"/>
      <point x="60" y="-4" type="line"/>
      <point x="86" y="0" type="line"/>
      <point x="95" y="106" type="line"/>
    </contour>
  </outline>
</glyph>
<glyph name="q" format="2">
  <advance width="421"/>
  <unicode hex="0071"/>
  <outline>
    <contour>
      <point x="279" y="454" type="line"/>
      <point x="275" y="454" type="line"/>
      <point x="128" y="445"/>
      <point x="45" y="303"/>
      <point x="45" y="133" type="curve" smooth="yes"/>
      <point x="45" y="57"/>
      <point x="62" y="21"/>
      <point x="96" y="-4" type="curve"/>
      <point x="107" y="-4" type="line"/>
      <point x="178" y="60"/>
      <point x="251" y="159"/>
      <point x="311" y="271" type="curve"/>
      <point x="316" y="271" type="line"/>
      <point x="335" y="355" type="line"/>
      <point x="233" y="146"/>
      <point x="118" y="24"/>
      <point x="104" y="24" type="curve" smooth="yes"/>
      <point x="93" y="24"/>
      <point x="66" y="51"/>
      <point x="66" y="138" type="curve" smooth="yes"/>
      <point x="66" y="291"/>
      <point x="145" y="434"/>
      <point x="276" y="434" type="curve"/>
      <point x="348" y="431" type="line"/>
      <point x="352" y="451" type="line"/>
    </contour>
    <contour>
      <point x="353" y="459" type="line"/>
      <point x="334" y="448" type="line"/>
      <point x="327" y="362" type="line"/>
      <point x="256" y="-189" type="line"/>
      <point x="281" y="-185" type="line"/>
      <point x="290" y="-79" type="line"/>
      <point x="358" y="456" type="line"/>
    </contour>
  </outline>
</glyph>
<glyph name="t" format="2">
  <advance width="316"/>
  <unicode hex="0074"/>
  <anchor x="159" y="0" name="bottom"/>
  <anchor x="156" y="226" name="center"/>
  <anchor x="166" y="497" name="top"/>
  <anchor x="284" y="452" name="topright"/>
  <outline>
    <contour>
      <point x="148" y="-5" type="curve"/>
      <point x="189" y="4"/>
      <point x="215" y="31"/>
      <point x="263" y="108" type="curve"/>
      <point x="254" y="120" type="line"/>
      <point x="247" y="120" type="line"/>
      <point x="211" y="54"/>
      <point x="172" y="15"/>
      <point x="144" y="15" type="curve" smooth="yes"/>
      <point x="119" y="15"/>
      <point x="104" y="34"/>
      <point x="104" y="67" type="curve"/>
      <point x="106" y="87" type="line"/>
      <point x="190" y="587" type="line"/>
      <point x="187" y="590" type="line"/>
      <point x="165" y="580" type="line"/>
      <point x="133" y="362" type="line"/>
      <point x="86" y="86" type="line"/>
      <point x="84" y="64" type="line"/>
      <point x="84" y="19"/>
      <point x="106" y="-5"/>
    </contour>
    <contour>
      <point x="72" y="429" type="line"/>
      <point x="311" y="429" type="line"/>
      <point x="314" y="445" type="line"/>
      <point x="311" y="449" type="line"/>
      <point x="71" y="449" type="line"/>
      <point x="68" y="433" type="line"/>
    </contour>
  </outline>
</glyph>
<glyph name="w" format="2">
  <advance width="659"/>
  <unicode hex="0077"/>
  <anchor x="357" y="452" name="top"/>
  <outline>
    <contour>
      <point x="601" y="258" type="line" smooth="yes"/>
      <point x="627" y="302"/>
      <point x="642" y="339"/>
      <point x="642" y="373" type="curve" smooth="yes"/>
      <point x="642" y="402"/>
      <point x="632" y="428"/>
      <point x="613" y="455" type="curve"/>
      <point x="595" y="449" type="line"/>
      <point x="594" y="444" type="line"/>
      <point x="611" y="421"/>
      <point x="622" y="399"/>
      <point x="622" y="374" type="curve" smooth="yes"/>
      <point x="622" y="344"/>
      <point x="607" y="308"/>
      <point x="584" y="268" type="curve" smooth="yes"/>
      <point x="447" y="30" type="line"/>
      <point x="443" y="30" type="line"/>
      <point x="397" y="409" type="line"/>
      <point x="393" y="452" type="line"/>
      <point x="369" y="452" type="line"/>
      <point x="348" y="409" type="line"/>
      <point x="166" y="30" type="line"/>
      <point x="162" y="30" type="line"/>
      <point x="116" y="409" type="line"/>
      <point x="112" y="455" type="line"/>
      <point x="90" y="450" type="line"/>
      <point x="145" y="0" type="line"/>
      <point x="171" y="0" type="line"/>
      <point x="374" y="418" type="line"/>
      <point x="378" y="418" type="line"/>
      <point x="428" y="0" type="line"/>
      <point x="448" y="0" type="line"/>
    </contour>
  </outline>
</glyph>
<glyph name="x" format="2">
  <advance width="414"/>
  <unicode hex="0078"/>
  <outline>
    <contour>
      <point x="224" y="229" type="line"/>
      <point x="402" y="452" type="line"/>
      <point x="374" y="452" type="line"/>
      <point x="350" y="418" type="line"/>
      <point x="212" y="249" type="line"/>
      <point x="121" y="423" type="line"/>
      <point x="106" y="456" type="line"/>
      <point x="85" y="448" type="line"/>
      <point x="199" y="233" type="line"/>
      <point x="12" y="0" type="line"/>
      <point x="40" y="0" type="line"/>
      <point x="63" y="32" type="line"/>
      <point x="210" y="213" type="line"/>
      <point x="307" y="36" type="line"/>
      <point x="326" y="-4" type="line"/>
      <point x="347" y="4" type="line"/>
    </contour>
  </outline>
</glyph>
<glyph name="y" format="2">
  <advance width="379"/>
  <unicode hex="0079"/>
  <anchor x="240" y="3" name="bottom"/>
  <anchor x="217" y="452" name="top"/>
  <outline>
    <contour>
      <point x="333" y="455" type="curve"/>
      <point x="315" y="449" type="line"/>
      <point x="314" y="444" type="line"/>
      <point x="333" y="418"/>
      <point x="342" y="396"/>
      <point x="342" y="374" type="curve" smooth="yes"/>
      <point x="342" y="344"/>
      <point x="331" y="310"/>
      <point x="306" y="268" type="curve" smooth="yes"/>
      <point x="141" y="-10" type="line" smooth="yes"/>
      <point x="51" y="-162"/>
      <point x="3" y="-195"/>
      <point x="-84" y="-162" type="curve"/>
      <point x="-89" y="-164" type="line"/>
      <point x="-91" y="-183" type="line"/>
      <point x="7" y="-217"/>
      <point x="64" y="-180"/>
      <point x="159" y="-19" type="curve" smooth="yes"/>
      <point x="323" y="258" type="line" smooth="yes"/>
      <point x="349" y="302"/>
      <point x="362" y="339"/>
      <point x="362" y="373" type="curve" smooth="yes"/>
      <point x="362" y="401"/>
      <point x="353" y="427"/>
    </contour>
    <contour>
      <point x="97" y="456" type="line"/>
      <point x="74" y="450" type="line"/>
      <point x="156" y="0" type="line"/>
      <point x="180" y="42" type="line"/>
      <point x="168" y="42" type="line"/>
      <point x="109" y="382" type="line"/>
    </contour>
  </outline>
</glyph>
<glyph name="logicalnot" format="2">
  <advance width="480.106"/>
  <unicode hex="00AC"/>
  <outline>
    <contour>
      <point x="417" y="280" type="line"/>
      <point x="44" y="280" type="line"/>
      <point x="40" y="263" type="line"/>
      <point x="42" y="260" type="line"/>
      <point x="400" y="260" type="line"/>
      <point x="377" y="72" type="line"/>
      <point x="380" y="69" type="line"/>
      <point x="397" y="71" type="line"/>
      <point x="422" y="274" type="line"/>
    </contour>
  </outline>
</glyph>
<glyph name="degree" format="2">
  <advance width="295.1"/>
  <unicode hex="00B0"/>
  <outline>
    <contour>
      <point x="199" y="642" type="curve" smooth="yes"/>
      <point x="126" y="642"/>
      <point x="61" y="583"/>
      <point x="61" y="510" type="curve" smooth="yes"/>
      <point x="61" y="449"/>
      <point x="106" y="403"/>
      <point x="169" y="403" type="curve" smooth="yes"/>
      <point x="241" y="403"/>
      <point x="306" y="461"/>
      <point x="306" y="534" type="curve" smooth="yes"/>
      <point x="306" y="595"/>
      <point x="261" y="642"/>
    </contour>
    <contour>
      <point x="196" y="622" type="curve" smooth="yes"/>
      <point x="246" y="622"/>
      <point x="285" y="581"/>
      <point x="285" y="531" type="curve" smooth="yes"/>
      <point x="285" y="474"/>
      <point x="229" y="423"/>
      <point x="172" y="423" type="curve" smooth="yes"/>
      <point x="121" y="423"/>
      <point x="81" y="464"/>
      <point x="81" y="513" type="curve" smooth="yes"/>
      <point x="81" y="571"/>
      <point x="138" y="622"/>
    </contour>
  </outline>
</glyph>
<glyph name="micro" format="2">
  <advance width="450"/>
  <unicode hex="00B5"/>
  <outline>
    <contour>
      <point x="92" y="75" type="curve"/>
      <point x="76" y="74" type="line"/>
      <point x="74" y="28"/>
      <point x="92" y="-1"/>
      <point x="129" y="-11" type="curve"/>
      <point x="140" y="-11" type="line"/>
      <point x="189" y="23"/>
      <point x="226" y="74"/>
      <point x="343" y="267" type="curve"/>
      <point x="356" y="267" type="line"/>
      <point x="368" y="353" type="line"/>
      <point x="244" y="128"/>
      <point x="165" y="15"/>
      <point x="133" y="15" type="curve" smooth="yes"/>
      <point x="108" y="15"/>
      <point x="87" y="45"/>
    </contour>
    <contour>
      <point x="392" y="456" type="line"/>
      <point x="367" y="452" type="line"/>
      <point x="360" y="362" type="line"/>
      <point x="312" y="-4" type="line"/>
      <point x="337" y="0" type="line"/>
      <point x="346" y="106" type="line"/>
    </contour>
    <contour>
      <point x="140" y="456" type="line"/>
      <point x="115" y="452" type="line"/>
      <point x="109" y="362" type="line"/>
      <point x="38" y="-189" type="line"/>
      <point x="63" y="-185" type="line"/>
      <point x="84" y="42" type="line"/>
      <point x="92" y="75" type="line"/>
    </contour>
  </outline>
</glyph>
<glyph name="AE" format="2">
  <advance width="744"/>
  <unicode hex="00C6"/>
  <anchor x="516" y="637" name="top"/>
  <outline>
    <contour>
      <point x="669" y="637" type="line"/>
      <point x="384" y="637" type="line"/>
      <point x="-42" y="0" type="line"/>
      <point x="-15" y="0" type="line"/>
      <point x="11" y="43" type="line"/>
      <point x="382" y="602" type="line"/>
      <point x="385" y="602" type="line"/>
      <point x="403" y="43" type="line"/>
      <point x="403" y="0" type="line"/>
      <point x="689" y="0" type="line"/>
      <point x="695" y="16" type="line"/>
      <point x="694" y="20" type="line"/>
      <point x="539" y="20" type="line"/>
      <point x="423" y="20" type="line"/>
      <point x="406" y="617" type="line"/>
      <point x="508" y="617" type="line"/>
      <point x="664" y="617" type="line"/>
      <point x="671" y="633" type="line"/>
    </contour>
    <contour>
      <point x="642" y="352" type="line"/>
      <point x="409" y="312" type="line"/>
      <point x="139" y="266" type="line"/>
      <point x="124" y="243" type="line"/>
      <point x="405" y="292" type="line"/>
      <point x="639" y="332" type="line"/>
      <point x="644" y="349" type="line"/>
    </contour>
  </outline>
</glyph>
<glyph name="multiply" format="2">
  <advance width="480.776"/>
  <unicode hex="00D7"/>
  <outline>
    <contour>
      <point x="398" y="418" type="line"/>
      <point x="247" y="284" type="line"/>
      <point x="130" y="418" type="line"/>
      <point x="116" y="407" type="line"/>
      <point x="115" y="403" type="line"/>
      <point x="232" y="270" type="line"/>
      <point x="82" y="137" type="line"/>
      <point x="82" y="133" type="line"/>
      <point x="94" y="122" type="line"/>
      <point x="244" y="256" type="line"/>
      <point x="362" y="122" type="line"/>
      <point x="376" y="133" type="line"/>
      <point x="376" y="137" type="line"/>
      <point x="260" y="270" type="line"/>
      <point x="409" y="403" type="line"/>
      <point x="410" y="407" type="line"/>
    </contour>
  </outline>
</glyph>
<glyph name="Oslash" format="2">
  <advance width="600"/>
  <unicode hex="00D8"/>
  <anchor x="272" y="0" name="bottom"/>
  <anchor x="350" y="637" name="top"/>
  <outline>
    <contour>
      <point x="544" y="706" type="line"/>
      <point x="528" y="709" type="line"/>
      <point x="85" y="-80" type="line"/>
      <point x="87" y="-84" type="line"/>
      <point x="102" y="-87" type="line"/>
      <point x="545" y="701" type="line"/>
    </contour>
    <contour>
      <point x="355" y="642" type="curve"/>
      <point x="165" y="642"/>
      <point x="56" y="495"/>
      <point x="56" y="253" type="curve" smooth="yes"/>
      <point x="56" y="89"/>
      <point x="130" y="-5"/>
      <point x="267" y="-5" type="curve" smooth="yes"/>
      <point x="459" y="-5"/>
      <point x="568" y="147"/>
      <point x="568" y="391" type="curve" smooth="yes"/>
      <point x="568" y="551"/>
      <point x="494" y="642"/>
    </contour>
    <contour>
      <point x="354" y="622" type="curve" smooth="yes"/>
      <point x="481" y="622"/>
      <point x="547" y="537"/>
      <point x="547" y="387" type="curve" smooth="yes"/>
      <point x="547" y="159"/>
      <point x="445" y="15"/>
      <point x="268" y="15" type="curve" smooth="yes"/>
      <point x="144" y="15"/>
      <point x="77" y="103"/>
      <point x="77" y="256" type="curve" smooth="yes"/>
      <point x="77" y="483"/>
      <point x="179" y="622"/>
    </contour>
  </outline>
</glyph>
<glyph name="ae" format="2">
  <advance width="570"/>
  <unicode hex="00E6"/>
  <anchor x="597" y="0" name="bottom"/>
  <anchor x="386" y="10" name="ogonek"/>
  <anchor x="342" y="452" name="top"/>
  <outline>
    <contour>
      <point x="379" y="431" type="curve"/>
      <point x="277" y="457" type="line"/>
      <point x="273" y="457" type="line"/>
      <point x="127" y="447"/>
      <point x="46" y="305"/>
      <point x="46" y="137" type="curve" smooth="yes"/>
      <point x="46" y="58"/>
      <point x="63" y="22"/>
      <point x="98" y="-4" type="curve"/>
      <point x="109" y="-4" type="line"/>
      <point x="164" y="52"/>
      <point x="221" y="136"/>
      <point x="270" y="232" type="curve"/>
      <point x="265" y="204"/>
      <point x="263" y="174"/>
      <point x="263" y="143" type="curve" smooth="yes"/>
      <point x="263" y="50"/>
      <point x="288" y="3"/>
      <point x="355" y="-5" type="curve"/>
      <point x="364" y="-5" type="line"/>
      <point x="426" y="3"/>
      <point x="470" y="39"/>
      <point x="509" y="105" type="curve"/>
      <point x="500" y="118" type="line"/>
      <point x="493" y="118" type="line"/>
      <point x="457" y="53"/>
      <point x="412" y="16"/>
      <point x="362" y="16" type="curve" smooth="yes"/>
      <point x="309" y="16"/>
      <point x="283" y="56"/>
      <point x="283" y="148" type="curve" smooth="yes"/>
      <point x="283" y="150"/>
      <point x="283" y="162"/>
      <point x="284" y="176" type="curve"/>
      <point x="453" y="239"/>
      <point x="538" y="313"/>
      <point x="538" y="388" type="curve" smooth="yes"/>
      <point x="538" y="428"/>
      <point x="514" y="453"/>
      <point x="463" y="457" type="curve"/>
      <point x="458" y="457" type="line" smooth="yes"/>
      <point x="430" y="456"/>
      <point x="403" y="447"/>
    </contour>
    <contour>
      <point x="275" y="437" type="curve"/>
      <point x="359" y="414" type="line"/>
      <point x="337" y="394"/>
      <point x="318" y="367"/>
      <point x="302" y="335" type="curve"/>
      <point x="221" y="148"/>
      <point x="119" y="24"/>
      <point x="106" y="24" type="curve" smooth="yes"/>
      <point x="94" y="24"/>
      <point x="66" y="52"/>
      <point x="66" y="141" type="curve" smooth="yes"/>
      <point x="66" y="293"/>
      <point x="144" y="434"/>
    </contour>
    <contour>
      <point x="460" y="436" type="curve" smooth="yes"/>
      <point x="499" y="436"/>
      <point x="517" y="414"/>
      <point x="517" y="385" type="curve" smooth="yes"/>
      <point x="517" y="321"/>
      <point x="434" y="253"/>
      <point x="286" y="198" type="curve"/>
      <point x="300" y="337"/>
      <point x="372" y="436"/>
    </contour>
  </outline>
</glyph>
<glyph name="oslash" format="2">
  <advance width="396"/>
  <unicode hex="00F8"/>
  <anchor x="170" y="0" name="bottom"/>
  <anchor x="198" y="226" name="center"/>
  <anchor x="212" y="10" name="ogonek"/>
  <anchor x="248" y="452" name="top"/>
  <anchor x="404" y="452" name="topright"/>
  <outline>
    <contour>
      <point x="338" y="528" type="line"/>
      <point x="323" y="530" type="line"/>
      <point x="49" y="-100" type="line"/>
      <point x="51" y="-104" type="line"/>
      <point x="66" y="-107" type="line"/>
      <point x="340" y="523" type="line"/>
    </contour>
    <contour>
      <point x="248" y="458" type="line"/>
      <point x="124" y="455"/>
      <point x="48" y="316"/>
      <point x="48" y="134" type="curve" smooth="yes"/>
      <point x="48" y="41"/>
      <point x="78" y="-2"/>
      <point x="144" y="-6" type="curve"/>
      <point x="149" y="-6" type="line"/>
      <point x="273" y="2"/>
      <point x="348" y="138"/>
      <point x="348" y="320" type="curve" smooth="yes"/>
      <point x="348" y="410"/>
      <point x="320" y="453"/>
      <point x="253" y="458" type="curve"/>
    </contour>
    <contour>
      <point x="248" y="437" type="curve" smooth="yes"/>
      <point x="303" y="437"/>
      <point x="327" y="399"/>
      <point x="327" y="317" type="curve" smooth="yes"/>
      <point x="327" y="145"/>
      <point x="254" y="15"/>
      <point x="148" y="15" type="curve" smooth="yes"/>
      <point x="93" y="15"/>
      <point x="68" y="54"/>
      <point x="68" y="137" type="curve" smooth="yes"/>
      <point x="68" y="308"/>
      <point x="141" y="437"/>
    </contour>
  </outline>
</glyph>
<glyph name="idotless" format="2">
  <advance width="203"/>
  <unicode hex="0131"/>
  <anchor x="74" y="0" name="bottom"/>
  <anchor x="88" y="0" name="ogonek"/>
  <anchor x="129" y="452" name="top"/>
  <outline>
    <contour>
      <point x="141" y="456" type="line"/>
      <point x="116" y="452" type="line"/>
      <point x="110" y="362" type="line"/>
      <point x="61" y="-4" type="line"/>
      <point x="88" y="0" type="line"/>
      <point x="95" y="106" type="line"/>
    </contour>
  </outline>
</glyph>
<glyph name="eng" format="2">
  <advance width="458"/>
  <unicode hex="014B"/>
  <outline>
    <contour>
      <point x="156" y="56" type="move"/>
    </contour>
    <contour>
      <point x="116" y="452" type="line"/>
      <point x="109" y="362" type="line"/>
      <point x="61" y="-4" type="line"/>
      <point x="86" y="0" type="line"/>
      <point x="95" y="106" type="line"/>
      <point x="141" y="456" type="line"/>
    </contour>
    <contour>
      <point x="335" y="462" type="curve"/>
      <point x="324" y="462" type="line"/>
      <point x="254" y="416"/>
      <point x="189" y="319"/>
      <point x="111" y="184" type="curve"/>
      <point x="98" y="184" type="line"/>
      <point x="86" y="98" type="line"/>
      <point x="200" y="314"/>
      <point x="297" y="436"/>
      <point x="331" y="436" type="curve" smooth="yes"/>
      <point x="348" y="436"/>
      <point x="366" y="410"/>
      <point x="365" y="376" type="curve"/>
      <point x="364" y="361" type="line"/>
      <point x="307" y="8" type="line"/>
      <point x="341" y="93" type="line"/>
      <point x="385" y="364" type="line"/>
      <point x="386" y="377" type="line"/>
      <point x="388" y="419"/>
      <point x="366" y="453"/>
    </contour>
    <contour>
      <point x="341" y="93" type="line"/>
      <point x="307" y="8" type="line"/>
      <point x="293" y="-83"/>
      <point x="269" y="-125"/>
      <point x="199" y="-175" type="curve"/>
      <point x="198" y="-181" type="line"/>
      <point x="207" y="-192" type="line"/>
      <point x="284" y="-138"/>
      <point x="313" y="-90"/>
      <point x="329" y="18" type="curve"/>
    </contour>
  </outline>
</glyph>
<glyph name="oe" format="2">
  <advance width="622"/>
  <unicode hex="0153"/>
  <anchor x="576" y="0" name="bottom"/>
  <anchor x="716" y="10" name="ogonek"/>
  <anchor x="446" y="452" name="top"/>
  <outline>
    <contour>
      <point x="249" y="458" type="line"/>
      <point x="124" y="455"/>
      <point x="48" y="316"/>
      <point x="48" y="134" type="curve" smooth="yes"/>
      <point x="48" y="41"/>
      <point x="78" y="-2"/>
      <point x="145" y="-6" type="curve"/>
      <point x="150" y="-6" type="line"/>
      <point x="275" y="2"/>
      <point x="349" y="138"/>
      <point x="349" y="320" type="curve" smooth="yes"/>
      <point x="349" y="410"/>
      <point x="322" y="453"/>
      <point x="254" y="458" type="curve"/>
    </contour>
    <contour>
      <point x="249" y="437" type="curve" smooth="yes"/>
      <point x="305" y="437"/>
      <point x="329" y="399"/>
      <point x="329" y="317" type="curve" smooth="yes"/>
      <point x="329" y="145"/>
      <point x="256" y="15"/>
      <point x="149" y="15" type="curve" smooth="yes"/>
      <point x="93" y="15"/>
      <point x="68" y="54"/>
      <point x="68" y="137" type="curve" smooth="yes"/>
      <point x="68" y="308"/>
      <point x="141" y="437"/>
    </contour>
    <contour>
      <point x="329" y="195" type="curve"/>
      <point x="329" y="174" type="line"/>
      <point x="503" y="237"/>
      <point x="590" y="312"/>
      <point x="590" y="388" type="curve" smooth="yes"/>
      <point x="590" y="428"/>
      <point x="566" y="453"/>
      <point x="515" y="457" type="curve"/>
      <point x="510" y="457" type="line"/>
      <point x="400" y="454"/>
      <point x="316" y="322"/>
      <point x="316" y="143" type="curve"/>
      <point x="316" y="50"/>
      <point x="340" y="3"/>
      <point x="407" y="-5" type="curve"/>
      <point x="416" y="-5" type="line"/>
      <point x="478" y="3"/>
      <point x="522" y="39"/>
      <point x="561" y="105" type="curve"/>
      <point x="552" y="118" type="line"/>
      <point x="545" y="118" type="line"/>
      <point x="509" y="53"/>
      <point x="464" y="16"/>
      <point x="414" y="16" type="curve" smooth="yes"/>
      <point x="361" y="16"/>
      <point x="335" y="56"/>
      <point x="335" y="148" type="curve" smooth="yes"/>
      <point x="335" y="313"/>
      <point x="414" y="436"/>
      <point x="512" y="436" type="curve" smooth="yes"/>
      <point x="551" y="436"/>
      <point x="569" y="414"/>
      <point x="569" y="385" type="curve" smooth="yes"/>
      <point x="569" y="320"/>
      <point x="483" y="250"/>
    </contour>
  </outline>
</glyph>
<glyph name="Tcedilla" format="2">
  <advance width="450"/>
  <unicode hex="0162"/>
  <anchor x="198" y="0" name="bottom"/>
  <anchor x="242" y="319" name="center"/>
  <anchor x="276" y="637" name="top"/>
  <outline>
    <contour>
      <point x="286" y="627" type="line"/>
      <point x="266" y="627" type="line"/>
      <point x="211" y="195" type="line"/>
      <point x="187" y="0" type="line"/>
      <point x="207" y="0" type="line"/>
      <point x="231" y="195" type="line"/>
    </contour>
    <contour>
      <point x="471" y="637" type="line"/>
      <point x="83" y="637" type="line"/>
      <point x="77" y="621" type="line"/>
      <point x="80" y="617" type="line"/>
      <point x="178" y="617" type="line"/>
      <point x="373" y="617" type="line"/>
      <point x="468" y="617" type="line"/>
      <point x="474" y="633" type="line"/>
    </contour>
    <contour>
      <point x="207" y="0" type="line"/>
      <point x="187" y="0" type="line"/>
      <point x="165" y="-64" type="line"/>
      <point x="208" y="-92" type="line" smooth="yes"/>
      <point x="223" y="-102"/>
      <point x="232" y="-109"/>
      <point x="232" y="-125" type="curve" smooth="yes"/>
      <point x="232" y="-146"/>
      <point x="216" y="-158"/>
      <point x="192" y="-158" type="curve" smooth="yes"/>
      <point x="167" y="-158"/>
      <point x="155" y="-145"/>
      <point x="143" y="-127" type="curve"/>
      <point x="139" y="-127" type="line"/>
      <point x="133" y="-145" type="line"/>
      <point x="143" y="-160"/>
      <point x="162" y="-178"/>
      <point x="192" y="-178" type="curve" smooth="yes"/>
      <point x="224" y="-178"/>
      <point x="252" y="-158"/>
      <point x="252" y="-125" type="curve" smooth="yes"/>
      <point x="252" y="-103"/>
      <point x="241" y="-89"/>
      <point x="219" y="-75" type="curve" smooth="yes"/>
      <point x="188" y="-55" type="line"/>
    </contour>
  </outline>
</glyph>
<glyph name="Tbar" format="2">
  <advance width="450"/>
  <unicode hex="0166"/>
  <anchor x="198" y="0" name="bottom"/>
  <anchor x="242" y="319" name="center"/>
  <anchor x="276" y="637" name="top"/>
  <outline>
    <contour>
      <point x="344" y="350" type="line"/>
      <point x="134" y="350" type="line"/>
      <point x="132" y="333" type="line"/>
      <point x="135" y="330" type="line"/>
      <point x="345" y="330" type="line"/>
      <point x="347" y="347" type="line"/>
    </contour>
    <contour>
      <point x="286" y="627" type="line"/>
      <point x="266" y="627" type="line"/>
      <point x="211" y="195" type="line"/>
      <point x="187" y="0" type="line"/>
      <point x="207" y="0" type="line"/>
      <point x="231" y="195" type="line"/>
    </contour>
    <contour>
      <point x="471" y="637" type="line"/>
      <point x="83" y="637" type="line"/>
      <point x="77" y="621" type="line"/>
      <point x="80" y="617" type="line"/>
      <point x="178" y="617" type="line"/>
      <point x="373" y="617" type="line"/>
      <point x="468" y="617" type="line"/>
      <point x="474" y="633" type="line"/>
    </contour>
  </outline>
</glyph>
<glyph name="tbar" format="2">
  <advance width="323"/>
  <unicode hex="0167"/>
  <outline>
    <contour>
      <point x="153" y="-5" type="curve"/>
      <point x="194" y="4"/>
      <point x="220" y="31"/>
      <point x="268" y="108" type="curve"/>
      <point x="259" y="120" type="line"/>
      <point x="252" y="120" type="line"/>
      <point x="216" y="54"/>
      <point x="177" y="15"/>
      <point x="149" y="15" type="curve" smooth="yes"/>
      <point x="124" y="15"/>
      <point x="109" y="34"/>
      <point x="109" y="67" type="curve"/>
      <point x="111" y="87" type="line"/>
      <point x="195" y="587" type="line"/>
      <point x="192" y="590" type="line"/>
      <point x="170" y="580" type="line"/>
      <point x="138" y="362" type="line"/>
      <point x="91" y="86" type="line"/>
      <point x="89" y="64" type="line"/>
      <point x="89" y="19"/>
      <point x="111" y="-5"/>
    </contour>
    <contour>
      <point x="46" y="264" type="line"/>
      <point x="261" y="264" type="line"/>
      <point x="265" y="281" type="line"/>
      <point x="262" y="284" type="line"/>
      <point x="47" y="284" type="line"/>
      <point x="43" y="267" type="line"/>
    </contour>
    <contour>
      <point x="77" y="429" type="line"/>
      <point x="316" y="429" type="line"/>
      <point x="319" y="445" type="line"/>
      <point x="316" y="449" type="line"/>
      <point x="76" y="449" type="line"/>
      <point x="73" y="433" type="line"/>
    </contour>
  </outline>
</glyph>
<glyph name="Schwa" format="2">
  <advance width="591"/>
  <unicode hex="018F"/>
  <outline>
    <contour>
      <point x="332" y="641" type="curve" smooth="yes"/>
      <point x="262" y="641"/>
      <point x="188" y="620"/>
      <point x="126" y="583" type="curve"/>
      <point x="121" y="564" type="line"/>
      <point x="128" y="562" type="line"/>
      <point x="180" y="598"/>
      <point x="257" y="621"/>
      <point x="328" y="621" type="curve" smooth="yes"/>
      <point x="464" y="621"/>
      <point x="539" y="532"/>
      <point x="539" y="377" type="curve" smooth="yes"/>
      <point x="539" y="161"/>
      <point x="423" y="16"/>
      <point x="256" y="16" type="curve" smooth="yes"/>
      <point x="127" y="16"/>
      <point x="50" y="99"/>
      <point x="65" y="220" type="curve"/>
      <point x="70" y="252" type="line"/>
      <point x="531" y="257" type="line"/>
      <point x="534" y="278" type="line"/>
      <point x="62" y="272" type="line"/>
      <point x="54" y="263" type="line"/>
      <point x="48" y="241"/>
      <point x="44" y="219"/>
      <point x="44" y="194" type="curve" smooth="yes"/>
      <point x="44" y="75"/>
      <point x="125" y="-5"/>
      <point x="254" y="-5" type="curve" smooth="yes"/>
      <point x="434" y="-5"/>
      <point x="559" y="150"/>
      <point x="559" y="379" type="curve" smooth="yes"/>
      <point x="559" y="545"/>
      <point x="478" y="641"/>
    </contour>
  </outline>
</glyph>
<glyph name="ohorn" format="2">
  <advance width="438"/>
  <unicode hex="01A1"/>
  <anchor x="174" y="0" name="bottom"/>
  <anchor x="243" y="452" name="top"/>
  <outline>
    <contour>
      <point x="411" y="576" type="curve" smooth="yes"/>
      <point x="408" y="576"/>
      <point x="405" y="575"/>
      <point x="399" y="571" type="curve"/>
      <point x="397" y="566" type="line"/>
      <point x="418" y="543"/>
      <point x="430" y="518"/>
      <point x="430" y="495" type="curve" smooth="yes"/>
      <point x="430" y="459"/>
      <point x="399" y="432"/>
      <point x="358" y="432" type="curve" smooth="yes"/>
      <point x="316" y="432"/>
      <point x="311" y="454"/>
      <point x="255" y="458" type="curve"/>
      <point x="326" y="415" type="line"/>
      <point x="393" y="399"/>
      <point x="449" y="437"/>
      <point x="449" y="500" type="curve" smooth="yes"/>
      <point x="449" y="534"/>
      <point x="428" y="576"/>
    </contour>
    <contour>
      <point x="250" y="458" type="line"/>
      <point x="133" y="456"/>
      <point x="49" y="323"/>
      <point x="49" y="140" type="curve" smooth="yes"/>
      <point x="49" y="41"/>
      <point x="77" y="-1"/>
      <point x="146" y="-6" type="curve"/>
      <point x="151" y="-6" type="line"/>
      <point x="269" y="1"/>
      <point x="351" y="132"/>
      <point x="351" y="314" type="curve" smooth="yes"/>
      <point x="351" y="364"/>
      <point x="345" y="392"/>
      <point x="329" y="418" type="curve"/>
      <point x="255" y="458" type="line"/>
    </contour>
    <contour>
      <point x="250" y="437" type="curve" smooth="yes"/>
      <point x="307" y="437"/>
      <point x="330" y="401"/>
      <point x="330" y="310" type="curve" smooth="yes"/>
      <point x="330" y="141"/>
      <point x="253" y="15"/>
      <point x="150" y="15" type="curve" smooth="yes"/>
      <point x="93" y="15"/>
      <point x="69" y="53"/>
      <point x="69" y="144" type="curve" smooth="yes"/>
      <point x="69" y="311"/>
      <point x="147" y="437"/>
    </contour>
  </outline>
</glyph>
<glyph name="Uhorn" format="2">
  <advance width="617"/>
  <unicode hex="01AF"/>
  <anchor x="269" y="0" name="bottom"/>
  <anchor x="339" y="637" name="top"/>
  <outline>
    <contour>
      <point x="590" y="761" type="curve" smooth="yes"/>
      <point x="588" y="761"/>
      <point x="583" y="760"/>
      <point x="578" y="756" type="curve"/>
      <point x="576" y="751" type="line"/>
      <point x="599" y="726"/>
      <point x="607" y="708"/>
      <point x="607" y="690" type="curve" smooth="yes"/>
      <point x="607" y="658"/>
      <point x="582" y="637"/>
      <point x="542" y="637" type="curve"/>
      <point x="541" y="617" type="line"/>
      <point x="593" y="617"/>
      <point x="627" y="646"/>
      <point x="627" y="690" type="curve" smooth="yes"/>
      <point x="627" y="730"/>
      <point x="601" y="761"/>
    </contour>
    <contour>
      <point x="551" y="637" type="line"/>
      <point x="531" y="637" type="line"/>
      <point x="480" y="229" type="line" smooth="yes"/>
      <point x="462" y="92"/>
      <point x="386" y="16"/>
      <point x="265" y="16" type="curve" smooth="yes"/>
      <point x="159" y="16"/>
      <point x="101" y="74"/>
      <point x="101" y="180" type="curve" smooth="yes"/>
      <point x="101" y="196"/>
      <point x="103" y="212"/>
      <point x="105" y="229" type="curve" smooth="yes"/>
      <point x="158" y="637" type="line"/>
      <point x="138" y="637" type="line"/>
      <point x="98" y="322" type="line"/>
      <point x="85" y="229" type="line" smooth="yes"/>
      <point x="82" y="211"/>
      <point x="81" y="192"/>
      <point x="81" y="176" type="curve" smooth="yes"/>
      <point x="81" y="60"/>
      <point x="148" y="-4"/>
      <point x="266" y="-4" type="curve" smooth="yes"/>
      <point x="400" y="-4"/>
      <point x="485" y="82"/>
      <point x="500" y="229" type="curve"/>
      <point x="510" y="312" type="line"/>
    </contour>
  </outline>
</glyph>
<glyph name="gstroke" format="2">
  <advance width="484"/>
  <unicode hex="01E5"/>
  <anchor x="262" y="442" name="top"/>
  <outline>
    <contour>
      <point x="410" y="459" type="line"/>
      <point x="391" y="448" type="line"/>
      <point x="385" y="370" type="line"/>
      <point x="341" y="31" type="line" smooth="yes"/>
      <point x="322" y="-108"/>
      <point x="247" y="-177"/>
      <point x="145" y="-177" type="curve" smooth="yes"/>
      <point x="66" y="-177"/>
      <point x="33" y="-121"/>
      <point x="30" y="-96" type="curve"/>
      <point x="30" y="-91"/>
      <point x="31" y="-90"/>
      <point x="36" y="-86" type="curve" smooth="yes"/>
      <point x="180" y="31" type="line"/>
      <point x="157" y="47" type="line"/>
      <point x="157" y="37" type="line"/>
      <point x="7" y="-85" type="line"/>
      <point x="5" y="-92" type="line"/>
      <point x="23" y="-156"/>
      <point x="69" y="-197"/>
      <point x="145" y="-197" type="curve" smooth="yes"/>
      <point x="259" y="-197"/>
      <point x="342" y="-124"/>
      <point x="362" y="35" type="curve" smooth="yes"/>
      <point x="374" y="133" type="line"/>
      <point x="415" y="456" type="line"/>
    </contour>
    <contour>
      <point x="340" y="455" type="line"/>
      <point x="336" y="455" type="line"/>
      <point x="199" y="447"/>
      <point x="122" y="315"/>
      <point x="122" y="158" type="curve" smooth="yes"/>
      <point x="122" y="88"/>
      <point x="138" y="55"/>
      <point x="169" y="31" type="curve"/>
      <point x="180" y="31" type="line"/>
      <point x="246" y="91"/>
      <point x="304" y="182"/>
      <point x="370" y="286" type="curve"/>
      <point x="375" y="286" type="line"/>
      <point x="392" y="363" type="line"/>
      <point x="287" y="170"/>
      <point x="190" y="57"/>
      <point x="177" y="57" type="curve" smooth="yes"/>
      <point x="167" y="57"/>
      <point x="141" y="82"/>
      <point x="141" y="162" type="curve" smooth="yes"/>
      <point x="141" y="304"/>
      <point x="215" y="436"/>
      <point x="337" y="436" type="curve"/>
      <point x="404" y="434" type="line"/>
      <point x="407" y="452" type="line"/>
    </contour>
    <contour>
      <point x="-28" y="-50" type="line"/>
      <point x="414" y="-50" type="line"/>
      <point x="417" y="-33" type="line"/>
      <point x="415" y="-30" type="line"/>
      <point x="-27" y="-30" type="line"/>
      <point x="-31" y="-47" type="line"/>
    </contour>
  </outline>
</glyph>
<glyph name="jdotless" format="2">
  <advance width="212"/>
  <unicode hex="0237"/>
  <anchor x="121" y="452" name="top"/>
  <outline>
    <contour>
      <point x="148" y="452" type="line"/>
      <point x="129" y="449" type="line"/>
      <point x="42" y="449" type="line"/>
      <point x="38" y="433" type="line"/>
      <point x="42" y="429" type="line"/>
      <point x="125" y="429" type="line"/>
      <point x="120" y="366" type="line"/>
      <point x="71" y="8" type="line"/>
      <point x="59" y="-83"/>
      <point x="34" y="-125"/>
      <point x="-39" y="-175" type="curve"/>
      <point x="-40" y="-181" type="line"/>
      <point x="-29" y="-192" type="line"/>
      <point x="50" y="-138"/>
      <point x="80" y="-90"/>
      <point x="94" y="18" type="curve"/>
      <point x="105" y="93" type="line"/>
      <point x="150" y="451" type="line"/>
    </contour>
  </outline>
</glyph>
<glyph name="primemod" format="2">
  <advance width="124"/>
  <unicode hex="02B9"/>
  <outline>
    <contour>
      <point x="126" y="635" type="line"/>
      <point x="108" y="633" type="line"/>
      <point x="79" y="489" type="line"/>
      <point x="81" y="485" type="line"/>
      <point x="98" y="487" type="line"/>
      <point x="128" y="631" type="line"/>
    </contour>
  </outline>
</glyph>
<glyph name="commaturnedmod" format="2">
  <advance width="123"/>
  <unicode hex="02BB"/>
  <outline>
    <contour>
      <point x="120" y="479" type="curve"/>
      <point x="125" y="486"/>
      <point x="129" y="491"/>
      <point x="130" y="495" type="curve"/>
      <point x="130" y="499" type="line"/>
      <point x="104" y="505"/>
      <point x="92" y="519"/>
      <point x="92" y="538" type="curve" smooth="yes"/>
      <point x="92" y="561"/>
      <point x="106" y="589"/>
      <point x="136" y="621" type="curve"/>
      <point x="136" y="625" type="line"/>
      <point x="123" y="636" type="line"/>
      <point x="87" y="598"/>
      <point x="70" y="563"/>
      <point x="70" y="534" type="curve" smooth="yes"/>
      <point x="70" y="506"/>
      <point x="86" y="487"/>
    </contour>
  </outline>
</glyph>
<glyph name="apostrophemod" format="2">
  <advance width="123"/>
  <unicode hex="02BC"/>
  <outline>
    <contour>
      <point x="88" y="634" type="curve"/>
      <point x="83" y="627"/>
      <point x="79" y="622"/>
      <point x="78" y="618" type="curve"/>
      <point x="78" y="614" type="line"/>
      <point x="104" y="608"/>
      <point x="116" y="594"/>
      <point x="116" y="575" type="curve" smooth="yes"/>
      <point x="116" y="552"/>
      <point x="102" y="524"/>
      <point x="72" y="492" type="curve"/>
      <point x="72" y="488" type="line"/>
      <point x="85" y="477" type="line"/>
      <point x="121" y="515"/>
      <point x="138" y="550"/>
      <point x="138" y="579" type="curve" smooth="yes"/>
      <point x="138" y="607"/>
      <point x="122" y="626"/>
    </contour>
  </outline>
</glyph>
<glyph name="verticallinemod" format="2">
  <advance width="266"/>
  <unicode hex="02C8"/>
  <outline>
    <contour>
      <point x="132" y="464" type="line"/>
      <point x="152" y="464" type="line"/>
      <point x="172" y="633" type="line"/>
      <point x="152" y="633" type="line"/>
    </contour>
  </outline>
</glyph>
<glyph name="verticallinelowmod" format="2">
  <advance width="225"/>
  <unicode hex="02CC"/>
  <outline>
    <contour>
      <point x="47" y="-230" type="line"/>
      <point x="67" y="-230" type="line"/>
      <point x="87" y="-61" type="line"/>
      <point x="67" y="-61" type="line"/>
    </contour>
  </outline>
</glyph>
<glyph name="tilde" format="2">
  <advance width="385"/>
  <unicode hex="02DC"/>
  <anchor x="220" y="452" name="_top"/>
  <outline>
    <contour>
      <point x="368" y="631" type="line"/>
      <point x="364" y="631" type="line"/>
      <point x="337" y="607"/>
      <point x="324" y="590"/>
      <point x="313" y="590" type="curve"/>
      <point x="288" y="590"/>
      <point x="194" y="624"/>
      <point x="157" y="628" type="curve"/>
      <point x="151" y="626" type="line"/>
      <point x="99" y="579" type="line"/>
      <point x="99" y="575" type="line"/>
      <point x="108" y="564" type="line"/>
      <point x="112" y="564" type="line"/>
      <point x="139" y="588"/>
      <point x="152" y="605"/>
      <point x="163" y="605" type="curve"/>
      <point x="188" y="605"/>
      <point x="282" y="571"/>
      <point x="319" y="567" type="curve"/>
      <point x="325" y="569" type="line"/>
      <point x="377" y="616" type="line"/>
      <point x="377" y="620" type="line"/>
    </contour>
  </outline>
</glyph>
<glyph name="tildecomb" format="2">
  <unicode hex="0303"/>
  <anchor x="220" y="452" name="_top"/>
  <anchor x="242" y="631" name="top"/>
  <outline>
    <contour>
      <point x="368" y="631" type="line"/>
      <point x="364" y="631" type="line"/>
      <point x="337" y="607"/>
      <point x="324" y="590"/>
      <point x="313" y="590" type="curve"/>
      <point x="288" y="590"/>
      <point x="195" y="625"/>
      <point x="158" y="629" type="curve"/>
      <point x="152" y="627" type="line"/>
      <point x="99" y="579" type="line"/>
      <point x="99" y="575" type="line"/>
      <point x="108" y="564" type="line"/>
      <point x="112" y="564" type="line"/>
      <point x="139" y="588"/>
      <point x="152" y="605"/>
      <point x="163" y="605" type="curve"/>
      <point x="188" y="605"/>
      <point x="281" y="570"/>
      <point x="318" y="566" type="curve"/>
      <point x="324" y="568" type="line"/>
      <point x="377" y="616" type="line"/>
      <point x="377" y="620" type="line"/>
    </contour>
  </outline>
</glyph>
<glyph name="macroncomb" format="2">
  <unicode hex="0304"/>
  <anchor x="221" y="452" name="_top"/>
  <anchor x="241" y="607" name="top"/>
  <outline>
    <contour>
      <point x="383" y="607" type="line"/>
      <point x="96" y="607" type="line"/>
      <point x="94" y="590" type="line"/>
      <point x="97" y="587" type="line"/>
      <point x="384" y="587" type="line"/>
      <point x="386" y="604" type="line"/>
    </contour>
  </outline>
</glyph>
<glyph name="dieresiscomb" format="2">
  <unicode hex="0308"/>
  <anchor x="227" y="452" name="_top"/>
  <anchor x="239" y="561" name="top"/>
  <outline>
    <contour>
      <point x="170" y="616" type="curve" smooth="yes"/>
      <point x="158" y="616"/>
      <point x="150" y="608"/>
      <point x="150" y="596" type="curve" smooth="yes"/>
      <point x="150" y="584"/>
      <point x="158" y="576"/>
      <point x="170" y="576" type="curve" smooth="yes"/>
      <point x="182" y="576"/>
      <point x="190" y="584"/>
      <point x="190" y="596" type="curve" smooth="yes"/>
      <point x="190" y="608"/>
      <point x="182" y="616"/>
    </contour>
    <contour>
      <point x="320" y="616" type="curve" smooth="yes"/>
      <point x="308" y="616"/>
      <point x="300" y="608"/>
      <point x="300" y="596" type="curve" smooth="yes"/>
      <point x="300" y="584"/>
      <point x="308" y="576"/>
      <point x="320" y="576" type="curve" smooth="yes"/>
      <point x="332" y="576"/>
      <point x="340" y="584"/>
      <point x="340" y="596" type="curve" smooth="yes"/>
      <point x="340" y="608"/>
      <point x="332" y="616"/>
    </contour>
  </outline>
</glyph>
<glyph name="hungarumlautcomb" format="2">
  <unicode hex="030B"/>
  <anchor x="169" y="452" name="_top"/>
  <anchor x="225" y="667" name="top"/>
  <outline>
    <contour>
      <point x="210" y="530" type="curve"/>
      <point x="221" y="517" type="line"/>
      <point x="226" y="516" type="line"/>
      <point x="275" y="560"/>
      <point x="323" y="605"/>
      <point x="370" y="651" type="curve"/>
      <point x="371" y="656" type="line"/>
      <point x="361" y="666" type="line"/>
      <point x="356" y="667" type="line"/>
      <point x="309" y="620"/>
      <point x="261" y="575"/>
    </contour>
    <contour>
      <point x="80" y="530" type="curve"/>
      <point x="91" y="517" type="line"/>
      <point x="96" y="516" type="line"/>
      <point x="145" y="560"/>
      <point x="193" y="605"/>
      <point x="240" y="651" type="curve"/>
      <point x="241" y="656" type="line"/>
      <point x="231" y="666" type="line"/>
      <point x="226" y="667" type="line"/>
      <point x="179" y="620"/>
      <point x="131" y="575"/>
    </contour>
  </outline>
</glyph>
<glyph name="cedillacomb" format="2">
  <unicode hex="0327"/>
  <anchor x="153" y="0" name="_bottom"/>
  <anchor x="136" y="-178" name="bottom"/>
  <outline>
    <contour>
      <point x="164" y="11" type="line"/>
      <point x="144" y="11" type="line"/>
      <point x="120" y="-64" type="line"/>
      <point x="163" y="-92" type="line" smooth="yes"/>
      <point x="178" y="-102"/>
      <point x="187" y="-109"/>
      <point x="187" y="-125" type="curve" smooth="yes"/>
      <point x="187" y="-146"/>
      <point x="171" y="-158"/>
      <point x="147" y="-158" type="curve" smooth="yes"/>
      <point x="122" y="-158"/>
      <point x="110" y="-145"/>
      <point x="98" y="-127" type="curve"/>
      <point x="94" y="-127" type="line"/>
      <point x="88" y="-145" type="line"/>
      <point x="98" y="-160"/>
      <point x="117" y="-178"/>
      <point x="147" y="-178" type="curve" smooth="yes"/>
      <point x="179" y="-178"/>
      <point x="207" y="-158"/>
      <point x="207" y="-125" type="curve" smooth="yes"/>
      <point x="207" y="-103"/>
      <point x="196" y="-89"/>
      <point x="174" y="-75" type="curve" smooth="yes"/>
      <point x="143" y="-55" type="line"/>
    </contour>
  </outline>
</glyph>
<glyph name="ogonekcomb" format="2">
  <unicode hex="0328"/>
  <anchor x="137" y="21" name="_ogonek"/>
  <outline>
    <contour>
      <point x="85" y="-197" type="curve" smooth="yes"/>
      <point x="121" y="-197"/>
      <point x="153" y="-175"/>
      <point x="180" y="-140" type="curve"/>
      <point x="169" y="-124" type="line"/>
      <point x="167" y="-124" type="line"/>
      <point x="143" y="-157"/>
      <point x="114" y="-176"/>
      <point x="86" y="-176" type="curve" smooth="yes"/>
      <point x="58" y="-176"/>
      <point x="42" y="-158"/>
      <point x="42" y="-130" type="curve" smooth="yes"/>
      <point x="42" y="-101"/>
      <point x="59" y="-83"/>
      <point x="137" y="21" type="curve"/>
      <point x="113" y="21" type="line"/>
      <point x="39" y="-80"/>
      <point x="21" y="-98"/>
      <point x="21" y="-132" type="curve" smooth="yes"/>
      <point x="21" y="-172"/>
      <point x="47" y="-197"/>
    </contour>
  </outline>
</glyph>
<glyph name="macronbelowcomb" format="2">
  <unicode hex="0331"/>
  <anchor x="127" y="0" name="_bottom"/>
  <anchor x="109" y="-147" name="bottom"/>
  <outline>
    <contour>
      <point x="213" y="-127" type="line"/>
      <point x="6" y="-127" type="line"/>
      <point x="4" y="-144" type="line"/>
      <point x="7" y="-147" type="line"/>
      <point x="214" y="-147" type="line"/>
      <point x="216" y="-130" type="line"/>
    </contour>
  </outline>
</glyph>
<glyph name="ypogegrammenicomb" format="2">
  <unicode hex="0345"/>
  <anchor x="62" y="0" name="_bottom"/>
  <anchor x="36" y="-212" name="bottom"/>
  <outline>
    <contour>
      <point x="28" y="-212" type="line"/>
      <point x="47" y="-209" type="line"/>
      <point x="64" y="-40" type="line"/>
      <point x="62" y="-37" type="line"/>
      <point x="48" y="-38" type="line"/>
      <point x="25" y="-209" type="line"/>
    </contour>
  </outline>
</glyph>
<glyph name="Delta" format="2">
  <advance width="541"/>
  <unicode hex="0394"/>
  <outline>
    <contour>
      <point x="12" y="0" type="line"/>
      <point x="472" y="0" type="line"/>
      <point x="474" y="17" type="line"/>
      <point x="340" y="637" type="line"/>
      <point x="319" y="637" type="line"/>
      <point x="14" y="17" type="line"/>
    </contour>
    <contour>
      <point x="35" y="20" type="line"/>
      <point x="322" y="603" type="line"/>
      <point x="327" y="603" type="line"/>
      <point x="452" y="20" type="line"/>
    </contour>
  </outline>
</glyph>
<glyph name="Sigma" format="2">
  <advance width="473"/>
  <unicode hex="03A3"/>
  <outline>
    <contour>
      <point x="24" y="0" type="line"/>
      <point x="87" y="0" type="line"/>
      <point x="325" y="0" type="line"/>
      <point x="396" y="0" type="line"/>
      <point x="401" y="16" type="line"/>
      <point x="398" y="21" type="line"/>
      <point x="332" y="20" type="line"/>
      <point x="52" y="20" type="line"/>
      <point x="289" y="325" type="line"/>
      <point x="290" y="332" type="line"/>
      <point x="134" y="617" type="line"/>
      <point x="420" y="617" type="line"/>
      <point x="479" y="616" type="line"/>
      <point x="484" y="633" type="line"/>
      <point x="480" y="638" type="line"/>
      <point x="422" y="637" type="line"/>
      <point x="179" y="637" type="line"/>
      <point x="111" y="637" type="line"/>
      <point x="108" y="619" type="line"/>
      <point x="267" y="328" type="line"/>
      <point x="26" y="18" type="line"/>
    </contour>
  </outline>
</glyph>
<glyph name="Phi" format="2">
  <advance width="709"/>
  <unicode hex="03A6"/>
  <outline>
    <contour>
      <point x="331" y="79" type="curve" smooth="yes"/>
      <point x="544" y="79"/>
      <point x="670" y="184"/>
      <point x="670" y="374" type="curve" smooth="yes"/>
      <point x="670" y="514"/>
      <point x="578" y="583"/>
      <point x="404" y="583" type="curve" smooth="yes"/>
      <point x="187" y="583"/>
      <point x="66" y="484"/>
      <point x="66" y="295" type="curve" smooth="yes"/>
      <point x="66" y="152"/>
      <point x="160" y="79"/>
    </contour>
    <contour>
      <point x="333" y="99" type="curve" smooth="yes"/>
      <point x="174" y="99"/>
      <point x="86" y="166"/>
      <point x="86" y="297" type="curve" smooth="yes"/>
      <point x="86" y="472"/>
      <point x="199" y="563"/>
      <point x="401" y="563" type="curve" smooth="yes"/>
      <point x="564" y="563"/>
      <point x="649" y="500"/>
      <point x="649" y="371" type="curve" smooth="yes"/>
      <point x="649" y="195"/>
      <point x="531" y="99"/>
    </contour>
    <contour>
      <point x="316" y="-9" type="line"/>
      <point x="336" y="-9" type="line"/>
      <point x="362" y="198" type="line"/>
      <point x="417" y="652" type="line"/>
      <point x="397" y="652" type="line"/>
      <point x="342" y="198" type="line"/>
    </contour>
  </outline>
</glyph>
<glyph name="Omega" format="2">
  <advance width="667"/>
  <unicode hex="03A9"/>
  <anchor x="350" y="0" name="bottom"/>
  <anchor x="428" y="637" name="top"/>
  <anchor x="94" y="637" name="topleft"/>
  <outline>
    <contour>
      <point x="51" y="-1" type="line"/>
      <point x="105" y="0" type="line"/>
      <point x="205" y="0" type="line"/>
      <point x="244" y="-1" type="line"/>
      <point x="246" y="1" type="line"/>
      <point x="248" y="20" type="line"/>
      <point x="153" y="97"/>
      <point x="113" y="179"/>
      <point x="113" y="295" type="curve" smooth="yes"/>
      <point x="113" y="489"/>
      <point x="224" y="622"/>
      <point x="385" y="622" type="curve" smooth="yes"/>
      <point x="513" y="622"/>
      <point x="582" y="537"/>
      <point x="582" y="380" type="curve" smooth="yes"/>
      <point x="582" y="229"/>
      <point x="514" y="113"/>
      <point x="370" y="20" type="curve"/>
      <point x="368" y="1" type="line"/>
      <point x="370" y="-1" type="line"/>
      <point x="408" y="0" type="line"/>
      <point x="503" y="0" type="line"/>
      <point x="561" y="0" type="line"/>
      <point x="567" y="18" type="line"/>
      <point x="564" y="22" type="line"/>
      <point x="510" y="20" type="line"/>
      <point x="405" y="20" type="line"/>
      <point x="405" y="23" type="line"/>
      <point x="536" y="109"/>
      <point x="601" y="229"/>
      <point x="601" y="383" type="curve" smooth="yes"/>
      <point x="601" y="553"/>
      <point x="527" y="642"/>
      <point x="387" y="642" type="curve" smooth="yes"/>
      <point x="210" y="642"/>
      <point x="93" y="502"/>
      <point x="93" y="290" type="curve" smooth="yes"/>
      <point x="93" y="170"/>
      <point x="129" y="89"/>
      <point x="212" y="23" type="curve"/>
      <point x="212" y="20" type="line"/>
      <point x="112" y="20" type="line"/>
      <point x="54" y="21" type="line"/>
      <point x="48" y="3" type="line"/>
    </contour>
  </outline>
</glyph>
<glyph name="alpha" format="2">
  <advance width="414"/>
  <unicode hex="03B1"/>
  <anchor x="208" y="0" name="bottom"/>
  <anchor x="273" y="452" name="top"/>
  <outline>
    <contour>
      <point x="95" y="-4" type="curve"/>
      <point x="106" y="-4" type="line"/>
      <point x="176" y="59"/>
      <point x="248" y="157"/>
      <point x="308" y="271" type="curve"/>
      <point x="313" y="271" type="line"/>
      <point x="331" y="355" type="line"/>
      <point x="272" y="222"/>
      <point x="134" y="24"/>
      <point x="101" y="24" type="curve" smooth="yes"/>
      <point x="80" y="24"/>
      <point x="63" y="77"/>
      <point x="63" y="141" type="curve" smooth="yes"/>
      <point x="63" y="308"/>
      <point x="152" y="434"/>
      <point x="272" y="437" type="curve"/>
      <point x="338" y="398" type="line"/>
      <point x="340" y="417" type="line"/>
      <point x="276" y="457" type="line"/>
      <point x="272" y="457" type="line"/>
      <point x="135" y="448"/>
      <point x="43" y="321"/>
      <point x="43" y="137" type="curve" smooth="yes"/>
      <point x="43" y="62"/>
      <point x="57" y="24"/>
    </contour>
    <contour>
      <point x="178" y="167" type="move"/>
    </contour>
    <contour>
      <point x="276" y="-4" type="line"/>
      <point x="303" y="0" type="line"/>
      <point x="310" y="106" type="line"/>
      <point x="356" y="456" type="line"/>
      <point x="337" y="453" type="line"/>
    </contour>
  </outline>
</glyph>
<glyph name="beta" format="2">
  <advance width="436"/>
  <unicode hex="03B2"/>
  <outline>
    <contour>
      <point x="40" y="-189" type="line"/>
      <point x="65" y="-185" type="line"/>
      <point x="74" y="-79" type="line"/>
      <point x="145" y="471" type="line" smooth="yes"/>
      <point x="164" y="614"/>
      <point x="214" y="684"/>
      <point x="302" y="684" type="curve" smooth="yes"/>
      <point x="359" y="684"/>
      <point x="389" y="653"/>
      <point x="389" y="595" type="curve" smooth="yes"/>
      <point x="389" y="504"/>
      <point x="314" y="419"/>
      <point x="194" y="374" type="curve"/>
      <point x="192" y="357" type="line"/>
      <point x="194" y="354" type="line"/>
      <point x="309" y="354"/>
      <point x="366" y="305"/>
      <point x="366" y="207" type="curve" smooth="yes"/>
      <point x="366" y="98"/>
      <point x="301" y="17"/>
      <point x="212" y="17" type="curve" smooth="yes"/>
      <point x="163" y="17"/>
      <point x="121" y="42"/>
      <point x="90" y="93" type="curve"/>
      <point x="87" y="63" type="line"/>
      <point x="117" y="19"/>
      <point x="158" y="-3"/>
      <point x="211" y="-3" type="curve" smooth="yes"/>
      <point x="313" y="-3"/>
      <point x="386" y="84"/>
      <point x="386" y="207" type="curve" smooth="yes"/>
      <point x="386" y="314"/>
      <point x="329" y="366"/>
      <point x="214" y="371" type="curve"/>
      <point x="214" y="361" type="line"/>
      <point x="337" y="415"/>
      <point x="409" y="502"/>
      <point x="409" y="598" type="curve" smooth="yes"/>
      <point x="409" y="666"/>
      <point x="371" y="704"/>
      <point x="302" y="704" type="curve" smooth="yes"/>
      <point x="204" y="704"/>
      <point x="147" y="628"/>
      <point x="126" y="469" type="curve" smooth="yes"/>
    </contour>
  </outline>
</glyph>
<glyph name="zeta" format="2">
  <advance width="330"/>
  <unicode hex="03B6"/>
  <outline>
    <contour>
      <point x="51" y="112" type="curve" smooth="yes"/>
      <point x="51" y="227"/>
      <point x="151" y="389"/>
      <point x="402" y="683" type="curve"/>
      <point x="406" y="701" type="line"/>
      <point x="368" y="700" type="line"/>
      <point x="202" y="700" type="line"/>
      <point x="136" y="701" type="line"/>
      <point x="130" y="684" type="line"/>
      <point x="133" y="679" type="line"/>
      <point x="193" y="680" type="line"/>
      <point x="374" y="680" type="line"/>
      <point x="136" y="404"/>
      <point x="31" y="231"/>
      <point x="31" y="112" type="curve" smooth="yes"/>
      <point x="31" y="35"/>
      <point x="62" y="-3"/>
      <point x="120" y="-3" type="curve" smooth="yes"/>
      <point x="148" y="-3"/>
      <point x="215" y="8"/>
      <point x="241" y="8" type="curve" smooth="yes"/>
      <point x="261" y="8"/>
      <point x="270" y="-1"/>
      <point x="270" y="-22" type="curve" smooth="yes"/>
      <point x="270" y="-59"/>
      <point x="219" y="-112"/>
      <point x="140" y="-157" type="curve"/>
      <point x="139" y="-161" type="line"/>
      <point x="148" y="-175" type="line"/>
      <point x="237" y="-123"/>
      <point x="290" y="-66"/>
      <point x="290" y="-21" type="curve" smooth="yes"/>
      <point x="290" y="12"/>
      <point x="274" y="28"/>
      <point x="241" y="28" type="curve" smooth="yes"/>
      <point x="214" y="28"/>
      <point x="147" y="17"/>
      <point x="123" y="17" type="curve" smooth="yes"/>
      <point x="76" y="17"/>
      <point x="51" y="47"/>
    </contour>
  </outline>
</glyph>
<glyph name="kappa" format="2">
  <advance width="381"/>
  <unicode hex="03BA"/>
  <outline>
    <contour>
      <point x="315" y="-7" type="line"/>
      <point x="323" y="-5"/>
      <point x="327" y="-3"/>
      <point x="333" y="1" type="curve"/>
      <point x="334" y="5" type="line"/>
      <point x="272" y="75"/>
      <point x="183" y="174"/>
      <point x="128" y="246" type="curve"/>
      <point x="127" y="232" type="line"/>
      <point x="377" y="452" type="line"/>
      <point x="344" y="452" type="line"/>
      <point x="310" y="418" type="line"/>
      <point x="107" y="241" type="line"/>
      <point x="106" y="236" type="line"/>
      <point x="312" y="-6" type="line"/>
    </contour>
    <contour>
      <point x="57" y="-4" type="line"/>
      <point x="84" y="0" type="line"/>
      <point x="91" y="106" type="line"/>
      <point x="137" y="456" type="line"/>
      <point x="112" y="452" type="line"/>
      <point x="106" y="362" type="line"/>
    </contour>
  </outline>
</glyph>
<glyph name="xi" format="2">
  <advance width="348"/>
  <unicode hex="03BE"/>
  <outline>
    <contour>
      <point x="151" y="-175" type="line"/>
      <point x="244" y="-120"/>
      <point x="293" y="-66"/>
      <point x="293" y="-17" type="curve" smooth="yes"/>
      <point x="293" y="12"/>
      <point x="276" y="28"/>
      <point x="244" y="28" type="curve" smooth="yes"/>
      <point x="217" y="28"/>
      <point x="163" y="17"/>
      <point x="135" y="17" type="curve" smooth="yes"/>
      <point x="85" y="17"/>
      <point x="57" y="52"/>
      <point x="57" y="116" type="curve" smooth="yes"/>
      <point x="57" y="229"/>
      <point x="144" y="321"/>
      <point x="287" y="354" type="curve"/>
      <point x="265" y="365" type="line"/>
      <point x="125" y="331"/>
      <point x="37" y="232"/>
      <point x="37" y="114" type="curve" smooth="yes"/>
      <point x="37" y="40"/>
      <point x="71" y="-3"/>
      <point x="131" y="-3" type="curve" smooth="yes"/>
      <point x="162" y="-3"/>
      <point x="219" y="8"/>
      <point x="242" y="8" type="curve" smooth="yes"/>
      <point x="263" y="8"/>
      <point x="273" y="-1"/>
      <point x="273" y="-20" type="curve" smooth="yes"/>
      <point x="273" y="-60"/>
      <point x="227" y="-109"/>
      <point x="143" y="-157" type="curve"/>
      <point x="142" y="-161" type="line"/>
    </contour>
    <contour>
      <point x="247" y="351" type="curve" smooth="yes"/>
      <point x="314" y="351" type="line"/>
      <point x="318" y="365" type="line"/>
      <point x="316" y="371" type="line"/>
      <point x="250" y="371" type="line" smooth="yes"/>
      <point x="177" y="371"/>
      <point x="135" y="406"/>
      <point x="135" y="483" type="curve" smooth="yes"/>
      <point x="135" y="588"/>
      <point x="212" y="683"/>
      <point x="308" y="683" type="curve" smooth="yes"/>
      <point x="334" y="683"/>
      <point x="358" y="677"/>
      <point x="383" y="664" type="curve"/>
      <point x="387" y="666" type="line"/>
      <point x="394" y="678" type="line"/>
      <point x="391" y="683" type="line"/>
      <point x="369" y="694"/>
      <point x="346" y="701"/>
      <point x="320" y="705" type="curve"/>
      <point x="206" y="705"/>
      <point x="115" y="600"/>
      <point x="115" y="481" type="curve" smooth="yes"/>
      <point x="115" y="394"/>
      <point x="165" y="351"/>
    </contour>
  </outline>
</glyph>
<glyph name="rho" format="2">
  <advance width="405"/>
  <unicode hex="03C1"/>
  <anchor x="238" y="452" name="top"/>
  <outline>
    <contour>
      <point x="21" y="-189" type="line"/>
      <point x="46" y="-185" type="line"/>
      <point x="55" y="-79" type="line"/>
      <point x="99" y="260" type="line" smooth="yes"/>
      <point x="113" y="366"/>
      <point x="175" y="437"/>
      <point x="253" y="437" type="curve" smooth="yes"/>
      <point x="315" y="437"/>
      <point x="341" y="397"/>
      <point x="341" y="305" type="curve" smooth="yes"/>
      <point x="341" y="133"/>
      <point x="262" y="19"/>
      <point x="142" y="17" type="curve"/>
      <point x="59" y="31" type="line"/>
      <point x="55" y="11" type="line"/>
      <point x="138" y="-3" type="line"/>
      <point x="275" y="-1"/>
      <point x="361" y="119"/>
      <point x="361" y="307" type="curve" smooth="yes"/>
      <point x="361" y="410"/>
      <point x="328" y="457"/>
      <point x="255" y="457" type="curve" smooth="yes"/>
      <point x="164" y="457"/>
      <point x="94" y="380"/>
      <point x="79" y="263" type="curve" smooth="yes"/>
    </contour>
  </outline>
</glyph>
<glyph name="sigma" format="2">
  <advance width="419"/>
  <unicode hex="03C3"/>
  <outline>
    <contour>
      <point x="153" y="-5" type="curve" smooth="yes"/>
      <point x="264" y="-5"/>
      <point x="339" y="122"/>
      <point x="339" y="278" type="curve" smooth="yes"/>
      <point x="339" y="326"/>
      <point x="331" y="377"/>
      <point x="316" y="428" type="curve"/>
      <point x="323" y="444" type="line"/>
      <point x="293" y="437" type="line"/>
      <point x="310" y="385"/>
      <point x="318" y="332"/>
      <point x="318" y="282" type="curve" smooth="yes"/>
      <point x="318" y="137"/>
      <point x="253" y="15"/>
      <point x="155" y="15" type="curve" smooth="yes"/>
      <point x="91" y="15"/>
      <point x="67" y="56"/>
      <point x="67" y="165" type="curve" smooth="yes"/>
      <point x="67" y="325"/>
      <point x="140" y="432"/>
      <point x="248" y="432" type="curve" smooth="yes"/>
      <point x="412" y="432" type="line"/>
      <point x="415" y="448" type="line"/>
      <point x="412" y="452" type="line"/>
      <point x="256" y="452" type="line" smooth="yes"/>
      <point x="127" y="452"/>
      <point x="47" y="341"/>
      <point x="47" y="163" type="curve" smooth="yes"/>
      <point x="47" y="43"/>
      <point x="77" y="-5"/>
    </contour>
  </outline>
</glyph>
<glyph name="chi" format="2">
  <advance width="374"/>
  <unicode hex="03C7"/>
  <outline>
    <contour>
      <point x="301" y="-188" type="curve" smooth="yes"/>
      <point x="309" y="-188"/>
      <point x="317" y="-186"/>
      <point x="327" y="-182" type="curve"/>
      <point x="332" y="-166" type="line"/>
      <point x="328" y="-163" type="line"/>
      <point x="301" y="-173"/>
      <point x="292" y="-168"/>
      <point x="283" y="-138" type="curve" smooth="yes"/>
      <point x="196" y="142" type="line"/>
      <point x="380" y="452" type="line"/>
      <point x="354" y="452" type="line"/>
      <point x="332" y="410" type="line"/>
      <point x="178" y="147" type="line"/>
      <point x="176" y="137" type="line"/>
      <point x="265" y="-147" type="line" smooth="yes"/>
      <point x="274" y="-177"/>
      <point x="284" y="-188"/>
    </contour>
    <contour>
      <point x="-24" y="-185" type="line"/>
      <point x="2" y="-185" type="line"/>
      <point x="25" y="-143" type="line"/>
      <point x="189" y="137" type="line"/>
      <point x="189" y="147" type="line"/>
      <point x="111" y="396" type="line" smooth="yes"/>
      <point x="95" y="447"/>
      <point x="82" y="458"/>
      <point x="43" y="451" type="curve"/>
      <point x="38" y="436" type="line"/>
      <point x="41" y="432" type="line"/>
      <point x="67" y="435"/>
      <point x="76" y="437"/>
      <point x="92" y="387" type="curve" smooth="yes"/>
      <point x="170" y="142" type="line"/>
    </contour>
  </outline>
</glyph>
<glyph name="kaiSymbol" format="2">
  <advance width="424"/>
  <unicode hex="03D7"/>
  <outline>
    <contour>
      <point x="104" y="-153" type="curve"/>
      <point x="200" y="-175"/>
      <point x="259" y="-133"/>
      <point x="325" y="1" type="curve"/>
      <point x="304" y="0" type="line"/>
      <point x="241" y="-122"/>
      <point x="190" y="-155"/>
      <point x="101" y="-132" type="curve"/>
      <point x="99" y="-134" type="line"/>
      <point x="99" y="-142"/>
      <point x="101" y="-149"/>
    </contour>
    <contour>
      <point x="304" y="0" type="line"/>
      <point x="325" y="1" type="line"/>
      <point x="325" y="5" type="line"/>
      <point x="256" y="73"/>
      <point x="158" y="169"/>
      <point x="95" y="241" type="curve"/>
      <point x="364" y="452" type="line"/>
      <point x="332" y="452" type="line"/>
      <point x="294" y="418" type="line"/>
      <point x="71" y="243" type="line"/>
      <point x="71" y="238" type="line"/>
      <point x="137" y="161"/>
      <point x="231" y="73"/>
      <point x="300" y="1" type="curve"/>
    </contour>
    <contour>
      <point x="23" y="0" type="line"/>
      <point x="43" y="0" type="line"/>
      <point x="67" y="196" type="line"/>
      <point x="98" y="453" type="line"/>
      <point x="78" y="449" type="line"/>
      <point x="47" y="196" type="line"/>
    </contour>
  </outline>
</glyph>
<glyph name="E-cy" format="2">
  <advance width="517"/>
  <unicode hex="0404"/>
  <outline>
    <contour>
      <point x="408" y="322" type="line"/>
      <point x="412" y="338" type="line"/>
      <point x="407" y="342" type="line"/>
      <point x="211" y="342" type="line"/>
      <point x="73" y="342" type="line"/>
      <point x="68" y="326" type="line"/>
      <point x="74" y="322" type="line"/>
      <point x="207" y="322" type="line"/>
    </contour>
    <contour>
      <point x="351" y="641" type="curve" smooth="yes"/>
      <point x="186" y="641"/>
      <point x="82" y="519"/>
      <point x="57" y="312" type="curve" smooth="yes"/>
      <point x="32" y="104"/>
      <point x="104" y="-5"/>
      <point x="262" y="-5" type="curve" smooth="yes"/>
      <point x="321" y="-5"/>
      <point x="391" y="19"/>
      <point x="449" y="62" type="curve"/>
      <point x="453" y="80" type="line"/>
      <point x="447" y="82" type="line"/>
      <point x="391" y="39"/>
      <point x="324" y="15"/>
      <point x="263" y="15" type="curve" smooth="yes"/>
      <point x="119" y="15"/>
      <point x="52" y="116"/>
      <point x="76" y="309" type="curve" smooth="yes"/>
      <point x="100" y="506"/>
      <point x="197" y="621"/>
      <point x="350" y="621" type="curve" smooth="yes"/>
      <point x="407" y="621"/>
      <point x="459" y="601"/>
      <point x="497" y="565" type="curve"/>
      <point x="505" y="565" type="line"/>
      <point x="513" y="582" type="line"/>
      <point x="471" y="620"/>
      <point x="411" y="641"/>
    </contour>
  </outline>
</glyph>
<glyph name="Lje-cy" format="2">
  <advance width="802"/>
  <unicode hex="0409"/>
  <outline>
    <contour>
      <point x="414" y="0" type="line"/>
      <point x="510" y="0" type="line"/>
      <point x="652" y="0"/>
      <point x="736" y="65"/>
      <point x="750" y="185" type="curve" smooth="yes"/>
      <point x="764" y="292"/>
      <point x="711" y="351"/>
      <point x="600" y="351" type="curve" smooth="yes"/>
      <point x="457" y="351" type="line"/>
      <point x="454" y="331" type="line"/>
      <point x="595" y="331" type="line" smooth="yes"/>
      <point x="697" y="331"/>
      <point x="743" y="279"/>
      <point x="731" y="186" type="curve" smooth="yes"/>
      <point x="719" y="86"/>
      <point x="653" y="29"/>
      <point x="541" y="20" type="curve"/>
      <point x="416" y="20" type="line"/>
    </contour>
    <contour>
      <point x="4" y="-13" type="line"/>
      <point x="18" y="-7" type="line" smooth="yes"/>
      <point x="114" y="34"/>
      <point x="172" y="163"/>
      <point x="244" y="546" type="curve" smooth="yes"/>
      <point x="261" y="637" type="line"/>
      <point x="241" y="637" type="line"/>
      <point x="224" y="548" type="line" smooth="yes"/>
      <point x="150" y="162"/>
      <point x="100" y="47"/>
      <point x="-1" y="3" type="curve"/>
    </contour>
    <contour>
      <point x="403" y="0" type="line"/>
      <point x="423" y="0" type="line"/>
      <point x="447" y="195" type="line"/>
      <point x="501" y="637" type="line"/>
      <point x="481" y="637" type="line"/>
      <point x="427" y="195" type="line"/>
    </contour>
    <contour>
      <point x="243" y="617" type="line"/>
      <point x="487" y="617" type="line"/>
      <point x="490" y="637" type="line"/>
      <point x="240" y="637" type="line"/>
    </contour>
  </outline>
</glyph>
<glyph name="Tshe-cy" format="2">
  <advance width="615"/>
  <unicode hex="040B"/>
  <outline>
    <contour>
      <point x="498" y="0" type="line"/>
      <point x="518" y="0" type="line"/>
      <point x="545" y="220" type="line" smooth="yes"/>
      <point x="562" y="352"/>
      <point x="520" y="414"/>
      <point x="415" y="414" type="curve"/>
      <point x="353" y="414"/>
      <point x="292" y="388"/>
      <point x="229" y="335" type="curve"/>
      <point x="216" y="335" type="line"/>
      <point x="212" y="298" type="line"/>
      <point x="284" y="365"/>
      <point x="347" y="394"/>
      <point x="417" y="394" type="curve" smooth="yes"/>
      <point x="504" y="394"/>
      <point x="539" y="335"/>
      <point x="525" y="217" type="curve" smooth="yes"/>
    </contour>
    <contour>
      <point x="165" y="0" type="line"/>
      <point x="185" y="0" type="line"/>
      <point x="209" y="195" type="line"/>
      <point x="263" y="637" type="line"/>
      <point x="244" y="637" type="line"/>
      <point x="189" y="195" type="line"/>
    </contour>
    <contour>
      <point x="79" y="617" type="line"/>
      <point x="180" y="617" type="line"/>
      <point x="375" y="617" type="line"/>
      <point x="483" y="617" type="line"/>
      <point x="488" y="633" type="line"/>
      <point x="486" y="637" type="line"/>
      <point x="82" y="637" type="line"/>
      <point x="77" y="621" type="line"/>
    </contour>
  </outline>
</glyph>
<glyph name="Dzhe-cy" format="2">
  <advance width="609"/>
  <unicode hex="040F"/>
  <outline>
    <contour>
      <point x="456" y="0" type="line"/>
      <point x="475" y="0" type="line"/>
      <point x="499" y="195" type="line"/>
      <point x="554" y="637" type="line"/>
      <point x="534" y="637" type="line"/>
      <point x="480" y="195" type="line"/>
    </contour>
    <contour>
      <point x="80" y="0" type="line"/>
      <point x="99" y="0" type="line"/>
      <point x="123" y="195" type="line"/>
      <point x="178" y="637" type="line"/>
      <point x="158" y="637" type="line"/>
      <point x="104" y="195" type="line"/>
    </contour>
    <contour>
      <point x="94" y="0" type="line"/>
      <point x="464" y="0" type="line"/>
      <point x="467" y="20" type="line"/>
      <point x="96" y="20" type="line"/>
    </contour>
    <contour>
      <point x="252" y="-135" type="line"/>
      <point x="272" y="-131" type="line"/>
      <point x="289" y="16" type="line"/>
      <point x="270" y="16" type="line"/>
    </contour>
  </outline>
</glyph>
<glyph name="Zhe-cy" format="2">
  <advance width="759"/>
  <unicode hex="0416"/>
  <anchor x="706" y="0" name="bottomright"/>
  <anchor x="429" y="637" name="top"/>
  <outline>
    <contour>
      <point x="680" y="-7" type="line"/>
      <point x="685" y="-5"/>
      <point x="691" y="-3"/>
      <point x="695" y="1" type="curve"/>
      <point x="694" y="5" type="line"/>
      <point x="610" y="108"/>
      <point x="526" y="225"/>
      <point x="455" y="340" type="curve"/>
      <point x="758" y="637" type="line"/>
      <point x="728" y="637" type="line"/>
      <point x="683" y="590" type="line"/>
      <point x="429" y="341" type="line"/>
      <point x="429" y="338" type="line"/>
      <point x="502" y="219"/>
      <point x="588" y="102"/>
      <point x="676" y="-6" type="curve"/>
    </contour>
    <contour>
      <point x="22" y="-7" type="curve"/>
      <point x="26" y="-6" type="line"/>
      <point x="140" y="102"/>
      <point x="254" y="219"/>
      <point x="357" y="338" type="curve"/>
      <point x="357" y="341" type="line"/>
      <point x="163" y="590" type="line"/>
      <point x="130" y="637" type="line"/>
      <point x="102" y="637" type="line"/>
      <point x="331" y="340" type="line"/>
      <point x="232" y="225"/>
      <point x="118" y="108"/>
      <point x="9" y="5" type="curve"/>
      <point x="9" y="1" type="line"/>
      <point x="11" y="-3"/>
      <point x="17" y="-5"/>
    </contour>
    <contour>
      <point x="341" y="0" type="line"/>
      <point x="361" y="0" type="line"/>
      <point x="385" y="195" type="line"/>
      <point x="439" y="637" type="line"/>
      <point x="419" y="637" type="line"/>
      <point x="365" y="195" type="line"/>
    </contour>
  </outline>
</glyph>
<glyph name="Ze-cy" format="2">
  <advance width="469"/>
  <unicode hex="0417"/>
  <anchor x="193" y="0" name="bottom"/>
  <anchor x="286" y="637" name="top"/>
  <outline>
    <contour>
      <point x="178" y="-7" type="curve" smooth="yes"/>
      <point x="303" y="-7"/>
      <point x="402" y="77"/>
      <point x="402" y="195" type="curve" smooth="yes"/>
      <point x="402" y="276"/>
      <point x="350" y="328"/>
      <point x="260" y="339" type="curve"/>
      <point x="258" y="326" type="line"/>
      <point x="346" y="352"/>
      <point x="405" y="433"/>
      <point x="405" y="514" type="curve" smooth="yes"/>
      <point x="405" y="590"/>
      <point x="350" y="641"/>
      <point x="265" y="641" type="curve" smooth="yes"/>
      <point x="207" y="641"/>
      <point x="144" y="618"/>
      <point x="89" y="576" type="curve"/>
      <point x="86" y="558" type="line"/>
      <point x="93" y="557" type="line"/>
      <point x="139" y="596"/>
      <point x="199" y="620"/>
      <point x="259" y="620" type="curve" smooth="yes"/>
      <point x="336" y="620"/>
      <point x="383" y="579"/>
      <point x="383" y="511" type="curve" smooth="yes"/>
      <point x="383" y="435"/>
      <point x="327" y="366"/>
      <point x="255" y="342" type="curve"/>
      <point x="138" y="342" type="line"/>
      <point x="134" y="326" type="line"/>
      <point x="139" y="322" type="line"/>
      <point x="253" y="322" type="line"/>
      <point x="335" y="311"/>
      <point x="382" y="262"/>
      <point x="382" y="191" type="curve" smooth="yes"/>
      <point x="382" y="87"/>
      <point x="292" y="13"/>
      <point x="180" y="13" type="curve" smooth="yes"/>
      <point x="122" y="13"/>
      <point x="70" y="34"/>
      <point x="38" y="71" type="curve"/>
      <point x="33" y="70" type="line"/>
      <point x="24" y="55" type="line"/>
      <point x="58" y="16"/>
      <point x="114" y="-7"/>
    </contour>
  </outline>
</glyph>
<glyph name="El-cy" format="2">
  <advance width="563"/>
  <unicode hex="041B"/>
  <outline>
    <contour>
      <point x="4" y="-13" type="line"/>
      <point x="18" y="-7" type="line" smooth="yes"/>
      <point x="114" y="34"/>
      <point x="172" y="163"/>
      <point x="244" y="546" type="curve" smooth="yes"/>
      <point x="261" y="637" type="line"/>
      <point x="241" y="637" type="line"/>
      <point x="224" y="548" type="line" smooth="yes"/>
      <point x="150" y="162"/>
      <point x="100" y="47"/>
      <point x="-1" y="3" type="curve"/>
    </contour>
    <contour>
      <point x="403" y="0" type="line"/>
      <point x="423" y="0" type="line"/>
      <point x="447" y="195" type="line"/>
      <point x="501" y="637" type="line"/>
      <point x="481" y="637" type="line"/>
      <point x="427" y="195" type="line"/>
    </contour>
    <contour>
      <point x="243" y="617" type="line"/>
      <point x="487" y="617" type="line"/>
      <point x="490" y="637" type="line"/>
      <point x="240" y="637" type="line"/>
    </contour>
  </outline>
</glyph>
<glyph name="Tse-cy" format="2">
  <advance width="633"/>
  <unicode hex="0426"/>
  <outline>
    <contour>
      <point x="450" y="0" type="line"/>
      <point x="471" y="0" type="line"/>
      <point x="495" y="195" type="line"/>
      <point x="549" y="637" type="line"/>
      <point x="528" y="637" type="line"/>
      <point x="474" y="195" type="line"/>
    </contour>
    <contour>
      <point x="91" y="0" type="line"/>
      <point x="461" y="0" type="line"/>
      <point x="464" y="20" type="line"/>
      <point x="94" y="20" type="line"/>
    </contour>
    <contour>
      <point x="80" y="0" type="line"/>
      <point x="100" y="0" type="line"/>
      <point x="124" y="195" type="line"/>
      <point x="178" y="637" type="line"/>
      <point x="158" y="637" type="line"/>
      <point x="104" y="195" type="line"/>
    </contour>
    <component base="descender-cy.case" xOffset="444"/>
  </outline>
</glyph>
<glyph name="Che-cy" format="2">
  <advance width="540"/>
  <unicode hex="0427"/>
  <anchor x="387" y="0" name="bottomright"/>
  <anchor x="285" y="637" name="top"/>
  <outline>
    <contour>
      <point x="485" y="637" type="line"/>
      <point x="465" y="637" type="line"/>
      <point x="411" y="195" type="line"/>
      <point x="387" y="0" type="line"/>
      <point x="407" y="0" type="line"/>
      <point x="431" y="195" type="line"/>
    </contour>
    <contour>
      <point x="438" y="346" type="line"/>
      <point x="368" y="277"/>
      <point x="304" y="246"/>
      <point x="230" y="246" type="curve" smooth="yes"/>
      <point x="138" y="246"/>
      <point x="98" y="290"/>
      <point x="109" y="383" type="curve" smooth="yes"/>
      <point x="140" y="637" type="line"/>
      <point x="120" y="637" type="line"/>
      <point x="89" y="380" type="line" smooth="yes"/>
      <point x="76" y="274"/>
      <point x="121" y="226"/>
      <point x="233" y="226" type="curve"/>
      <point x="298" y="226"/>
      <point x="361" y="253"/>
      <point x="420" y="305" type="curve"/>
      <point x="434" y="305" type="line"/>
    </contour>
  </outline>
</glyph>
<glyph name="Sha-cy" format="2">
  <advance width="837"/>
  <unicode hex="0428"/>
  <anchor x="684" y="0" name="bottomright"/>
  <outline>
    <contour>
      <point x="90" y="0" type="line"/>
      <point x="695" y="0" type="line"/>
      <point x="698" y="20" type="line"/>
      <point x="93" y="20" type="line"/>
    </contour>
    <contour>
      <point x="80" y="0" type="line"/>
      <point x="100" y="0" type="line"/>
      <point x="124" y="195" type="line"/>
      <point x="178" y="637" type="line"/>
      <point x="158" y="637" type="line"/>
      <point x="104" y="195" type="line"/>
    </contour>
    <contour>
      <point x="382" y="0" type="line"/>
      <point x="402" y="0" type="line"/>
      <point x="426" y="195" type="line"/>
      <point x="480" y="637" type="line"/>
      <point x="460" y="637" type="line"/>
      <point x="406" y="195" type="line"/>
    </contour>
    <contour>
      <point x="684" y="0" type="line"/>
      <point x="704" y="0" type="line"/>
      <point x="728" y="195" type="line"/>
      <point x="782" y="637" type="line"/>
      <point x="762" y="637" type="line"/>
      <point x="708" y="195" type="line"/>
    </contour>
  </outline>
</glyph>
<glyph name="ge-cy" format="2">
  <advance width="309"/>
  <unicode hex="0433"/>
  <anchor x="133" y="0" name="bottom"/>
  <anchor x="260" y="0" name="bottomright"/>
  <anchor x="138" y="224" name="center"/>
  <anchor x="184" y="452" name="top"/>
  <outline>
    <contour>
      <point x="132" y="-6" type="curve"/>
      <point x="189" y="1"/>
      <point x="226" y="29"/>
      <point x="252" y="82" type="curve"/>
      <point x="242" y="95" type="line"/>
      <point x="235" y="95" type="line"/>
      <point x="214" y="44"/>
      <point x="176" y="15"/>
      <point x="131" y="15" type="curve" smooth="yes"/>
      <point x="79" y="15"/>
      <point x="46" y="43"/>
      <point x="46" y="86" type="curve" smooth="yes"/>
      <point x="46" y="198"/>
      <point x="274" y="244"/>
      <point x="274" y="367" type="curve" smooth="yes"/>
      <point x="274" y="419"/>
      <point x="233" y="456"/>
      <point x="173" y="456" type="curve"/>
      <point x="124" y="451"/>
      <point x="87" y="426"/>
      <point x="62" y="382" type="curve"/>
      <point x="70" y="369" type="line"/>
      <point x="77" y="369" type="line"/>
      <point x="97" y="410"/>
      <point x="133" y="435"/>
      <point x="175" y="435" type="curve" smooth="yes"/>
      <point x="223" y="435"/>
      <point x="254" y="408"/>
      <point x="254" y="364" type="curve" smooth="yes"/>
      <point x="254" y="261"/>
      <point x="26" y="210"/>
      <point x="26" y="85" type="curve" smooth="yes"/>
      <point x="26" y="32"/>
      <point x="66" y="-2"/>
    </contour>
  </outline>
</glyph>
<glyph name="ze-cy" format="2">
  <advance width="330"/>
  <unicode hex="0437"/>
  <anchor x="137" y="0" name="bottom"/>
  <anchor x="193" y="452" name="top"/>
  <outline>
    <contour>
      <point x="114" y="-3" type="curve" smooth="yes"/>
      <point x="208" y="-3"/>
      <point x="272" y="49"/>
      <point x="272" y="131" type="curve" smooth="yes"/>
      <point x="272" y="183"/>
      <point x="236" y="220"/>
      <point x="176" y="234" type="curve"/>
      <point x="176" y="236" type="line"/>
      <point x="235" y="262"/>
      <point x="276" y="315"/>
      <point x="276" y="364" type="curve" smooth="yes"/>
      <point x="276" y="417"/>
      <point x="239" y="456"/>
      <point x="181" y="456" type="curve" smooth="yes"/>
      <point x="136" y="456"/>
      <point x="97" y="434"/>
      <point x="60" y="387" type="curve"/>
      <point x="67" y="374" type="line"/>
      <point x="70" y="374" type="line"/>
      <point x="104" y="416"/>
      <point x="139" y="436"/>
      <point x="181" y="436" type="curve" smooth="yes"/>
      <point x="225" y="436"/>
      <point x="256" y="404"/>
      <point x="256" y="364" type="curve" smooth="yes"/>
      <point x="256" y="307"/>
      <point x="187" y="242"/>
      <point x="125" y="242" type="curve" smooth="yes"/>
      <point x="92" y="242" type="line"/>
      <point x="89" y="224" type="line"/>
      <point x="91" y="222" type="line"/>
      <point x="128" y="222" type="line"/>
      <point x="207" y="218"/>
      <point x="252" y="184"/>
      <point x="252" y="129" type="curve" smooth="yes"/>
      <point x="252" y="58"/>
      <point x="198" y="17"/>
      <point x="114" y="17" type="curve" smooth="yes"/>
      <point x="88" y="17"/>
      <point x="52" y="25"/>
      <point x="18" y="38" type="curve"/>
      <point x="13" y="35" type="line"/>
      <point x="8" y="19" type="line"/>
      <point x="43" y="4"/>
      <point x="79" y="-3"/>
    </contour>
  </outline>
</glyph>
<glyph name="em-cy" format="2">
  <advance width="535"/>
  <unicode hex="043C"/>
  <outline>
    <contour>
      <point x="35" y="0" type="line"/>
      <point x="55" y="0" type="line"/>
      <point x="89" y="156" type="line"/>
      <point x="146" y="409" type="line"/>
      <point x="149" y="409" type="line"/>
      <point x="233" y="57" type="line"/>
      <point x="255" y="57" type="line"/>
      <point x="430" y="409" type="line"/>
      <point x="433" y="409" type="line"/>
      <point x="428" y="145" type="line"/>
      <point x="422" y="0" type="line"/>
      <point x="442" y="0" type="line"/>
      <point x="454" y="455" type="line"/>
      <point x="431" y="452" type="line"/>
      <point x="399" y="387" type="line"/>
      <point x="249" y="86" type="line"/>
      <point x="247" y="86" type="line"/>
      <point x="175" y="380" type="line"/>
      <point x="157" y="455" type="line"/>
      <point x="136" y="452" type="line"/>
    </contour>
  </outline>
</glyph>
<glyph name="en-cy" format="2">
  <advance width="441"/>
  <unicode hex="043D"/>
  <anchor x="303" y="-4" name="bottomright"/>
  <outline>
    <contour>
      <point x="137" y="456" type="line"/>
      <point x="112" y="452" type="line"/>
      <point x="106" y="362" type="line"/>
      <point x="57" y="-4" type="line"/>
      <point x="84" y="0" type="line"/>
      <point x="91" y="106" type="line"/>
    </contour>
    <contour>
      <point x="383" y="456" type="line"/>
      <point x="358" y="452" type="line"/>
      <point x="352" y="362" type="line"/>
      <point x="303" y="-4" type="line"/>
      <point x="330" y="0" type="line"/>
      <point x="337" y="106" type="line"/>
    </contour>
    <contour>
      <point x="99" y="239" type="line"/>
      <point x="97" y="220" type="line"/>
      <point x="217" y="220" type="line"/>
      <point x="343" y="220" type="line"/>
      <point x="345" y="239" type="line"/>
      <point x="219" y="239" type="line"/>
    </contour>
  </outline>
</glyph>
<glyph name="tse-cy" format="2">
  <advance width="456"/>
  <unicode hex="0446"/>
  <outline>
    <contour>
      <point x="107" y="-11" type="curve"/>
      <point x="118" y="-11" type="line"/>
      <point x="177" y="30"/>
      <point x="238" y="109"/>
      <point x="331" y="267" type="curve"/>
      <point x="344" y="267" type="line"/>
      <point x="356" y="353" type="line"/>
      <point x="252" y="158"/>
      <point x="149" y="15"/>
      <point x="111" y="15" type="curve" smooth="yes"/>
      <point x="92" y="15"/>
      <point x="76" y="44"/>
      <point x="77" y="75" type="curve"/>
      <point x="78" y="90" type="line"/>
      <point x="137" y="455" type="line"/>
      <point x="112" y="451" type="line"/>
      <point x="100" y="350" type="line"/>
      <point x="57" y="87" type="line"/>
      <point x="56" y="74" type="line" smooth="yes"/>
      <point x="54" y="33"/>
      <point x="75" y="-2"/>
    </contour>
    <component base="_part.stemDescender-cy" xOffset="229"/>
  </outline>
</glyph>
<glyph name="iu-cy" format="2">
  <advance width="537"/>
  <unicode hex="044E"/>
  <outline>
    <contour>
      <point x="137" y="456" type="line"/>
      <point x="112" y="452" type="line"/>
      <point x="106" y="362" type="line"/>
      <point x="57" y="-4" type="line"/>
      <point x="84" y="0" type="line"/>
      <point x="91" y="106" type="line"/>
    </contour>
    <contour>
      <point x="99" y="239" type="line"/>
      <point x="97" y="220" type="line"/>
      <point x="156" y="220" type="line"/>
      <point x="218" y="220" type="line"/>
      <point x="220" y="239" type="line"/>
      <point x="158" y="239" type="line"/>
    </contour>
    <contour>
      <point x="397" y="458" type="line"/>
      <point x="288" y="456"/>
      <point x="207" y="320"/>
      <point x="207" y="139" type="curve" smooth="yes"/>
      <point x="207" y="40"/>
      <point x="232" y="-1"/>
      <point x="296" y="-6" type="curve"/>
      <point x="301" y="-6" type="line"/>
      <point x="411" y="0"/>
      <point x="490" y="134"/>
      <point x="490" y="314" type="curve" smooth="yes"/>
      <point x="490" y="413"/>
      <point x="466" y="452"/>
      <point x="402" y="458" type="curve"/>
    </contour>
    <contour>
      <point x="397" y="437" type="curve" smooth="yes"/>
      <point x="449" y="437"/>
      <point x="469" y="402"/>
      <point x="469" y="313" type="curve" smooth="yes"/>
      <point x="469" y="144"/>
      <point x="396" y="15"/>
      <point x="300" y="15" type="curve" smooth="yes"/>
      <point x="248" y="15"/>
      <point x="227" y="52"/>
      <point x="227" y="141" type="curve" smooth="yes"/>
      <point x="227" y="310"/>
      <point x="300" y="437"/>
    </contour>
  </outline>
</glyph>
<glyph name="lje-cy" format="2">
  <advance width="583"/>
  <unicode hex="0459"/>
  <outline>
    <contour>
      <point x="236" y="452" type="line"/>
      <point x="86" y="127" type="line" smooth="yes"/>
      <point x="48" y="44"/>
      <point x="27" y="20"/>
      <point x="-13" y="12" type="curve"/>
      <point x="-17" y="8" type="line"/>
      <point x="-12" y="-10" type="line"/>
      <point x="40" y="0"/>
      <point x="63" y="25"/>
      <point x="105" y="119" type="curve" smooth="yes"/>
      <point x="255" y="452" type="line"/>
    </contour>
    <contour>
      <point x="241" y="452" type="line"/>
      <point x="236" y="422" type="line"/>
      <point x="244" y="422" type="line"/>
      <point x="279" y="70" type="line"/>
      <point x="284" y="9" type="line"/>
      <point x="307" y="9" type="line"/>
      <point x="260" y="452" type="line"/>
    </contour>
    <contour>
      <point x="357" y="-3" type="line"/>
      <point x="361" y="-3" type="line"/>
      <point x="469" y="-3"/>
      <point x="545" y="84"/>
      <point x="545" y="207" type="curve" smooth="yes"/>
      <point x="545" y="259"/>
      <point x="531" y="288"/>
      <point x="494" y="314" type="curve"/>
      <point x="482" y="314" type="line"/>
      <point x="411" y="265"/>
      <point x="350" y="205"/>
      <point x="299" y="135" type="curve"/>
      <point x="288" y="135" type="line"/>
      <point x="293" y="99" type="line"/>
      <point x="367" y="199"/>
      <point x="457" y="286"/>
      <point x="487" y="286" type="curve" smooth="yes"/>
      <point x="508" y="286"/>
      <point x="525" y="247"/>
      <point x="525" y="197" type="curve" smooth="yes"/>
      <point x="525" y="91"/>
      <point x="458" y="17"/>
      <point x="364" y="17" type="curve"/>
      <point x="294" y="28" type="line"/>
      <point x="284" y="9" type="line"/>
    </contour>
  </outline>
</glyph>
<glyph name="Yat-cy" format="2">
  <advance width="562"/>
  <unicode hex="0462"/>
  <outline>
    <contour>
      <point x="173" y="0" type="line"/>
      <point x="270" y="0" type="line"/>
      <point x="412" y="0"/>
      <point x="494" y="55"/>
      <point x="509" y="175" type="curve" smooth="yes"/>
      <point x="522" y="282"/>
      <point x="469" y="331"/>
      <point x="357" y="331" type="curve" smooth="yes"/>
      <point x="214" y="331" type="line"/>
      <point x="212" y="311" type="line"/>
      <point x="353" y="311" type="line" smooth="yes"/>
      <point x="455" y="311"/>
      <point x="501" y="269"/>
      <point x="490" y="176" type="curve" smooth="yes"/>
      <point x="478" y="76"/>
      <point x="413" y="29"/>
      <point x="301" y="20" type="curve"/>
      <point x="176" y="20" type="line"/>
    </contour>
    <contour>
      <point x="164" y="0" type="line"/>
      <point x="183" y="0" type="line"/>
      <point x="207" y="195" type="line"/>
      <point x="269" y="700" type="line"/>
      <point x="250" y="700" type="line"/>
      <point x="188" y="195" type="line"/>
    </contour>
    <contour>
      <point x="474" y="585" type="line"/>
      <point x="74" y="585" type="line"/>
      <point x="69" y="569" type="line"/>
      <point x="71" y="565" type="line"/>
      <point x="172" y="565" type="line"/>
      <point x="373" y="565" type="line"/>
      <point x="471" y="565" type="line"/>
      <point x="477" y="581" type="line"/>
    </contour>
  </outline>
</glyph>
<glyph name="Yusbig-cy" format="2">
  <advance width="686"/>
  <unicode hex="046A"/>
  <outline>
    <contour>
      <point x="-4" y="-7" type="curve"/>
      <point x="0" y="-6" type="line"/>
      <point x="94" y="85"/>
      <point x="167" y="160"/>
      <point x="237" y="239" type="curve" smooth="yes"/>
      <point x="281" y="289"/>
      <point x="298" y="299"/>
      <point x="354" y="299" type="curve" smooth="yes"/>
      <point x="406" y="299"/>
      <point x="422" y="290"/>
      <point x="453" y="241" type="curve" smooth="yes"/>
      <point x="504" y="161"/>
      <point x="558" y="85"/>
      <point x="631" y="-6" type="curve"/>
      <point x="635" y="-7" type="line"/>
      <point x="644" y="-4"/>
      <point x="648" y="-1"/>
      <point x="649" y="1" type="curve"/>
      <point x="649" y="5" type="line"/>
      <point x="584" y="88"/>
      <point x="530" y="160"/>
      <point x="479" y="239" type="curve" smooth="yes"/>
      <point x="436" y="306"/>
      <point x="417" y="319"/>
      <point x="354" y="319" type="curve" smooth="yes"/>
      <point x="289" y="319"/>
      <point x="267" y="307"/>
      <point x="209" y="241" type="curve" smooth="yes"/>
      <point x="122" y="142"/>
      <point x="52" y="69"/>
      <point x="-18" y="5" type="curve"/>
      <point x="-17" y="1" type="line"/>
      <point x="-16" y="-1"/>
      <point x="-12" y="-4"/>
    </contour>
    <contour>
      <point x="306" y="0" type="line"/>
      <point x="326" y="0" type="line"/>
      <point x="350" y="195" type="line"/>
      <point x="364" y="310" type="line"/>
      <point x="344" y="310" type="line"/>
      <point x="330" y="195" type="line"/>
    </contour>
    <contour>
      <point x="348" y="292" type="line"/>
      <point x="355" y="292" type="line"/>
      <point x="684" y="620" type="line"/>
      <point x="686" y="637" type="line"/>
      <point x="101" y="637" type="line"/>
      <point x="99" y="620" type="line"/>
    </contour>
    <contour>
      <point x="354" y="317" type="line"/>
      <point x="127" y="617" type="line"/>
      <point x="655" y="617" type="line"/>
    </contour>
  </outline>
</glyph>
<glyph name="yusbig-cy" format="2">
  <advance width="541"/>
  <unicode hex="046B"/>
  <outline>
    <contour>
      <point x="8" y="-5" type="curve"/>
      <point x="11" y="-4" type="line"/>
      <point x="70" y="52"/>
      <point x="120" y="101"/>
      <point x="181" y="167" type="curve" smooth="yes"/>
      <point x="214" y="203"/>
      <point x="227" y="209"/>
      <point x="268" y="209" type="curve" smooth="yes"/>
      <point x="310" y="209"/>
      <point x="320" y="203"/>
      <point x="343" y="169" type="curve" smooth="yes"/>
      <point x="384" y="109"/>
      <point x="422" y="56"/>
      <point x="473" y="-4" type="curve"/>
      <point x="477" y="-5" type="line"/>
      <point x="486" y="-2"/>
      <point x="490" y="-1"/>
      <point x="494" y="1" type="curve"/>
      <point x="494" y="5" type="line"/>
      <point x="450" y="57"/>
      <point x="413" y="105"/>
      <point x="369" y="168" type="curve" smooth="yes"/>
      <point x="334" y="219"/>
      <point x="320" y="228"/>
      <point x="269" y="228" type="curve" smooth="yes"/>
      <point x="218" y="228"/>
      <point x="202" y="220"/>
      <point x="156" y="170" type="curve" smooth="yes"/>
      <point x="94" y="102"/>
      <point x="44" y="52"/>
      <point x="-9" y="5" type="curve"/>
      <point x="-8" y="1" type="line"/>
      <point x="-1" y="-2"/>
      <point x="3" y="-4"/>
    </contour>
    <contour>
      <point x="258" y="209" type="line"/>
      <point x="277" y="209" type="line"/>
      <point x="515" y="436" type="line"/>
      <point x="517" y="452" type="line"/>
      <point x="78" y="452" type="line"/>
      <point x="76" y="436" type="line"/>
    </contour>
    <contour>
      <point x="269" y="226" type="line"/>
      <point x="103" y="433" type="line"/>
      <point x="487" y="433" type="line"/>
    </contour>
    <contour>
      <point x="279" y="220" type="line"/>
      <point x="260" y="220" type="line"/>
      <point x="230" y="-4" type="line"/>
      <point x="256" y="0" type="line"/>
      <point x="264" y="106" type="line"/>
    </contour>
  </outline>
</glyph>
<glyph name="Ghemiddlehook-cy" format="2">
  <advance width="533"/>
  <unicode hex="0494"/>
  <outline>
    <contour>
      <point x="291" y="-189" type="line"/>
      <point x="383" y="-115"/>
      <point x="432" y="-8"/>
      <point x="454" y="167" type="curve" smooth="yes"/>
      <point x="476" y="350"/>
      <point x="446" y="414"/>
      <point x="336" y="414" type="curve" smooth="yes"/>
      <point x="269" y="414"/>
      <point x="208" y="389"/>
      <point x="144" y="335" type="curve"/>
      <point x="131" y="335" type="line"/>
      <point x="127" y="298" type="line"/>
      <point x="197" y="363"/>
      <point x="264" y="394"/>
      <point x="334" y="394" type="curve" smooth="yes"/>
      <point x="430" y="394"/>
      <point x="455" y="336"/>
      <point x="435" y="170" type="curve" smooth="yes"/>
      <point x="414" y="1"/>
      <point x="368" y="-101"/>
      <point x="281" y="-176" type="curve"/>
      <point x="281" y="-182" type="line"/>
    </contour>
    <contour>
      <point x="80" y="0" type="line"/>
      <point x="99" y="0" type="line"/>
      <point x="123" y="195" type="line"/>
      <point x="178" y="637" type="line"/>
      <point x="158" y="637" type="line"/>
      <point x="104" y="195" type="line"/>
    </contour>
    <contour>
      <point x="168" y="617" type="line"/>
      <point x="305" y="617" type="line"/>
      <point x="444" y="617" type="line"/>
      <point x="450" y="633" type="line"/>
      <point x="447" y="637" type="line"/>
      <point x="170" y="637" type="line"/>
      <point x="164" y="621" type="line"/>
    </contour>
  </outline>
</glyph>
<glyph name="ghemiddlehook-cy" format="2">
  <advance width="421"/>
  <unicode hex="0495"/>
  <outline>
    <contour>
      <point x="199" y="-192" type="line"/>
      <point x="280" y="-136"/>
      <point x="307" y="-88"/>
      <point x="322" y="18" type="curve" smooth="yes"/>
      <point x="337" y="124" type="line"/>
      <point x="356" y="230" type="line"/>
      <point x="357" y="243" type="line" smooth="yes"/>
      <point x="360" y="283"/>
      <point x="339" y="319"/>
      <point x="306" y="328" type="curve"/>
      <point x="295" y="328" type="line"/>
      <point x="232" y="299"/>
      <point x="176" y="246"/>
      <point x="101" y="153" type="curve"/>
      <point x="88" y="153" type="line"/>
      <point x="79" y="89" type="line"/>
      <point x="154" y="203"/>
      <point x="254" y="302"/>
      <point x="301" y="302" type="curve" smooth="yes"/>
      <point x="320" y="302"/>
      <point x="337" y="273"/>
      <point x="336" y="242" type="curve"/>
      <point x="335" y="227" type="line"/>
      <point x="299" y="8" type="line" smooth="yes"/>
      <point x="284" y="-86"/>
      <point x="260" y="-126"/>
      <point x="189" y="-175" type="curve"/>
      <point x="188" y="-181" type="line"/>
    </contour>
    <contour>
      <point x="57" y="-4" type="line"/>
      <point x="84" y="0" type="line"/>
      <point x="91" y="106" type="line"/>
      <point x="136" y="452" type="line"/>
      <point x="112" y="452" type="line"/>
      <point x="106" y="362" type="line"/>
    </contour>
    <contour>
      <point x="338" y="432" type="line"/>
      <point x="343" y="449" type="line"/>
      <point x="340" y="452" type="line"/>
      <point x="125" y="452" type="line"/>
      <point x="123" y="433" type="line"/>
      <point x="262" y="433" type="line"/>
    </contour>
  </outline>
</glyph>
<glyph name="Zhedescender-cy" format="2">
  <advance width="806"/>
  <unicode hex="0496"/>
  <anchor x="685" y="-6" name="bottomright"/>
  <anchor x="435" y="637" name="top"/>
  <outline>
    <contour>
      <point x="22" y="-7" type="curve"/>
      <point x="26" y="-6" type="line"/>
      <point x="141" y="102"/>
      <point x="257" y="219"/>
      <point x="361" y="338" type="curve"/>
      <point x="361" y="341" type="line"/>
      <point x="165" y="590" type="line"/>
      <point x="131" y="637" type="line"/>
      <point x="102" y="637" type="line"/>
      <point x="336" y="340" type="line"/>
      <point x="235" y="225"/>
      <point x="120" y="108"/>
      <point x="9" y="5" type="curve"/>
      <point x="9" y="1" type="line"/>
      <point x="12" y="-3"/>
      <point x="18" y="-5"/>
    </contour>
    <contour>
      <point x="712" y="-115" type="line"/>
      <point x="732" y="-111" type="line"/>
      <point x="748" y="20" type="line"/>
      <point x="728" y="15" type="line"/>
    </contour>
    <contour>
      <point x="689" y="0" type="line"/>
      <point x="746" y="0" type="line"/>
      <point x="748" y="20" type="line"/>
      <point x="692" y="20" type="line"/>
    </contour>
    <contour>
      <point x="689" y="0" type="line"/>
      <point x="704" y="8" type="line"/>
      <point x="704" y="12" type="line"/>
      <point x="619" y="115"/>
      <point x="531" y="225"/>
      <point x="459" y="340" type="curve"/>
      <point x="767" y="637" type="line"/>
      <point x="737" y="637" type="line"/>
      <point x="691" y="590" type="line"/>
      <point x="434" y="341" type="line"/>
      <point x="434" y="338" type="line"/>
      <point x="509" y="219"/>
      <point x="597" y="109"/>
      <point x="686" y="1" type="curve"/>
    </contour>
    <contour>
      <point x="347" y="0" type="line"/>
      <point x="366" y="0" type="line"/>
      <point x="390" y="195" type="line"/>
      <point x="444" y="637" type="line"/>
      <point x="425" y="637" type="line"/>
      <point x="371" y="195" type="line"/>
    </contour>
  </outline>
</glyph>
<glyph name="zhedescender-cy" format="2">
  <advance width="579"/>
  <unicode hex="0497"/>
  <outline>
    <contour>
      <point x="8" y="-7" type="curve"/>
      <point x="12" y="-6" type="line"/>
      <point x="91" y="72"/>
      <point x="172" y="154"/>
      <point x="248" y="238" type="curve"/>
      <point x="248" y="243" type="line"/>
      <point x="114" y="418" type="line"/>
      <point x="93" y="452" type="line"/>
      <point x="65" y="452" type="line"/>
      <point x="222" y="241" type="line"/>
      <point x="151" y="163"/>
      <point x="71" y="78"/>
      <point x="-5" y="5" type="curve"/>
      <point x="-5" y="1" type="line"/>
      <point x="-2" y="-3"/>
      <point x="3" y="-5"/>
    </contour>
    <contour>
      <point x="478" y="0" type="line"/>
      <point x="498" y="5" type="line"/>
      <point x="498" y="9" type="line"/>
      <point x="437" y="82"/>
      <point x="380" y="160"/>
      <point x="328" y="241" type="curve"/>
      <point x="545" y="452" type="line"/>
      <point x="517" y="452" type="line"/>
      <point x="485" y="418" type="line"/>
      <point x="304" y="242" type="line"/>
      <point x="304" y="239" type="line"/>
      <point x="358" y="155"/>
      <point x="414" y="78"/>
      <point x="476" y="1" type="curve"/>
    </contour>
    <contour>
      <point x="234" y="-4" type="line"/>
      <point x="260" y="0" type="line"/>
      <point x="268" y="106" type="line"/>
      <point x="314" y="456" type="line"/>
      <point x="289" y="452" type="line"/>
      <point x="283" y="362" type="line"/>
    </contour>
    <contour>
      <point x="455" y="-144" type="line"/>
      <point x="496" y="-119"/>
      <point x="510" y="-97"/>
      <point x="522" y="-43" type="curve" smooth="yes"/>
      <point x="534" y="13" type="line"/>
      <point x="528" y="20" type="line"/>
      <point x="478" y="20" type="line"/>
      <point x="478" y="0" type="line"/>
      <point x="511" y="0" type="line"/>
      <point x="503" y="-40" type="line" smooth="yes"/>
      <point x="493" y="-88"/>
      <point x="478" y="-111"/>
      <point x="437" y="-135" type="curve"/>
      <point x="438" y="-141" type="line"/>
    </contour>
  </outline>
</glyph>
<glyph name="Kadescender-cy" format="2">
  <advance width="553"/>
  <unicode hex="049A"/>
  <outline>
    <contour>
      <point x="199" y="340" type="curve"/>
      <point x="519" y="637" type="line"/>
      <point x="489" y="637" type="line"/>
      <point x="442" y="590" type="line"/>
      <point x="173" y="341" type="line"/>
      <point x="173" y="338" type="line"/>
      <point x="253" y="219"/>
      <point x="340" y="109"/>
      <point x="434" y="1" type="curve"/>
      <point x="437" y="0" type="line"/>
      <point x="451" y="7" type="line"/>
      <point x="451" y="11" type="line"/>
      <point x="360" y="114"/>
      <point x="275" y="225"/>
    </contour>
    <contour>
      <point x="84" y="0" type="line"/>
      <point x="103" y="0" type="line"/>
      <point x="127" y="195" type="line"/>
      <point x="182" y="637" type="line"/>
      <point x="162" y="637" type="line"/>
      <point x="108" y="195" type="line"/>
    </contour>
    <contour>
      <point x="457" y="-115" type="line"/>
      <point x="477" y="-111" type="line"/>
      <point x="494" y="20" type="line"/>
      <point x="474" y="15" type="line"/>
    </contour>
    <contour>
      <point x="437" y="0" type="line"/>
      <point x="491" y="0" type="line"/>
      <point x="494" y="20" type="line"/>
      <point x="439" y="20" type="line"/>
    </contour>
  </outline>
</glyph>
<glyph name="kadescender-cy" format="2">
  <advance width="410"/>
  <unicode hex="049B"/>
  <outline>
    <contour>
      <point x="309" y="0" type="line"/>
      <point x="329" y="5" type="line"/>
      <point x="329" y="9" type="line"/>
      <point x="267" y="82"/>
      <point x="209" y="160"/>
      <point x="157" y="241" type="curve"/>
      <point x="377" y="452" type="line"/>
      <point x="349" y="452" type="line"/>
      <point x="316" y="418" type="line"/>
      <point x="132" y="242" type="line"/>
      <point x="132" y="239" type="line"/>
      <point x="187" y="155"/>
      <point x="244" y="78"/>
      <point x="307" y="1" type="curve"/>
    </contour>
    <contour>
      <point x="57" y="-4" type="line"/>
      <point x="83" y="0" type="line"/>
      <point x="91" y="106" type="line"/>
      <point x="137" y="456" type="line"/>
      <point x="112" y="452" type="line"/>
      <point x="106" y="362" type="line"/>
    </contour>
    <contour>
      <point x="286" y="-144" type="line"/>
      <point x="327" y="-119"/>
      <point x="341" y="-97"/>
      <point x="353" y="-43" type="curve" smooth="yes"/>
      <point x="365" y="13" type="line"/>
      <point x="359" y="20" type="line"/>
      <point x="309" y="20" type="line"/>
      <point x="309" y="0" type="line"/>
      <point x="342" y="0" type="line"/>
      <point x="334" y="-40" type="line" smooth="yes"/>
      <point x="324" y="-88"/>
      <point x="309" y="-111"/>
      <point x="268" y="-135" type="curve"/>
      <point x="269" y="-141" type="line"/>
    </contour>
  </outline>
</glyph>
<glyph name="kabashkir-cy" format="2">
  <advance width="449"/>
  <unicode hex="04A1"/>
  <outline>
    <contour>
      <point x="441" y="452" type="line"/>
      <point x="412" y="452" type="line"/>
      <point x="381" y="418" type="line"/>
      <point x="204" y="244" type="line"/>
      <point x="203" y="238" type="line"/>
      <point x="260" y="154"/>
      <point x="319" y="72"/>
      <point x="381" y="-6" type="curve"/>
      <point x="384" y="-7" type="line"/>
      <point x="390" y="-5"/>
      <point x="395" y="-2"/>
      <point x="399" y="2" type="curve"/>
      <point x="399" y="5" type="line"/>
      <point x="340" y="78"/>
      <point x="281" y="158"/>
      <point x="228" y="240" type="curve"/>
    </contour>
    <contour>
      <point x="127" y="-4" type="line"/>
      <point x="153" y="0" type="line"/>
      <point x="161" y="106" type="line"/>
      <point x="207" y="456" type="line"/>
      <point x="182" y="452" type="line"/>
      <point x="176" y="362" type="line"/>
    </contour>
    <contour>
      <point x="35" y="433" type="line"/>
      <point x="104" y="433" type="line"/>
      <point x="197" y="433" type="line"/>
      <point x="201" y="452" type="line"/>
      <point x="38" y="452" type="line"/>
      <point x="33" y="436" type="line"/>
    </contour>
  </outline>
</glyph>
<glyph name="Enghe-cy" format="2">
  <advance width="810"/>
  <unicode hex="04A4"/>
  <outline>
    <contour>
      <point x="487" y="0" type="line"/>
      <point x="506" y="0" type="line"/>
      <point x="530" y="195" type="line"/>
      <point x="585" y="637" type="line"/>
      <point x="565" y="637" type="line"/>
      <point x="511" y="195" type="line"/>
    </contour>
    <contour>
      <point x="80" y="0" type="line"/>
      <point x="99" y="0" type="line"/>
      <point x="123" y="195" type="line"/>
      <point x="178" y="637" type="line"/>
      <point x="158" y="637" type="line"/>
      <point x="104" y="195" type="line"/>
    </contour>
    <contour>
      <point x="132" y="314" type="line"/>
      <point x="330" y="314" type="line"/>
      <point x="534" y="314" type="line"/>
      <point x="537" y="334" type="line"/>
      <point x="336" y="334" type="line"/>
      <point x="135" y="334" type="line"/>
    </contour>
    <contour>
      <point x="572" y="637" type="line"/>
      <point x="570" y="617" type="line"/>
      <point x="751" y="617" type="line"/>
      <point x="849" y="617" type="line"/>
      <point x="855" y="633" type="line"/>
      <point x="852" y="637" type="line"/>
    </contour>
  </outline>
</glyph>
<glyph name="hadescender-cy" format="2">
  <advance width="417"/>
  <unicode hex="04B3"/>
  <outline>
    <contour>
      <point x="211" y="229" type="line"/>
      <point x="389" y="452" type="line"/>
      <point x="361" y="452" type="line"/>
      <point x="337" y="418" type="line"/>
      <point x="199" y="249" type="line"/>
      <point x="108" y="423" type="line"/>
      <point x="93" y="456" type="line"/>
      <point x="72" y="448" type="line"/>
      <point x="186" y="233" type="line"/>
      <point x="-1" y="0" type="line"/>
      <point x="27" y="0" type="line"/>
      <point x="50" y="32" type="line"/>
      <point x="197" y="213" type="line"/>
      <point x="294" y="36" type="line"/>
      <point x="311" y="0" type="line"/>
      <point x="334" y="4" type="line"/>
    </contour>
    <contour>
      <point x="289" y="-144" type="line"/>
      <point x="330" y="-119"/>
      <point x="344" y="-97"/>
      <point x="356" y="-43" type="curve" smooth="yes"/>
      <point x="368" y="13" type="line"/>
      <point x="362" y="20" type="line"/>
      <point x="311" y="20" type="line"/>
      <point x="311" y="0" type="line"/>
      <point x="345" y="0" type="line"/>
      <point x="337" y="-40" type="line" smooth="yes"/>
      <point x="327" y="-88"/>
      <point x="312" y="-111"/>
      <point x="271" y="-135" type="curve"/>
      <point x="272" y="-141" type="line"/>
    </contour>
  </outline>
</glyph>
<glyph name="chedescender-cy" format="2">
  <advance width="413"/>
  <unicode hex="04B7"/>
  <anchor x="257" y="-4" name="bottomright"/>
  <outline>
    <contour>
      <point x="107" y="456" type="line"/>
      <point x="82" y="452" type="line"/>
      <point x="75" y="362" type="line"/>
      <point x="54" y="206" type="line"/>
      <point x="53" y="197" type="line"/>
      <point x="52" y="167"/>
      <point x="72" y="140"/>
      <point x="104" y="134" type="curve"/>
      <point x="115" y="134" type="line"/>
      <point x="161" y="150"/>
      <point x="202" y="178"/>
      <point x="286" y="250" type="curve"/>
      <point x="299" y="250" type="line"/>
      <point x="304" y="294" type="line"/>
      <point x="221" y="213"/>
      <point x="144" y="159"/>
      <point x="109" y="159" type="curve" smooth="yes"/>
      <point x="90" y="159"/>
      <point x="74" y="179"/>
      <point x="74" y="198" type="curve"/>
      <point x="74" y="209" type="line"/>
    </contour>
    <component base="_part.stemDescender-cy" xOffset="186"/>
  </outline>
</glyph>
<glyph name="Cheverticalstroke-cy" format="2">
  <advance width="539"/>
  <unicode hex="04B8"/>
  <outline>
    <contour>
      <point x="484" y="637" type="line"/>
      <point x="464" y="637" type="line"/>
      <point x="409" y="195" type="line"/>
      <point x="385" y="0" type="line"/>
      <point x="406" y="0" type="line"/>
      <point x="429" y="195" type="line"/>
    </contour>
    <contour>
      <point x="438" y="346" type="line"/>
      <point x="368" y="277"/>
      <point x="303" y="246"/>
      <point x="229" y="246" type="curve" smooth="yes"/>
      <point x="138" y="246"/>
      <point x="97" y="290"/>
      <point x="108" y="383" type="curve" smooth="yes"/>
      <point x="140" y="637" type="line"/>
      <point x="120" y="637" type="line"/>
      <point x="89" y="380" type="line" smooth="yes"/>
      <point x="76" y="274"/>
      <point x="122" y="226"/>
      <point x="233" y="226" type="curve"/>
      <point x="298" y="226"/>
      <point x="361" y="253"/>
      <point x="419" y="305" type="curve"/>
      <point x="434" y="305" type="line"/>
    </contour>
    <contour>
      <point x="232" y="135" type="line"/>
      <point x="249" y="137" type="line"/>
      <point x="288" y="454" type="line"/>
      <point x="285" y="457" type="line"/>
      <point x="269" y="455" type="line"/>
      <point x="230" y="138" type="line"/>
    </contour>
  </outline>
</glyph>
<glyph name="Obarred-cy" format="2">
  <advance width="599"/>
  <unicode hex="04E8"/>
  <outline>
    <contour>
      <point x="355" y="642" type="curve"/>
      <point x="165" y="642"/>
      <point x="56" y="495"/>
      <point x="56" y="253" type="curve" smooth="yes"/>
      <point x="56" y="89"/>
      <point x="130" y="-5"/>
      <point x="267" y="-5" type="curve" smooth="yes"/>
      <point x="459" y="-5"/>
      <point x="568" y="147"/>
      <point x="568" y="391" type="curve" smooth="yes"/>
      <point x="568" y="551"/>
      <point x="494" y="642"/>
    </contour>
    <contour>
      <point x="354" y="622" type="curve" smooth="yes"/>
      <point x="481" y="622"/>
      <point x="547" y="537"/>
      <point x="547" y="387" type="curve" smooth="yes"/>
      <point x="547" y="159"/>
      <point x="445" y="15"/>
      <point x="268" y="15" type="curve" smooth="yes"/>
      <point x="144" y="15"/>
      <point x="77" y="103"/>
      <point x="77" y="256" type="curve" smooth="yes"/>
      <point x="77" y="483"/>
      <point x="179" y="622"/>
    </contour>
    <contour>
      <point x="555" y="331" type="line"/>
      <point x="73" y="326" type="line"/>
      <point x="69" y="310" type="line"/>
      <point x="72" y="306" type="line"/>
      <point x="555" y="311" type="line"/>
      <point x="558" y="327" type="line"/>
    </contour>
  </outline>
</glyph>
<glyph name="gedescender-cy" format="2">
  <advance width="328"/>
  <unicode hex="04F7"/>
  <outline>
    <contour>
      <point x="138" y="-6" type="curve"/>
      <point x="195" y="1"/>
      <point x="233" y="29"/>
      <point x="259" y="82" type="curve"/>
      <point x="249" y="95" type="line"/>
      <point x="242" y="95" type="line"/>
      <point x="220" y="44"/>
      <point x="182" y="15"/>
      <point x="136" y="15" type="curve" smooth="yes"/>
      <point x="84" y="15"/>
      <point x="50" y="45"/>
      <point x="50" y="92" type="curve" smooth="yes"/>
      <point x="50" y="217"/>
      <point x="280" y="233"/>
      <point x="280" y="364" type="curve" smooth="yes"/>
      <point x="280" y="417"/>
      <point x="236" y="456"/>
      <point x="176" y="456" type="curve"/>
      <point x="126" y="451"/>
      <point x="88" y="425"/>
      <point x="64" y="382" type="curve"/>
      <point x="73" y="369" type="line"/>
      <point x="80" y="369" type="line"/>
      <point x="99" y="410"/>
      <point x="136" y="435"/>
      <point x="178" y="435" type="curve" smooth="yes"/>
      <point x="227" y="435"/>
      <point x="260" y="405"/>
      <point x="260" y="361" type="curve" smooth="yes"/>
      <point x="260" y="249"/>
      <point x="30" y="230"/>
      <point x="30" y="92" type="curve" smooth="yes"/>
      <point x="30" y="34"/>
      <point x="70" y="-2"/>
    </contour>
    <contour>
      <point x="167" y="-146" type="line"/>
      <point x="209" y="-120"/>
      <point x="224" y="-100"/>
      <point x="234" y="-47" type="curve" smooth="yes"/>
      <point x="259" y="82" type="line"/>
      <point x="242" y="82" type="line"/>
      <point x="215" y="-44" type="line" smooth="yes"/>
      <point x="205" y="-92"/>
      <point x="190" y="-113"/>
      <point x="149" y="-137" type="curve"/>
      <point x="150" y="-142" type="line"/>
    </contour>
  </outline>
</glyph>
<glyph name="Germandbls" format="2">
  <advance width="564"/>
  <unicode hex="1E9E"/>
  <outline>
    <contour>
      <point x="343" y="640" type="curve" smooth="yes"/>
      <point x="222" y="640"/>
      <point x="130" y="557"/>
      <point x="114" y="433" type="curve" smooth="yes"/>
      <point x="84" y="190" type="line"/>
      <point x="59" y="0" type="line"/>
      <point x="79" y="0" type="line"/>
      <point x="104" y="196" type="line"/>
      <point x="134" y="434" type="line" smooth="yes"/>
      <point x="148" y="546"/>
      <point x="230" y="620"/>
      <point x="340" y="620" type="curve" smooth="yes"/>
      <point x="393" y="620"/>
      <point x="445" y="606"/>
      <point x="499" y="575" type="curve"/>
      <point x="288" y="340" type="line"/>
      <point x="289" y="325" type="line"/>
      <point x="418" y="314"/>
      <point x="495" y="268"/>
      <point x="495" y="180" type="curve" smooth="yes"/>
      <point x="495" y="91"/>
      <point x="423" y="16"/>
      <point x="327" y="16" type="curve" smooth="yes"/>
      <point x="284" y="16"/>
      <point x="229" y="31"/>
      <point x="194" y="64" type="curve"/>
      <point x="189" y="62" type="line"/>
      <point x="184" y="43" type="line"/>
      <point x="221" y="12"/>
      <point x="279" y="-4"/>
      <point x="326" y="-4" type="curve" smooth="yes"/>
      <point x="429" y="-4"/>
      <point x="515" y="74"/>
      <point x="515" y="183" type="curve" smooth="yes"/>
      <point x="515" y="275"/>
      <point x="444" y="329"/>
      <point x="316" y="344" type="curve"/>
      <point x="525" y="575" type="line"/>
      <point x="523" y="586" type="line"/>
      <point x="459" y="623"/>
      <point x="402" y="640"/>
    </contour>
  </outline>
</glyph>
<glyph name="psili" format="2">
  <advance width="177"/>
  <unicode hex="1FBF"/>
  <anchor x="121" y="452" name="_top"/>
  <anchor x="144" y="572" name="top"/>
  <outline>
    <contour>
      <point x="131" y="672" type="curve"/>
      <point x="125" y="666"/>
      <point x="121" y="661"/>
      <point x="120" y="657" type="curve"/>
      <point x="119" y="653" type="line"/>
      <point x="141" y="648"/>
      <point x="152" y="635"/>
      <point x="152" y="619" type="curve" smooth="yes"/>
      <point x="152" y="596"/>
      <point x="135" y="568"/>
      <point x="98" y="533" type="curve"/>
      <point x="98" y="529" type="line"/>
      <point x="109" y="519" type="line"/>
      <point x="154" y="560"/>
      <point x="174" y="596"/>
      <point x="174" y="626" type="curve" smooth="yes"/>
      <point x="174" y="649"/>
      <point x="160" y="666"/>
    </contour>
  </outline>
</glyph>
<glyph name="dasiaperispomeni" format="2">
  <advance width="267"/>
  <unicode hex="1FDF"/>
  <anchor x="160" y="452" name="_top"/>
  <anchor x="186" y="664" name="top"/>
  <outline>
    <contour>
      <point x="186" y="503" type="curve"/>
      <point x="196" y="512" type="line"/>
      <point x="196" y="515" type="line"/>
      <point x="148" y="548"/>
      <point x="145" y="573"/>
      <point x="192" y="580" type="curve"/>
      <point x="192" y="584" type="line"/>
      <point x="191" y="586"/>
      <point x="188" y="590"/>
      <point x="184" y="595" type="curve"/>
      <point x="124" y="590"/>
      <point x="124" y="542"/>
    </contour>
    <contour>
      <point x="278" y="659" type="line"/>
      <point x="275" y="659" type="line"/>
      <point x="255" y="638"/>
      <point x="245" y="623"/>
      <point x="237" y="623" type="curve"/>
      <point x="219" y="623"/>
      <point x="151" y="653"/>
      <point x="123" y="656" type="curve"/>
      <point x="118" y="655" type="line"/>
      <point x="79" y="614" type="line"/>
      <point x="79" y="610" type="line"/>
      <point x="88" y="601" type="line"/>
      <point x="91" y="601" type="line"/>
      <point x="111" y="622"/>
      <point x="120" y="636"/>
      <point x="129" y="636" type="curve"/>
      <point x="147" y="636"/>
      <point x="215" y="607"/>
      <point x="243" y="603" type="curve"/>
      <point x="246" y="605" type="line"/>
      <point x="285" y="647" type="line"/>
      <point x="285" y="650" type="line"/>
    </contour>
  </outline>
</glyph>
<glyph name="dialytikavaria" format="2">
  <advance width="268"/>
  <unicode hex="1FED"/>
  <anchor x="166" y="452" name="_top"/>
  <outline>
    <contour>
      <point x="191" y="540" type="line"/>
      <point x="205" y="546" type="line"/>
      <point x="190" y="579"/>
      <point x="176" y="615"/>
      <point x="160" y="659" type="curve"/>
      <point x="155" y="660" type="line"/>
      <point x="142" y="656" type="line"/>
      <point x="140" y="650" type="line"/>
      <point x="186" y="541" type="line"/>
    </contour>
    <contour>
      <point x="111" y="554" type="curve" smooth="yes"/>
      <point x="123" y="554"/>
      <point x="131" y="562"/>
      <point x="131" y="574" type="curve" smooth="yes"/>
      <point x="131" y="586"/>
      <point x="123" y="594"/>
      <point x="111" y="594" type="curve" smooth="yes"/>
      <point x="99" y="594"/>
      <point x="91" y="586"/>
      <point x="91" y="574" type="curve" smooth="yes"/>
      <point x="91" y="562"/>
      <point x="99" y="554"/>
    </contour>
    <contour>
      <point x="251" y="554" type="curve" smooth="yes"/>
      <point x="263" y="554"/>
      <point x="271" y="562"/>
      <point x="271" y="574" type="curve" smooth="yes"/>
      <point x="271" y="586"/>
      <point x="263" y="594"/>
      <point x="251" y="594" type="curve" smooth="yes"/>
      <point x="239" y="594"/>
      <point x="231" y="586"/>
      <point x="231" y="574" type="curve" smooth="yes"/>
      <point x="231" y="562"/>
      <point x="239" y="554"/>
    </contour>
  </outline>
</glyph>
<glyph name="endash" format="2">
  <advance width="491.703"/>
  <unicode hex="2013"/>
  <outline>
    <contour>
      <point x="509" y="264" type="line"/>
      <point x="-8" y="264" type="line"/>
      <point x="-12" y="247" type="line"/>
      <point x="-10" y="244" type="line"/>
      <point x="507" y="244" type="line"/>
      <point x="511" y="261" type="line"/>
    </contour>
  </outline>
</glyph>
<glyph name="emdash" format="2">
  <advance width="971.703"/>
  <unicode hex="2014"/>
  <outline>
    <contour>
      <point x="989" y="264" type="line"/>
      <point x="-8" y="264" type="line"/>
      <point x="-12" y="247" type="line"/>
      <point x="-10" y="244" type="line"/>
      <point x="987" y="244" type="line"/>
      <point x="991" y="261" type="line"/>
    </contour>
  </outline>
</glyph>
<glyph name="dagger" format="2">
  <advance width="460.741"/>
  <unicode hex="2020"/>
  <outline>
    <contour>
      <point x="284" y="588" type="line"/>
      <point x="265" y="586" type="line"/>
      <point x="228" y="285" type="line"/>
      <point x="182" y="-90" type="line"/>
      <point x="185" y="-94" type="line"/>
      <point x="202" y="-94" type="line"/>
      <point x="248" y="285" type="line"/>
      <point x="285" y="586" type="line"/>
    </contour>
    <contour>
      <point x="435" y="394" type="line"/>
      <point x="68" y="394" type="line"/>
      <point x="64" y="377" type="line"/>
      <point x="66" y="374" type="line"/>
      <point x="433" y="374" type="line"/>
      <point x="437" y="391" type="line"/>
    </contour>
  </outline>
</glyph>
<glyph name="daggerdbl" format="2">
  <advance width="461.741"/>
  <unicode hex="2021"/>
  <outline>
    <contour>
      <point x="284" y="588" type="line"/>
      <point x="266" y="586" type="line"/>
      <point x="229" y="285" type="line"/>
      <point x="183" y="-90" type="line"/>
      <point x="185" y="-94" type="line"/>
      <point x="202" y="-94" type="line"/>
      <point x="249" y="285" type="line"/>
      <point x="286" y="586" type="line"/>
    </contour>
    <contour>
      <point x="401" y="120" type="line"/>
      <point x="34" y="120" type="line"/>
      <point x="30" y="103" type="line"/>
      <point x="33" y="100" type="line"/>
      <point x="400" y="100" type="line"/>
      <point x="404" y="117" type="line"/>
    </contour>
    <contour>
      <point x="435" y="394" type="line"/>
      <point x="68" y="394" type="line"/>
      <point x="64" y="377" type="line"/>
      <point x="66" y="374" type="line"/>
      <point x="433" y="374" type="line"/>
      <point x="438" y="391" type="line"/>
    </contour>
  </outline>
</glyph>
<glyph name="perthousand" format="2">
  <advance width="1171.65"/>
  <unicode hex="2030"/>
  <outline>
    <contour>
      <point x="162" y="516" type="move"/>
    </contour>
    <contour>
      <point x="669" y="669" type="line"/>
      <point x="93" y="-77" type="line"/>
      <point x="96" y="-86" type="line"/>
      <point x="104" y="-90" type="line"/>
      <point x="681" y="656" type="line"/>
      <point x="679" y="664" type="line"/>
    </contour>
    <contour>
      <point x="628" y="338.55" type="curve" smooth="yes"/>
      <point x="524" y="338.55"/>
      <point x="464" y="259.86"/>
      <point x="464" y="132.675" type="curve" smooth="yes"/>
      <point x="464" y="45.75"/>
      <point x="504" y="-2.745"/>
      <point x="580" y="-2.745" type="curve" smooth="yes"/>
      <point x="685" y="-2.745"/>
      <point x="743" y="76.86"/>
      <point x="743" y="203.13" type="curve" smooth="yes"/>
      <point x="743" y="290.055"/>
      <point x="703" y="338.55"/>
    </contour>
    <contour>
      <point x="623" y="320.25" type="curve" smooth="yes"/>
      <point x="690" y="320.25"/>
      <point x="725" y="277.245"/>
      <point x="725" y="199.47" type="curve" smooth="yes"/>
      <point x="725" y="85.095"/>
      <point x="673" y="15.555"/>
      <point x="585" y="15.555" type="curve" smooth="yes"/>
      <point x="518" y="15.555"/>
      <point x="483" y="59.475"/>
      <point x="483" y="137.25" type="curve" smooth="yes"/>
      <point x="483" y="250.71"/>
      <point x="534" y="320.25"/>
    </contour>
    <contour>
      <point x="1001" y="338.55" type="curve" smooth="yes"/>
      <point x="897" y="338.55"/>
      <point x="837" y="259.86"/>
      <point x="837" y="132.675" type="curve" smooth="yes"/>
      <point x="837" y="45.75"/>
      <point x="877" y="-2.745"/>
      <point x="953" y="-2.745" type="curve" smooth="yes"/>
      <point x="1058" y="-2.745"/>
      <point x="1116" y="76.86"/>
      <point x="1116" y="203.13" type="curve" smooth="yes"/>
      <point x="1116" y="290.055"/>
      <point x="1076" y="338.55"/>
    </contour>
    <contour>
      <point x="996" y="320.25" type="curve" smooth="yes"/>
      <point x="1063" y="320.25"/>
      <point x="1098" y="277.245"/>
      <point x="1098" y="199.47" type="curve" smooth="yes"/>
      <point x="1098" y="85.095"/>
      <point x="1046" y="15.555"/>
      <point x="958" y="15.555" type="curve" smooth="yes"/>
      <point x="891" y="15.555"/>
      <point x="856" y="59.475"/>
      <point x="856" y="137.25" type="curve" smooth="yes"/>
      <point x="856" y="250.71"/>
      <point x="907" y="320.25"/>
    </contour>
    <contour>
      <point x="242" y="637.55" type="curve" smooth="yes"/>
      <point x="138" y="637.55"/>
      <point x="78" y="558.86"/>
      <point x="78" y="431.675" type="curve" smooth="yes"/>
      <point x="78" y="344.75"/>
      <point x="118" y="296.255"/>
      <point x="194" y="296.255" type="curve" smooth="yes"/>
      <point x="299" y="296.255"/>
      <point x="357" y="375.86"/>
      <point x="357" y="502.13" type="curve" smooth="yes"/>
      <point x="357" y="589.055"/>
      <point x="317" y="637.55"/>
    </contour>
    <contour>
      <point x="237" y="619.25" type="curve" smooth="yes"/>
      <point x="304" y="619.25"/>
      <point x="339" y="576.245"/>
      <point x="339" y="498.47" type="curve" smooth="yes"/>
      <point x="339" y="384.095"/>
      <point x="287" y="314.555"/>
      <point x="199" y="314.555" type="curve" smooth="yes"/>
      <point x="132" y="314.555"/>
      <point x="97" y="358.475"/>
      <point x="97" y="436.25" type="curve" smooth="yes"/>
      <point x="97" y="549.71"/>
      <point x="148" y="619.25"/>
    </contour>
  </outline>
</glyph>
<glyph name="minute" format="2">
  <advance width="125.272"/>
  <unicode hex="2032"/>
  <outline>
    <contour>
      <point x="127" y="635" type="line"/>
      <point x="109" y="633" type="line"/>
      <point x="80" y="489" type="line"/>
      <point x="82" y="485" type="line"/>
      <point x="99" y="487" type="line"/>
      <point x="129" y="631" type="line"/>
    </contour>
  </outline>
</glyph>
<glyph name="second" format="2">
  <advance width="200.272"/>
  <unicode hex="2033"/>
  <outline>
    <contour>
      <point x="202" y="635" type="line"/>
      <point x="184" y="633" type="line"/>
      <point x="155" y="489" type="line"/>
      <point x="157" y="485" type="line"/>
      <point x="174" y="487" type="line"/>
      <point x="204" y="631" type="line"/>
    </contour>
    <contour>
      <point x="127" y="635" type="line"/>
      <point x="109" y="633" type="line"/>
      <point x="80" y="489" type="line"/>
      <point x="82" y="485" type="line"/>
      <point x="99" y="487" type="line"/>
      <point x="129" y="631" type="line"/>
    </contour>
  </outline>
</glyph>
<glyph name="fraction" format="2">
  <advance width="46.2026"/>
  <unicode hex="2044"/>
  <outline>
    <contour>
      <point x="294" y="669" type="line"/>
      <point x="-282" y="-77" type="line"/>
      <point x="-279" y="-86" type="line"/>
      <point x="-271" y="-90" type="line"/>
      <point x="306" y="656" type="line"/>
      <point x="304" y="664" type="line"/>
    </contour>
  </outline>
</glyph>
<glyph name="colonsign" format="2">
  <advance width="469"/>
  <unicode hex="20A1"/>
  <anchor x="236" y="0" name="bottom"/>
  <anchor x="292" y="491" name="top"/>
  <outline>
    <contour>
      <point x="274" y="482" type="line"/>
      <point x="253" y="481" type="line"/>
      <point x="162" y="6" type="line"/>
      <point x="182" y="6" type="line"/>
    </contour>
    <contour>
      <point x="182" y="6" type="line"/>
      <point x="162" y="6" type="line"/>
      <point x="139" y="-122" type="line"/>
      <point x="142" y="-125" type="line"/>
      <point x="157" y="-125" type="line"/>
    </contour>
    <contour>
      <point x="299" y="640" type="line"/>
      <point x="283" y="639" type="line"/>
      <point x="253" y="481" type="line"/>
      <point x="274" y="482" type="line"/>
      <point x="302" y="635" type="line"/>
    </contour>
    <contour>
      <point x="370" y="483" type="line"/>
      <point x="349" y="483" type="line"/>
      <point x="258" y="7" type="line"/>
      <point x="278" y="8" type="line"/>
    </contour>
    <contour>
      <point x="278" y="8" type="line"/>
      <point x="258" y="7" type="line"/>
      <point x="235" y="-120" type="line"/>
      <point x="238" y="-124" type="line"/>
      <point x="253" y="-124" type="line"/>
    </contour>
    <contour>
      <point x="395" y="641" type="line"/>
      <point x="379" y="641" type="line"/>
      <point x="349" y="483" type="line"/>
      <point x="370" y="483" type="line"/>
      <point x="399" y="637" type="line"/>
    </contour>
    <contour>
      <point x="312" y="494" type="curve" smooth="yes"/>
      <point x="152" y="494"/>
      <point x="59" y="384"/>
      <point x="59" y="200" type="curve" smooth="yes"/>
      <point x="59" y="70"/>
      <point x="122" y="-4"/>
      <point x="242" y="-4" type="curve" smooth="yes"/>
      <point x="293" y="-4"/>
      <point x="350" y="14"/>
      <point x="400" y="46" type="curve"/>
      <point x="404" y="64" type="line"/>
      <point x="399" y="66" type="line"/>
      <point x="352" y="34"/>
      <point x="295" y="15"/>
      <point x="243" y="15" type="curve" smooth="yes"/>
      <point x="137" y="15"/>
      <point x="80" y="82"/>
      <point x="80" y="202" type="curve" smooth="yes"/>
      <point x="80" y="373"/>
      <point x="162" y="475"/>
      <point x="310" y="475" type="curve" smooth="yes"/>
      <point x="358" y="475"/>
      <point x="403" y="459"/>
      <point x="437" y="432" type="curve"/>
      <point x="443" y="432" type="line"/>
      <point x="451" y="450" type="line"/>
      <point x="414" y="478"/>
      <point x="363" y="494"/>
    </contour>
  </outline>
</glyph>
<glyph name="euro" format="2">
  <advance width="506.496"/>
  <unicode hex="20AC"/>
  <outline>
    <contour>
      <point x="350" y="494" type="curve" smooth="yes"/>
      <point x="228" y="494"/>
      <point x="145" y="424"/>
      <point x="113" y="297" type="curve"/>
      <point x="135" y="297" type="line"/>
      <point x="165" y="412"/>
      <point x="237" y="474"/>
      <point x="346" y="474" type="curve" smooth="yes"/>
      <point x="393" y="474"/>
      <point x="437" y="459"/>
      <point x="469" y="432" type="curve"/>
      <point x="475" y="432" type="line"/>
      <point x="483" y="450" type="line"/>
      <point x="448" y="478"/>
      <point x="399" y="494"/>
    </contour>
    <contour>
      <point x="135" y="297" type="curve"/>
      <point x="113" y="297" type="line"/>
      <point x="104" y="256"/>
      <point x="100" y="215"/>
      <point x="100" y="172" type="curve"/>
      <point x="122" y="172" type="line"/>
      <point x="121" y="215"/>
      <point x="125" y="256"/>
    </contour>
    <contour>
      <point x="122" y="172" type="curve"/>
      <point x="100" y="172" type="line"/>
      <point x="105" y="59"/>
      <point x="165" y="-4"/>
      <point x="275" y="-4" type="curve" smooth="yes"/>
      <point x="325" y="-4"/>
      <point x="382" y="14"/>
      <point x="430" y="46" type="curve"/>
      <point x="434" y="64" type="line"/>
      <point x="428" y="66" type="line"/>
      <point x="383" y="34"/>
      <point x="328" y="16"/>
      <point x="278" y="16" type="curve" smooth="yes"/>
      <point x="181" y="16"/>
      <point x="128" y="71"/>
    </contour>
    <contour>
      <point x="355" y="307" type="line"/>
      <point x="36" y="307" type="line"/>
      <point x="32" y="290" type="line"/>
      <point x="34" y="287" type="line"/>
      <point x="353" y="287" type="line"/>
      <point x="357" y="304" type="line"/>
    </contour>
    <contour>
      <point x="340" y="184" type="line"/>
      <point x="21" y="184" type="line"/>
      <point x="16" y="167" type="line"/>
      <point x="19" y="164" type="line"/>
      <point x="338" y="164" type="line"/>
      <point x="342" y="181" type="line"/>
    </contour>
  </outline>
</glyph>
<glyph name="kip" format="2">
  <advance width="439"/>
  <unicode hex="20AD"/>
  <anchor x="201" y="0" name="bottom"/>
  <anchor x="245" y="491" name="top"/>
  <outline>
    <contour>
      <point x="323" y="270" type="line"/>
      <point x="56" y="270" type="line"/>
      <point x="52" y="253" type="line"/>
      <point x="55" y="250" type="line"/>
      <point x="322" y="250" type="line"/>
      <point x="326" y="267" type="line"/>
    </contour>
    <contour>
      <point x="453" y="491" type="line"/>
      <point x="424" y="491" type="line"/>
      <point x="385" y="454" type="line"/>
      <point x="159" y="263" type="line"/>
      <point x="159" y="260" type="line"/>
      <point x="228" y="169"/>
      <point x="307" y="79"/>
      <point x="386" y="-4" type="curve"/>
      <point x="390" y="-6" type="line"/>
      <point x="395" y="-4"/>
      <point x="403" y="-2"/>
      <point x="406" y="1" type="curve"/>
      <point x="408" y="5" type="line"/>
      <point x="329" y="84"/>
      <point x="251" y="174"/>
      <point x="185" y="262" type="curve"/>
    </contour>
    <contour>
      <point x="164" y="491" type="line"/>
      <point x="144" y="491" type="line"/>
      <point x="102" y="150" type="line"/>
      <point x="84" y="0" type="line"/>
      <point x="104" y="0" type="line"/>
      <point x="122" y="151" type="line"/>
    </contour>
  </outline>
</glyph>
<glyph name="guarani" format="2">
  <advance width="466"/>
  <unicode hex="20B2"/>
  <anchor x="216" y="0" name="bottom"/>
  <anchor x="292" y="491" name="top"/>
  <outline>
    <contour>
      <point x="296" y="482" type="line"/>
      <point x="275" y="482" type="line"/>
      <point x="177" y="7" type="line"/>
      <point x="197" y="7" type="line"/>
    </contour>
    <contour>
      <point x="197" y="7" type="line"/>
      <point x="177" y="7" type="line"/>
      <point x="150" y="-120" type="line"/>
      <point x="153" y="-124" type="line"/>
      <point x="168" y="-124" type="line"/>
    </contour>
    <contour>
      <point x="324" y="640" type="line"/>
      <point x="308" y="640" type="line"/>
      <point x="275" y="482" type="line"/>
      <point x="296" y="482" type="line"/>
      <point x="328" y="635" type="line"/>
    </contour>
    <contour>
      <point x="309" y="494" type="curve" smooth="yes"/>
      <point x="134" y="494"/>
      <point x="32" y="386"/>
      <point x="32" y="199" type="curve" smooth="yes"/>
      <point x="32" y="70"/>
      <point x="97" y="-3"/>
      <point x="219" y="-3" type="curve" smooth="yes"/>
      <point x="279" y="-3"/>
      <point x="320" y="4"/>
      <point x="395" y="23" type="curve"/>
      <point x="407" y="123" type="line"/>
      <point x="414" y="185" type="line"/>
      <point x="394" y="183" type="line"/>
      <point x="387" y="122" type="line"/>
      <point x="376" y="37" type="line"/>
      <point x="307" y="20"/>
      <point x="273" y="15"/>
      <point x="222" y="15" type="curve" smooth="yes"/>
      <point x="112" y="15"/>
      <point x="53" y="82"/>
      <point x="53" y="201" type="curve" smooth="yes"/>
      <point x="53" y="374"/>
      <point x="145" y="475"/>
      <point x="307" y="475" type="curve" smooth="yes"/>
      <point x="350" y="475"/>
      <point x="396" y="460"/>
      <point x="439" y="435" type="curve"/>
      <point x="444" y="435" type="line"/>
      <point x="452" y="453" type="line"/>
      <point x="408" y="480"/>
      <point x="356" y="494"/>
    </contour>
  </outline>
</glyph>
<glyph name="tenge" format="2">
  <advance width="514"/>
  <unicode hex="20B8"/>
  <outline>
    <contour>
      <point x="221" y="0" type="line"/>
      <point x="240" y="0" type="line"/>
      <point x="259" y="151" type="line"/>
      <point x="286" y="371" type="line"/>
      <point x="266" y="371" type="line"/>
      <point x="239" y="150" type="line"/>
    </contour>
    <contour>
      <point x="115" y="470" type="line"/>
      <point x="459" y="470" type="line"/>
      <point x="465" y="486" type="line"/>
      <point x="462" y="491" type="line"/>
      <point x="118" y="491" type="line"/>
      <point x="111" y="475" type="line"/>
    </contour>
    <contour>
      <point x="102" y="364" type="line"/>
      <point x="446" y="364" type="line"/>
      <point x="452" y="380" type="line"/>
      <point x="449" y="385" type="line"/>
      <point x="105" y="385" type="line"/>
      <point x="98" y="369" type="line"/>
    </contour>
  </outline>
</glyph>
<glyph name="manat" format="2">
  <advance width="673"/>
  <unicode hex="20BC"/>
  <outline>
    <contour>
      <point x="23" y="0" type="curve"/>
      <point x="43" y="3" type="line"/>
      <point x="80" y="302"/>
      <point x="199" y="479"/>
      <point x="372" y="479" type="curve" smooth="yes"/>
      <point x="540" y="479"/>
      <point x="612" y="309"/>
      <point x="574" y="0" type="curve"/>
      <point x="594" y="3" type="line"/>
      <point x="633" y="319"/>
      <point x="555" y="499"/>
      <point x="374" y="499" type="curve" smooth="yes"/>
      <point x="187" y="499"/>
      <point x="61" y="312"/>
    </contour>
    <contour>
      <point x="318" y="92" type="line"/>
      <point x="331" y="97" type="line"/>
      <point x="396" y="594" type="line"/>
      <point x="388" y="599" type="line"/>
      <point x="373" y="596" type="line"/>
      <point x="311" y="96" type="line"/>
    </contour>
  </outline>
</glyph>
<glyph name="ruble" format="2">
  <advance width="420"/>
  <unicode hex="20BD"/>
  <anchor x="187" y="0" name="bottom"/>
  <anchor x="248" y="494" name="top"/>
  <outline>
    <contour>
      <point x="266" y="492" type="curve"/>
      <point x="147" y="491" type="line"/>
      <point x="152" y="473" type="line"/>
      <point x="268" y="474" type="line"/>
      <point x="341" y="470"/>
      <point x="380" y="434"/>
      <point x="380" y="370" type="curve" smooth="yes"/>
      <point x="380" y="284"/>
      <point x="325" y="227"/>
      <point x="231" y="219" type="curve"/>
      <point x="124" y="219" type="line"/>
      <point x="122" y="200" type="line"/>
      <point x="204" y="200" type="line"/>
      <point x="328" y="200"/>
      <point x="401" y="263"/>
      <point x="401" y="374" type="curve" smooth="yes"/>
      <point x="401" y="450"/>
      <point x="354" y="492"/>
    </contour>
    <contour>
      <point x="167" y="491" type="line"/>
      <point x="147" y="491" type="line"/>
      <point x="105" y="150" type="line"/>
      <point x="87" y="0" type="line"/>
      <point x="107" y="0" type="line"/>
      <point x="126" y="151" type="line"/>
    </contour>
    <contour>
      <point x="239" y="106" type="line"/>
      <point x="30" y="106" type="line"/>
      <point x="26" y="89" type="line"/>
      <point x="29" y="86" type="line"/>
      <point x="238" y="86" type="line"/>
      <point x="242" y="103" type="line"/>
    </contour>
  </outline>
</glyph>
<glyph name="literSign" format="2">
  <advance width="238"/>
  <unicode hex="2113"/>
  <anchor x="90" y="0" name="bottom"/>
  <anchor x="178" y="700" name="top"/>
  <anchor x="272" y="452" name="topright"/>
  <outline>
    <contour>
      <point x="191" y="702" type="line"/>
      <point x="165" y="698" type="line"/>
      <point x="159" y="608" type="line"/>
      <point x="77" y="-4" type="line"/>
      <point x="103" y="0" type="line"/>
      <point x="112" y="106" type="line"/>
    </contour>
  </outline>
</glyph>
<glyph name="trademark" format="2">
  <advance width="574.022"/>
  <unicode hex="2122"/>
  <outline>
    <contour>
      <point x="537" y="637" type="line"/>
      <point x="514" y="637" type="line"/>
      <point x="497" y="604" type="line"/>
      <point x="412" y="460" type="line"/>
      <point x="411" y="460" type="line"/>
      <point x="367" y="602" type="line"/>
      <point x="357" y="637" type="line"/>
      <point x="333" y="637" type="line"/>
      <point x="278" y="405" type="line"/>
      <point x="296" y="405" type="line"/>
      <point x="312" y="478" type="line"/>
      <point x="343" y="603" type="line"/>
      <point x="345" y="603" type="line"/>
      <point x="399" y="433" type="line"/>
      <point x="417" y="433" type="line"/>
      <point x="515" y="603" type="line"/>
      <point x="518" y="603" type="line"/>
      <point x="517" y="476" type="line"/>
      <point x="517" y="405" type="line"/>
      <point x="534" y="405" type="line"/>
    </contour>
    <contour>
      <point x="177" y="633" type="line"/>
      <point x="158" y="633" type="line"/>
      <point x="138" y="475" type="line"/>
      <point x="130" y="405" type="line"/>
      <point x="149" y="405" type="line"/>
      <point x="156" y="477" type="line"/>
    </contour>
    <contour>
      <point x="251" y="637" type="line"/>
      <point x="83" y="637" type="line"/>
      <point x="79" y="622" type="line"/>
      <point x="81" y="620" type="line"/>
      <point x="124" y="621" type="line"/>
      <point x="207" y="621" type="line"/>
      <point x="249" y="620" type="line"/>
      <point x="253" y="635" type="line"/>
    </contour>
  </outline>
</glyph>
<glyph name="downArrow" format="2">
  <advance width="500"/>
  <unicode hex="2193"/>
  <outline>
    <contour>
      <point x="435" y="204" type="line"/>
      <point x="429" y="204" type="line"/>
      <point x="249" y="27" type="line"/>
      <point x="69" y="204" type="line"/>
      <point x="63" y="204" type="line"/>
      <point x="55" y="190" type="line"/>
      <point x="247" y="0" type="line"/>
      <point x="251" y="0" type="line"/>
      <point x="443" y="190" type="line"/>
    </contour>
    <contour>
      <point x="241" y="454" type="line"/>
      <point x="239" y="452" type="line"/>
      <point x="239" y="17" type="line"/>
      <point x="259" y="17" type="line"/>
      <point x="259" y="452" type="line"/>
    </contour>
  </outline>
</glyph>
<glyph name="upDownArrow" format="2">
  <advance width="527"/>
  <unicode hex="2195"/>
  <outline>
    <contour>
      <point x="80" y="318" type="line"/>
      <point x="86" y="318" type="line"/>
      <point x="266" y="495" type="line"/>
      <point x="446" y="318" type="line"/>
      <point x="452" y="318" type="line"/>
      <point x="460" y="332" type="line"/>
      <point x="268" y="522" type="line"/>
      <point x="264" y="522" type="line"/>
      <point x="72" y="332" type="line"/>
    </contour>
    <contour>
      <point x="264" y="-80" type="line"/>
      <point x="268" y="-80" type="line"/>
      <point x="460" y="110" type="line"/>
      <point x="452" y="124" type="line"/>
      <point x="446" y="124" type="line"/>
      <point x="266" y="-53" type="line"/>
      <point x="86" y="124" type="line"/>
      <point x="80" y="124" type="line"/>
      <point x="72" y="110" type="line"/>
    </contour>
    <contour>
      <point x="256" y="-63" type="line"/>
      <point x="276" y="-63" type="line"/>
      <point x="276" y="505" type="line"/>
      <point x="256" y="505" type="line"/>
    </contour>
  </outline>
</glyph>
<glyph name="radical" format="2">
  <advance width="519.572"/>
  <unicode hex="221A"/>
  <outline>
    <contour>
      <point x="585" y="710" type="line"/>
      <point x="566" y="710" type="line"/>
      <point x="561" y="707" type="line"/>
      <point x="209" y="31" type="line"/>
      <point x="205" y="31" type="line"/>
      <point x="115" y="448" type="line"/>
      <point x="111" y="452" type="line"/>
      <point x="11" y="452" type="line"/>
      <point x="7" y="435" type="line"/>
      <point x="9" y="432" type="line"/>
      <point x="97" y="432" type="line"/>
      <point x="192" y="0" type="line"/>
      <point x="214" y="0" type="line"/>
    </contour>
  </outline>
</glyph>
<glyph name="whiteSquare" format="2">
  <advance width="453"/>
  <unicode hex="25A1"/>
  <outline>
    <contour>
      <point x="63" y="66" type="line"/>
      <point x="389" y="66" type="line"/>
      <point x="389" y="392" type="line"/>
      <point x="63" y="392" type="line"/>
    </contour>
    <contour>
      <point x="93" y="96" type="line"/>
      <point x="93" y="362" type="line"/>
      <point x="359" y="362" type="line"/>
      <point x="359" y="96" type="line"/>
    </contour>
  </outline>
</glyph>
<glyph name="rightBlackTriangle" format="2">
  <advance width="402"/>
  <unicode hex="25B6"/>
  <outline>
    <contour>
      <point x="101" y="86" type="line"/>
      <point x="371" y="221" type="line"/>
      <point x="101" y="356" type="line"/>
    </contour>
  </outline>
</glyph>
<glyph name="rightWhiteTriangle" format="2">
  <advance width="454"/>
  <unicode hex="25B7"/>
  <outline>
    <contour>
      <point x="104" y="63" type="line"/>
      <point x="423" y="221" type="line"/>
      <point x="104" y="380" type="line"/>
    </contour>
    <contour>
      <point x="134" y="109" type="line"/>
      <point x="134" y="332" type="line"/>
      <point x="355" y="221" type="line"/>
    </contour>
  </outline>
</glyph>
<glyph name="downWhiteTriangle" format="2">
  <advance width="449"/>
  <unicode hex="25BD"/>
  <outline>
    <contour>
      <point x="226" y="43" type="line"/>
      <point x="385" y="361" type="line"/>
      <point x="68" y="361" type="line"/>
    </contour>
    <contour>
      <point x="226" y="110" type="line"/>
      <point x="114" y="331" type="line"/>
      <point x="338" y="331" type="line"/>
    </contour>
  </outline>
</glyph>
<glyph name="leftWhiteTriangle" format="2">
  <advance width="453"/>
  <unicode hex="25C1"/>
  <outline>
    <contour>
      <point x="349" y="62" type="line"/>
      <point x="349" y="379" type="line"/>
      <point x="31" y="221" type="line"/>
    </contour>
    <contour>
      <point x="320" y="110" type="line"/>
      <point x="98" y="221" type="line"/>
      <point x="320" y="333" type="line"/>
    </contour>
  </outline>
</glyph>
<glyph name="mediumBlackSquare" format="2">
  <advance width="442"/>
  <unicode hex="25FC"/>
  <outline>
    <contour>
      <point x="0" y="0" type="line"/>
      <point x="442" y="0" type="line"/>
      <point x="442" y="442" type="line"/>
      <point x="0" y="442" type="line"/>
    </contour>
  </outline>
</glyph>
<glyph name="leftanglebracket-math" format="2">
  <advance width="254"/>
  <unicode hex="27E8"/>
  <outline>
    <contour>
      <point x="143" y="-139" type="line"/>
      <point x="159" y="-133" type="line"/>
      <point x="62" y="253" type="line"/>
      <point x="254" y="639" type="line"/>
      <point x="239" y="645" type="line"/>
      <point x="235" y="643" type="line"/>
      <point x="45" y="259" type="line"/>
      <point x="44" y="247" type="line"/>
      <point x="140" y="-137" type="line"/>
    </contour>
  </outline>
</glyph>
<glyph name="rightanglebracket-math" format="2">
  <advance width="255"/>
  <unicode hex="27E9"/>
  <outline>
    <contour>
      <point x="22" y="-139" type="line"/>
      <point x="27" y="-137" type="line"/>
      <point x="217" y="247" type="line"/>
      <point x="218" y="259" type="line"/>
      <point x="122" y="643" type="line"/>
      <point x="118" y="645" type="line"/>
      <point x="103" y="639" type="line"/>
      <point x="199" y="253" type="line"/>
      <point x="8" y="-133" type="line"/>
    </contour>
  </outline>
</glyph>
<glyph name="saltillo" format="2">
  <advance width="74.419"/>
  <unicode hex="A78C"/>
  <outline>
    <contour>
      <point x="81" y="536" type="line"/>
      <point x="63" y="533" type="line"/>
      <point x="34" y="299" type="line"/>
      <point x="36" y="292" type="line"/>
      <point x="53" y="295" type="line"/>
      <point x="83" y="529" type="line"/>
    </contour>
    <contour>
      <point x="50" y="343" type="move"/>
    </contour>
  </outline>
</glyph>
<glyph name="Alpha.sups" format="2">
  <advance width="358"/>
  <anchor x="204" y="348" name="bottom"/>
  <anchor x="371" y="348" name="ogonek"/>
  <anchor x="254" y="756" name="top"/>
  <anchor x="145" y="756" name="topleft"/>
  <outline>
    <contour>
      <point x="262" y="756" type="line"/>
      <point x="239" y="756" type="line"/>
      <point x="32" y="348" type="line"/>
      <point x="55" y="348" type="line"/>
      <point x="69" y="379" type="line"/>
      <point x="245" y="728" type="line"/>
      <point x="248" y="728" type="line"/>
      <point x="326" y="378" type="line"/>
      <point x="330" y="348" type="line"/>
      <point x="353" y="348" type="line"/>
    </contour>
    <contour>
      <point x="311" y="499" type="line"/>
      <point x="212" y="498" type="line"/>
      <point x="116" y="499" type="line"/>
      <point x="111" y="479" type="line"/>
      <point x="207" y="479" type="line"/>
      <point x="311" y="479" type="line"/>
    </contour>
  </outline>
</glyph>
<glyph name="Beta.sups" format="2">
  <advance width="338"/>
  <outline>
    <contour>
      <point x="227" y="757" type="curve"/>
      <point x="144" y="756" type="line"/>
      <point x="150" y="737" type="line"/>
      <point x="176" y="738"/>
      <point x="202" y="738"/>
      <point x="227" y="738" type="curve" smooth="yes"/>
      <point x="274" y="738"/>
      <point x="300" y="712"/>
      <point x="300" y="671" type="curve" smooth="yes"/>
      <point x="300" y="617"/>
      <point x="271" y="579"/>
      <point x="219" y="568" type="curve"/>
      <point x="129" y="570" type="line"/>
      <point x="127" y="549" type="line"/>
      <point x="223" y="549" type="line"/>
      <point x="276" y="545"/>
      <point x="305" y="517"/>
      <point x="305" y="473" type="curve" smooth="yes"/>
      <point x="305" y="405"/>
      <point x="255" y="365"/>
      <point x="166" y="365" type="curve" smooth="yes"/>
      <point x="147" y="365"/>
      <point x="123" y="366"/>
      <point x="104" y="368" type="curve"/>
      <point x="92" y="348" type="line"/>
      <point x="114" y="347"/>
      <point x="147" y="346"/>
      <point x="165" y="346" type="curve" smooth="yes"/>
      <point x="270" y="346"/>
      <point x="327" y="394"/>
      <point x="327" y="475" type="curve" smooth="yes"/>
      <point x="327" y="524"/>
      <point x="299" y="553"/>
      <point x="249" y="562" type="curve"/>
      <point x="295" y="580"/>
      <point x="322" y="618"/>
      <point x="322" y="675" type="curve" smooth="yes"/>
      <point x="322" y="728"/>
      <point x="288" y="757"/>
    </contour>
    <contour>
      <point x="165" y="756" type="line"/>
      <point x="144" y="756" type="line"/>
      <point x="109" y="473" type="line"/>
      <point x="92" y="348" type="line"/>
      <point x="113" y="348" type="line"/>
      <point x="129" y="473" type="line"/>
    </contour>
  </outline>
</glyph>
<glyph name="Chi.sups" format="2">
  <advance width="360"/>
  <outline>
    <contour>
      <point x="390" y="756" type="line"/>
      <point x="364" y="756" type="line"/>
      <point x="346" y="729" type="line"/>
      <point x="223" y="575" type="line"/>
      <point x="138" y="732" type="line"/>
      <point x="127" y="756" type="line"/>
      <point x="101" y="756" type="line"/>
      <point x="207" y="559" type="line"/>
      <point x="40" y="348" type="line"/>
      <point x="65" y="348" type="line"/>
      <point x="83" y="373" type="line"/>
      <point x="218" y="543" type="line"/>
      <point x="311" y="374" type="line"/>
      <point x="323" y="348" type="line"/>
      <point x="348" y="348" type="line"/>
      <point x="235" y="559" type="line"/>
    </contour>
  </outline>
</glyph>
<glyph name="D.ss01" format="2">
  <advance width="685"/>
  <anchor x="301" y="0" name="bottom"/>
  <anchor x="340" y="319" name="center"/>
  <anchor x="379" y="637" name="top"/>
  <outline>
    <contour>
      <point x="283" y="0" type="line"/>
      <point x="468" y="0"/>
      <point x="586" y="121"/>
      <point x="612" y="338" type="curve" smooth="yes"/>
      <point x="637" y="535"/>
      <point x="550" y="637"/>
      <point x="371" y="637" type="curve"/>
      <point x="170" y="637" type="line"/>
      <point x="179" y="617" type="line"/>
      <point x="369" y="617" type="line"/>
      <point x="535" y="617"/>
      <point x="615" y="521"/>
      <point x="593" y="340" type="curve" smooth="yes"/>
      <point x="567" y="134"/>
      <point x="457" y="20"/>
      <point x="285" y="20" type="curve"/>
      <point x="105" y="20" type="line"/>
      <point x="92" y="0" type="line"/>
    </contour>
    <contour>
      <point x="-79" y="0" type="line"/>
      <point x="686" y="0" type="line"/>
      <point x="688" y="20" type="line"/>
      <point x="-77" y="20" type="line"/>
    </contour>
    <contour>
      <point x="92" y="0" type="line"/>
      <point x="112" y="0" type="line"/>
      <point x="136" y="195" type="line"/>
      <point x="190" y="637" type="line"/>
      <point x="170" y="637" type="line"/>
      <point x="116" y="195" type="line"/>
    </contour>
    <contour>
      <point x="-3" y="617" type="line"/>
      <point x="762" y="617" type="line"/>
      <point x="764" y="637" type="line"/>
      <point x="-1" y="637" type="line"/>
    </contour>
  </outline>
</glyph>
<glyph name="Delta.sups" format="2">
  <advance width="350"/>
  <outline>
    <contour>
      <point x="35" y="348" type="line"/>
      <point x="342" y="348" type="line"/>
      <point x="344" y="364" type="line"/>
      <point x="256" y="756" type="line"/>
      <point x="233" y="756" type="line"/>
      <point x="37" y="364" type="line"/>
    </contour>
    <contour>
      <point x="58" y="367" type="line"/>
      <point x="239" y="728" type="line"/>
      <point x="242" y="728" type="line"/>
      <point x="322" y="367" type="line"/>
    </contour>
  </outline>
</glyph>
<glyph name="Epsilon.sups" format="2">
  <advance width="318"/>
  <anchor x="210" y="348" name="bottom"/>
  <anchor x="285" y="354" name="ogonek"/>
  <anchor x="226" y="756" name="top"/>
  <anchor x="78" y="756" name="topleft"/>
  <outline>
    <contour>
      <point x="166" y="756" type="line"/>
      <point x="144" y="756" type="line"/>
      <point x="110" y="473" type="line"/>
      <point x="93" y="348" type="line"/>
      <point x="114" y="348" type="line"/>
      <point x="130" y="473" type="line"/>
    </contour>
    <contour>
      <point x="296" y="368" type="line"/>
      <point x="198" y="367" type="line"/>
      <point x="110" y="367" type="line"/>
      <point x="105" y="351" type="line"/>
      <point x="108" y="348" type="line"/>
      <point x="293" y="348" type="line"/>
      <point x="298" y="365" type="line"/>
    </contour>
    <contour>
      <point x="288" y="569" type="line"/>
      <point x="221" y="568" type="line"/>
      <point x="135" y="569" type="line"/>
      <point x="131" y="552" type="line"/>
      <point x="133" y="549" type="line"/>
      <point x="216" y="549" type="line"/>
      <point x="285" y="549" type="line"/>
      <point x="290" y="566" type="line"/>
    </contour>
    <contour>
      <point x="344" y="756" type="line"/>
      <point x="159" y="756" type="line"/>
      <point x="154" y="740" type="line"/>
      <point x="156" y="737" type="line"/>
      <point x="248" y="737" type="line"/>
      <point x="340" y="736" type="line"/>
      <point x="345" y="753" type="line"/>
    </contour>
  </outline>
</glyph>
<glyph name="Eta.sups" format="2">
  <advance width="445"/>
  <anchor x="236" y="348" name="bottom"/>
  <anchor x="359" y="348" name="bottomright"/>
  <anchor x="265" y="552" name="center"/>
  <anchor x="296" y="756" name="top"/>
  <anchor x="78" y="756" name="topleft"/>
  <outline>
    <contour>
      <point x="431" y="756" type="line"/>
      <point x="410" y="756" type="line"/>
      <point x="375" y="473" type="line"/>
      <point x="359" y="348" type="line"/>
      <point x="380" y="348" type="line"/>
      <point x="396" y="473" type="line"/>
    </contour>
    <contour>
      <point x="165" y="756" type="line"/>
      <point x="144" y="756" type="line"/>
      <point x="110" y="473" type="line"/>
      <point x="93" y="348" type="line"/>
      <point x="114" y="348" type="line"/>
      <point x="130" y="473" type="line"/>
    </contour>
    <contour>
      <point x="393" y="565" type="line"/>
      <point x="262" y="565" type="line"/>
      <point x="136" y="565" type="line"/>
      <point x="134" y="545" type="line"/>
      <point x="257" y="546" type="line"/>
      <point x="389" y="545" type="line"/>
    </contour>
  </outline>
</glyph>
<glyph name="I.ss01" format="2">
  <advance width="282"/>
  <anchor x="112" y="0" name="ogonek"/>
  <anchor x="180" y="637" name="top"/>
  <outline>
    <contour>
      <point x="92" y="0" type="line"/>
      <point x="112" y="0" type="line"/>
      <point x="136" y="195" type="line"/>
      <point x="190" y="637" type="line"/>
      <point x="170" y="637" type="line"/>
      <point x="116" y="195" type="line"/>
    </contour>
    <contour>
      <point x="-79" y="0" type="line"/>
      <point x="283" y="0" type="line"/>
      <point x="285" y="20" type="line"/>
      <point x="-77" y="20" type="line"/>
    </contour>
    <contour>
      <point x="-3" y="617" type="line"/>
      <point x="359" y="617" type="line"/>
      <point x="361" y="637" type="line"/>
      <point x="-1" y="637" type="line"/>
    </contour>
  </outline>
</glyph>
<glyph name="Iota.sups" format="2">
  <advance width="179"/>
  <anchor x="104" y="348" name="bottom"/>
  <anchor x="114" y="348" name="ogonek"/>
  <anchor x="155" y="756" name="top"/>
  <anchor x="78" y="756" name="topleft"/>
  <outline>
    <contour>
      <point x="165" y="756" type="line"/>
      <point x="144" y="756" type="line"/>
      <point x="110" y="473" type="line"/>
      <point x="93" y="348" type="line"/>
      <point x="114" y="348" type="line"/>
      <point x="130" y="473" type="line"/>
    </contour>
  </outline>
</glyph>
<glyph name="Kappa.sups" format="2">
  <advance width="346"/>
  <anchor x="219" y="348" name="bottom"/>
  <anchor x="209" y="756" name="top"/>
  <outline>
    <contour>
      <point x="385" y="756" type="line"/>
      <point x="357" y="756" type="line"/>
      <point x="326" y="725" type="line"/>
      <point x="156" y="567" type="line"/>
      <point x="156" y="565" type="line"/>
      <point x="206" y="489"/>
      <point x="264" y="414"/>
      <point x="322" y="344" type="curve"/>
      <point x="325" y="343" type="line"/>
      <point x="331" y="345"/>
      <point x="337" y="346"/>
      <point x="343" y="350" type="curve"/>
      <point x="343" y="353" type="line"/>
      <point x="287" y="419"/>
      <point x="231" y="492"/>
      <point x="182" y="565" type="curve"/>
    </contour>
    <contour>
      <point x="165" y="756" type="line"/>
      <point x="144" y="756" type="line"/>
      <point x="109" y="473" type="line"/>
      <point x="92" y="348" type="line"/>
      <point x="113" y="348" type="line"/>
      <point x="129" y="473" type="line"/>
    </contour>
  </outline>
</glyph>
<glyph name="L.ss01.BRACKET.80" format="2">
  <advance width="456"/>
  <anchor x="189" y="0" name="bottom"/>
  <anchor x="228" y="319" name="center"/>
  <anchor x="267" y="637" name="top"/>
  <anchor x="475" y="637" name="topright"/>
  <outline>
    <contour>
      <point x="-79" y="0" type="line"/>
      <point x="457" y="0" type="line"/>
      <point x="459" y="20" type="line"/>
      <point x="-77" y="20" type="line"/>
    </contour>
    <contour>
      <point x="-3" y="617" type="line"/>
      <point x="533" y="617" type="line"/>
      <point x="535" y="637" type="line"/>
      <point x="-1" y="637" type="line"/>
    </contour>
    <contour>
      <point x="190" y="637" type="line"/>
      <point x="170" y="637" type="line"/>
      <point x="116" y="195" type="line"/>
      <point x="92" y="0" type="line"/>
      <point x="112" y="0" type="line"/>
      <point x="136" y="195" type="line"/>
    </contour>
    <contour>
      <point x="378" y="130" type="line"/>
      <point x="364" y="20" type="line"/>
      <point x="105" y="20" type="line"/>
      <point x="103" y="0" type="line"/>
      <point x="382" y="0" type="line"/>
      <point x="398" y="130" type="line"/>
    </contour>
  </outline>
</glyph>
<glyph name="M.ss01" format="2">
  <advance width="822"/>
  <anchor x="372" y="0" name="bottom"/>
  <anchor x="450" y="637" name="top"/>
  <outline>
    <contour>
      <point x="55" y="0" type="line"/>
      <point x="76" y="0" type="line"/>
      <point x="125" y="210" type="line"/>
      <point x="214" y="590" type="line"/>
      <point x="219" y="590" type="line"/>
      <point x="369" y="99" type="line"/>
      <point x="394" y="99" type="line"/>
      <point x="669" y="590" type="line"/>
      <point x="673" y="590" type="line"/>
      <point x="671" y="210" type="line"/>
      <point x="667" y="0" type="line"/>
      <point x="688" y="0" type="line"/>
      <point x="696" y="637" type="line"/>
      <point x="673" y="637" type="line"/>
      <point x="625" y="552" type="line"/>
      <point x="386" y="128" type="line"/>
      <point x="382" y="128" type="line"/>
      <point x="256" y="541" type="line"/>
      <point x="228" y="637" type="line"/>
      <point x="205" y="637" type="line"/>
    </contour>
    <contour>
      <point x="-79" y="0" type="line"/>
      <point x="823" y="0" type="line"/>
      <point x="825" y="20" type="line"/>
      <point x="-77" y="20" type="line"/>
    </contour>
    <contour>
      <point x="-3" y="617" type="line"/>
      <point x="899" y="617" type="line"/>
      <point x="901" y="637" type="line"/>
      <point x="-1" y="637" type="line"/>
    </contour>
  </outline>
</glyph>
<glyph name="Mu.sups" format="2">
  <advance width="513"/>
  <anchor x="271" y="348" name="bottom"/>
  <anchor x="321" y="756" name="top"/>
  <outline>
    <contour>
      <point x="480" y="756" type="line"/>
      <point x="455" y="756" type="line"/>
      <point x="425" y="699" type="line"/>
      <point x="280" y="428" type="line"/>
      <point x="277" y="428" type="line"/>
      <point x="207" y="693" type="line"/>
      <point x="191" y="756" type="line"/>
      <point x="167" y="756" type="line"/>
      <point x="72" y="348" type="line"/>
      <point x="92" y="348" type="line"/>
      <point x="120" y="474" type="line"/>
      <point x="176" y="715" type="line"/>
      <point x="179" y="715" type="line"/>
      <point x="264" y="399" type="line"/>
      <point x="286" y="399" type="line"/>
      <point x="454" y="715" type="line"/>
      <point x="457" y="715" type="line"/>
      <point x="453" y="473" type="line"/>
      <point x="449" y="348" type="line"/>
      <point x="469" y="348" type="line"/>
    </contour>
  </outline>
</glyph>
<glyph name="Omicron.sups" format="2">
  <advance width="421"/>
  <anchor x="225" y="348" name="bottom"/>
  <anchor x="250" y="552" name="center"/>
  <anchor x="284" y="354" name="ogonek"/>
  <anchor x="284" y="756" name="top"/>
  <anchor x="81" y="756" name="topleft"/>
  <anchor x="460" y="756" name="topright"/>
  <outline>
    <contour>
      <point x="278" y="760" type="curve"/>
      <point x="152" y="760"/>
      <point x="80" y="666"/>
      <point x="80" y="512" type="curve" smooth="yes"/>
      <point x="80" y="405"/>
      <point x="131" y="344"/>
      <point x="222" y="344" type="curve" smooth="yes"/>
      <point x="350" y="344"/>
      <point x="422" y="441"/>
      <point x="422" y="597" type="curve" smooth="yes"/>
      <point x="422" y="701"/>
      <point x="372" y="760"/>
    </contour>
    <contour>
      <point x="277" y="740" type="curve" smooth="yes"/>
      <point x="358" y="740"/>
      <point x="400" y="688"/>
      <point x="400" y="593" type="curve" smooth="yes"/>
      <point x="400" y="451"/>
      <point x="337" y="364"/>
      <point x="224" y="364" type="curve" smooth="yes"/>
      <point x="144" y="364"/>
      <point x="102" y="417"/>
      <point x="102" y="514" type="curve" smooth="yes"/>
      <point x="102" y="655"/>
      <point x="165" y="740"/>
    </contour>
  </outline>
</glyph>
<glyph name="Phi.sups" format="2">
  <advance width="442"/>
  <outline>
    <contour>
      <point x="236" y="381" type="curve" smooth="yes"/>
      <point x="370" y="381"/>
      <point x="455" y="456"/>
      <point x="455" y="576" type="curve" smooth="yes"/>
      <point x="455" y="674"/>
      <point x="398" y="722"/>
      <point x="285" y="722" type="curve" smooth="yes"/>
      <point x="149" y="722"/>
      <point x="67" y="651"/>
      <point x="67" y="531" type="curve" smooth="yes"/>
      <point x="67" y="432"/>
      <point x="125" y="381"/>
    </contour>
    <contour>
      <point x="239" y="399" type="curve" smooth="yes"/>
      <point x="139" y="399"/>
      <point x="88" y="445"/>
      <point x="88" y="534" type="curve" smooth="yes"/>
      <point x="88" y="640"/>
      <point x="160" y="704"/>
      <point x="282" y="704" type="curve" smooth="yes"/>
      <point x="383" y="704"/>
      <point x="434" y="660"/>
      <point x="434" y="574" type="curve" smooth="yes"/>
      <point x="434" y="466"/>
      <point x="359" y="399"/>
    </contour>
    <contour>
      <point x="225" y="339" type="line"/>
      <point x="245" y="339" type="line"/>
      <point x="261" y="473" type="line"/>
      <point x="298" y="765" type="line"/>
      <point x="277" y="765" type="line"/>
      <point x="242" y="473" type="line"/>
    </contour>
  </outline>
</glyph>
<glyph name="Pi.sups" format="2">
  <advance width="436"/>
  <anchor x="350" y="348" name="bottomright"/>
  <outline>
    <contour>
      <point x="350" y="348" type="line"/>
      <point x="372" y="348" type="line"/>
      <point x="387" y="473" type="line"/>
      <point x="422" y="756" type="line"/>
      <point x="400" y="756" type="line"/>
      <point x="366" y="473" type="line"/>
    </contour>
    <contour>
      <point x="94" y="348" type="line"/>
      <point x="115" y="348" type="line"/>
      <point x="130" y="473" type="line"/>
      <point x="165" y="756" type="line"/>
      <point x="144" y="756" type="line"/>
      <point x="110" y="473" type="line"/>
    </contour>
    <contour>
      <point x="158" y="737" type="line"/>
      <point x="274" y="737" type="line"/>
      <point x="405" y="737" type="line"/>
      <point x="407" y="756" type="line"/>
      <point x="160" y="756" type="line"/>
    </contour>
  </outline>
</glyph>
<glyph name="Psi.sups" format="2">
  <advance width="424"/>
  <outline>
    <contour>
      <point x="237" y="431" type="curve" smooth="yes"/>
      <point x="342" y="431"/>
      <point x="410" y="484"/>
      <point x="420" y="578" type="curve"/>
      <point x="427" y="632" type="line"/>
      <point x="442" y="756" type="line"/>
      <point x="422" y="756" type="line"/>
      <point x="400" y="580" type="line" smooth="yes"/>
      <point x="389" y="494"/>
      <point x="333" y="450"/>
      <point x="240" y="450" type="curve" smooth="yes"/>
      <point x="145" y="450"/>
      <point x="100" y="494"/>
      <point x="111" y="580" type="curve" smooth="yes"/>
      <point x="133" y="756" type="line"/>
      <point x="112" y="756" type="line"/>
      <point x="98" y="639" type="line"/>
      <point x="91" y="578" type="line" smooth="yes"/>
      <point x="80" y="481"/>
      <point x="131" y="431"/>
    </contour>
    <contour>
      <point x="217" y="348" type="line"/>
      <point x="237" y="348" type="line"/>
      <point x="252" y="473" type="line"/>
      <point x="287" y="756" type="line"/>
      <point x="267" y="756" type="line"/>
      <point x="233" y="473" type="line"/>
    </contour>
  </outline>
</glyph>
<glyph name="Q.short" format="2">
  <advance width="593"/>
  <outline>
    <contour>
      <point x="355" y="642" type="curve"/>
      <point x="165" y="642"/>
      <point x="56" y="495"/>
      <point x="56" y="253" type="curve" smooth="yes"/>
      <point x="56" y="89"/>
      <point x="130" y="-5"/>
      <point x="267" y="-5" type="curve" smooth="yes"/>
      <point x="459" y="-5"/>
      <point x="568" y="147"/>
      <point x="568" y="391" type="curve" smooth="yes"/>
      <point x="568" y="551"/>
      <point x="494" y="642"/>
    </contour>
    <contour>
      <point x="307" y="8" type="curve"/>
      <point x="289" y="-1" type="line"/>
      <point x="339" y="-82"/>
      <point x="413" y="-140"/>
      <point x="528" y="-185" type="curve"/>
      <point x="533" y="-185" type="line"/>
      <point x="533" y="-185"/>
      <point x="536" y="-181"/>
      <point x="540" y="-174" type="curve"/>
      <point x="541" y="-168" type="line"/>
      <point x="426" y="-123"/>
      <point x="353" y="-68"/>
    </contour>
    <contour>
      <point x="354" y="622" type="curve" smooth="yes"/>
      <point x="481" y="622"/>
      <point x="547" y="537"/>
      <point x="547" y="387" type="curve" smooth="yes"/>
      <point x="547" y="159"/>
      <point x="445" y="15"/>
      <point x="268" y="15" type="curve" smooth="yes"/>
      <point x="144" y="15"/>
      <point x="77" y="103"/>
      <point x="77" y="256" type="curve" smooth="yes"/>
      <point x="77" y="483"/>
      <point x="179" y="622"/>
    </contour>
  </outline>
</glyph>
<glyph name="Rho.sups" format="2">
  <advance width="315"/>
  <anchor x="78" y="756" name="topleft"/>
  <outline>
    <contour>
      <point x="238" y="757" type="curve"/>
      <point x="144" y="756" type="line"/>
      <point x="152" y="737" type="line"/>
      <point x="239" y="738" type="line"/>
      <point x="293" y="736"/>
      <point x="320" y="706"/>
      <point x="320" y="655" type="curve" smooth="yes"/>
      <point x="320" y="582"/>
      <point x="278" y="530"/>
      <point x="209" y="523" type="curve"/>
      <point x="124" y="524" type="line"/>
      <point x="122" y="504" type="line"/>
      <point x="187" y="504" type="line"/>
      <point x="286" y="504"/>
      <point x="342" y="564"/>
      <point x="342" y="658" type="curve" smooth="yes"/>
      <point x="342" y="722"/>
      <point x="304" y="757"/>
    </contour>
    <contour>
      <point x="166" y="756" type="line"/>
      <point x="144" y="756" type="line"/>
      <point x="110" y="473" type="line"/>
      <point x="93" y="348" type="line"/>
      <point x="114" y="348" type="line"/>
      <point x="130" y="473" type="line"/>
    </contour>
  </outline>
</glyph>
<glyph name="Tau.sups" format="2">
  <advance width="269"/>
  <anchor x="149" y="348" name="bottom"/>
  <anchor x="178" y="552" name="center"/>
  <anchor x="199" y="756" name="top"/>
  <outline>
    <contour>
      <point x="210" y="750" type="line"/>
      <point x="188" y="750" type="line"/>
      <point x="154" y="473" type="line"/>
      <point x="138" y="348" type="line"/>
      <point x="159" y="348" type="line"/>
      <point x="174" y="473" type="line"/>
    </contour>
    <contour>
      <point x="330" y="756" type="line"/>
      <point x="70" y="756" type="line"/>
      <point x="65" y="740" type="line"/>
      <point x="67" y="736" type="line"/>
      <point x="133" y="737" type="line"/>
      <point x="263" y="737" type="line"/>
      <point x="327" y="736" type="line"/>
      <point x="332" y="753" type="line"/>
    </contour>
  </outline>
</glyph>
<glyph name="V.ss01" format="2">
  <advance width="576"/>
  <outline>
    <contour>
      <point x="230" y="0" type="line"/>
      <point x="250" y="0" type="line"/>
      <point x="582" y="637" type="line" smooth="yes"/>
      <point x="558" y="637" type="line"/>
      <point x="539" y="594" type="line"/>
      <point x="247" y="34" type="line"/>
      <point x="243" y="34" type="line"/>
      <point x="106" y="594" type="line"/>
      <point x="98" y="637" type="line"/>
      <point x="75" y="637" type="line"/>
    </contour>
    <contour>
      <point x="-79" y="0" type="line"/>
      <point x="577" y="0" type="line"/>
      <point x="579" y="20" type="line"/>
      <point x="-77" y="20" type="line"/>
    </contour>
    <contour>
      <point x="-3" y="617" type="line"/>
      <point x="653" y="617" type="line"/>
      <point x="655" y="637" type="line"/>
      <point x="-1" y="637" type="line"/>
    </contour>
  </outline>
</glyph>
<glyph name="a.sc" format="2">
  <advance width="473"/>
  <anchor x="207" y="0" name="bottom"/>
  <anchor x="404" y="0" name="ogonek"/>
  <anchor x="273" y="491" name="top"/>
  <outline>
    <contour>
      <point x="285" y="491" type="line"/>
      <point x="263" y="491" type="line"/>
      <point x="6" y="0" type="line" smooth="yes"/>
      <point x="29" y="0" type="line"/>
      <point x="45" y="35" type="line"/>
      <point x="269" y="461" type="line"/>
      <point x="272" y="461" type="line"/>
      <point x="375" y="35" type="line"/>
      <point x="381" y="0" type="line"/>
      <point x="404" y="0" type="line"/>
    </contour>
    <contour>
      <point x="352" y="180" type="line"/>
      <point x="228" y="180" type="line"/>
      <point x="109" y="180" type="line"/>
      <point x="103" y="161" type="line"/>
      <point x="223" y="161" type="line"/>
      <point x="353" y="161" type="line"/>
    </contour>
  </outline>
</glyph>
<glyph name="a.sups" format="2">
  <advance width="299"/>
  <anchor x="9" y="0" name="ogonek"/>
  <anchor x="9" y="0" name="top"/>
  <outline>
    <contour>
      <point x="281" y="645" type="line"/>
      <point x="281" y="645" type="line"/>
      <point x="262" y="637" type="line"/>
      <point x="257" y="581" type="line"/>
      <point x="227" y="347" type="line"/>
      <point x="250" y="350" type="line"/>
      <point x="255" y="418" type="line"/>
      <point x="285" y="643" type="line"/>
    </contour>
    <contour>
      <point x="164" y="460" type="line"/>
      <point x="164" y="460" type="line"/>
    </contour>
    <contour>
      <point x="221" y="643" type="line"/>
      <point x="221" y="643" type="line"/>
      <point x="124" y="635"/>
      <point x="72" y="544"/>
      <point x="72" y="440" type="curve" smooth="yes"/>
      <point x="72" y="388"/>
      <point x="83" y="364"/>
      <point x="110" y="347" type="curve"/>
      <point x="118" y="347" type="line"/>
      <point x="163" y="387"/>
      <point x="208" y="447"/>
      <point x="245" y="516" type="curve"/>
      <point x="249" y="516" type="line"/>
      <point x="261" y="577" type="line"/>
      <point x="198" y="447"/>
      <point x="127" y="371"/>
      <point x="117" y="371" type="curve" smooth="yes"/>
      <point x="109" y="371"/>
      <point x="91" y="389"/>
      <point x="91" y="445" type="curve" smooth="yes"/>
      <point x="91" y="539"/>
      <point x="140" y="624"/>
      <point x="221" y="625" type="curve"/>
      <point x="271" y="621" type="line"/>
      <point x="278" y="638" type="line"/>
      <point x="224" y="643" type="line"/>
    </contour>
  </outline>
</glyph>
